%TF.GenerationSoftware,KiCad,Pcbnew,8.0.6*%
%TF.CreationDate,2024-11-04T18:07:15+01:00*%
%TF.ProjectId,ATtiny3,41547469-6e79-4332-9e6b-696361645f70,rev?*%
%TF.SameCoordinates,Original*%
%TF.FileFunction,Legend,Bot*%
%TF.FilePolarity,Positive*%
%FSLAX46Y46*%
G04 Gerber Fmt 4.6, Leading zero omitted, Abs format (unit mm)*
G04 Created by KiCad (PCBNEW 8.0.6) date 2024-11-04 18:07:15*
%MOMM*%
%LPD*%
G01*
G04 APERTURE LIST*
G04 Aperture macros list*
%AMRoundRect*
0 Rectangle with rounded corners*
0 $1 Rounding radius*
0 $2 $3 $4 $5 $6 $7 $8 $9 X,Y pos of 4 corners*
0 Add a 4 corners polygon primitive as box body*
4,1,4,$2,$3,$4,$5,$6,$7,$8,$9,$2,$3,0*
0 Add four circle primitives for the rounded corners*
1,1,$1+$1,$2,$3*
1,1,$1+$1,$4,$5*
1,1,$1+$1,$6,$7*
1,1,$1+$1,$8,$9*
0 Add four rect primitives between the rounded corners*
20,1,$1+$1,$2,$3,$4,$5,0*
20,1,$1+$1,$4,$5,$6,$7,0*
20,1,$1+$1,$6,$7,$8,$9,0*
20,1,$1+$1,$8,$9,$2,$3,0*%
G04 Aperture macros list end*
%ADD10C,0.100000*%
%ADD11C,0.010000*%
%ADD12R,1.700000X1.700000*%
%ADD13O,1.700000X1.700000*%
%ADD14C,0.670000*%
%ADD15RoundRect,0.500000X-0.600000X0.000010X-0.600000X-0.000010X0.600000X-0.000010X0.600000X0.000010X0*%
%ADD16RoundRect,0.500000X-0.300000X0.000010X-0.300000X-0.000010X0.300000X-0.000010X0.300000X0.000010X0*%
%ADD17C,1.400000*%
%ADD18O,1.400000X1.400000*%
G04 APERTURE END LIST*
D10*
X67701430Y-27978813D02*
X67320477Y-27978813D01*
X67777620Y-28207385D02*
X67510953Y-27407385D01*
X67510953Y-27407385D02*
X67244287Y-28207385D01*
X67091906Y-27407385D02*
X66634763Y-27407385D01*
X66863335Y-28207385D02*
X66863335Y-27407385D01*
X66482382Y-27407385D02*
X66025239Y-27407385D01*
X66253811Y-28207385D02*
X66253811Y-27407385D01*
X65758572Y-28207385D02*
X65758572Y-27674051D01*
X65758572Y-27407385D02*
X65796668Y-27445480D01*
X65796668Y-27445480D02*
X65758572Y-27483575D01*
X65758572Y-27483575D02*
X65720477Y-27445480D01*
X65720477Y-27445480D02*
X65758572Y-27407385D01*
X65758572Y-27407385D02*
X65758572Y-27483575D01*
X65377620Y-27674051D02*
X65377620Y-28207385D01*
X65377620Y-27750242D02*
X65339525Y-27712147D01*
X65339525Y-27712147D02*
X65263335Y-27674051D01*
X65263335Y-27674051D02*
X65149049Y-27674051D01*
X65149049Y-27674051D02*
X65072858Y-27712147D01*
X65072858Y-27712147D02*
X65034763Y-27788337D01*
X65034763Y-27788337D02*
X65034763Y-28207385D01*
X64730001Y-27674051D02*
X64539525Y-28207385D01*
X64349048Y-27674051D02*
X64539525Y-28207385D01*
X64539525Y-28207385D02*
X64615715Y-28397861D01*
X64615715Y-28397861D02*
X64653810Y-28435956D01*
X64653810Y-28435956D02*
X64730001Y-28474051D01*
X63434762Y-28207385D02*
X63434762Y-27407385D01*
X63434762Y-27712147D02*
X63358572Y-27674051D01*
X63358572Y-27674051D02*
X63206191Y-27674051D01*
X63206191Y-27674051D02*
X63130000Y-27712147D01*
X63130000Y-27712147D02*
X63091905Y-27750242D01*
X63091905Y-27750242D02*
X63053810Y-27826432D01*
X63053810Y-27826432D02*
X63053810Y-28055004D01*
X63053810Y-28055004D02*
X63091905Y-28131194D01*
X63091905Y-28131194D02*
X63130000Y-28169290D01*
X63130000Y-28169290D02*
X63206191Y-28207385D01*
X63206191Y-28207385D02*
X63358572Y-28207385D01*
X63358572Y-28207385D02*
X63434762Y-28169290D01*
X62710952Y-28207385D02*
X62710952Y-27674051D01*
X62710952Y-27826432D02*
X62672857Y-27750242D01*
X62672857Y-27750242D02*
X62634762Y-27712147D01*
X62634762Y-27712147D02*
X62558571Y-27674051D01*
X62558571Y-27674051D02*
X62482381Y-27674051D01*
X61910952Y-28169290D02*
X61987143Y-28207385D01*
X61987143Y-28207385D02*
X62139524Y-28207385D01*
X62139524Y-28207385D02*
X62215714Y-28169290D01*
X62215714Y-28169290D02*
X62253810Y-28093099D01*
X62253810Y-28093099D02*
X62253810Y-27788337D01*
X62253810Y-27788337D02*
X62215714Y-27712147D01*
X62215714Y-27712147D02*
X62139524Y-27674051D01*
X62139524Y-27674051D02*
X61987143Y-27674051D01*
X61987143Y-27674051D02*
X61910952Y-27712147D01*
X61910952Y-27712147D02*
X61872857Y-27788337D01*
X61872857Y-27788337D02*
X61872857Y-27864528D01*
X61872857Y-27864528D02*
X62253810Y-27940718D01*
X61187143Y-28207385D02*
X61187143Y-27788337D01*
X61187143Y-27788337D02*
X61225238Y-27712147D01*
X61225238Y-27712147D02*
X61301429Y-27674051D01*
X61301429Y-27674051D02*
X61453810Y-27674051D01*
X61453810Y-27674051D02*
X61530000Y-27712147D01*
X61187143Y-28169290D02*
X61263334Y-28207385D01*
X61263334Y-28207385D02*
X61453810Y-28207385D01*
X61453810Y-28207385D02*
X61530000Y-28169290D01*
X61530000Y-28169290D02*
X61568096Y-28093099D01*
X61568096Y-28093099D02*
X61568096Y-28016909D01*
X61568096Y-28016909D02*
X61530000Y-27940718D01*
X61530000Y-27940718D02*
X61453810Y-27902623D01*
X61453810Y-27902623D02*
X61263334Y-27902623D01*
X61263334Y-27902623D02*
X61187143Y-27864528D01*
X60806190Y-28207385D02*
X60806190Y-27407385D01*
X60730000Y-27902623D02*
X60501428Y-28207385D01*
X60501428Y-27674051D02*
X60806190Y-27978813D01*
X60158571Y-28207385D02*
X60158571Y-27407385D01*
X60158571Y-27712147D02*
X60082381Y-27674051D01*
X60082381Y-27674051D02*
X59930000Y-27674051D01*
X59930000Y-27674051D02*
X59853809Y-27712147D01*
X59853809Y-27712147D02*
X59815714Y-27750242D01*
X59815714Y-27750242D02*
X59777619Y-27826432D01*
X59777619Y-27826432D02*
X59777619Y-28055004D01*
X59777619Y-28055004D02*
X59815714Y-28131194D01*
X59815714Y-28131194D02*
X59853809Y-28169290D01*
X59853809Y-28169290D02*
X59930000Y-28207385D01*
X59930000Y-28207385D02*
X60082381Y-28207385D01*
X60082381Y-28207385D02*
X60158571Y-28169290D01*
X59320476Y-28207385D02*
X59396666Y-28169290D01*
X59396666Y-28169290D02*
X59434761Y-28131194D01*
X59434761Y-28131194D02*
X59472857Y-28055004D01*
X59472857Y-28055004D02*
X59472857Y-27826432D01*
X59472857Y-27826432D02*
X59434761Y-27750242D01*
X59434761Y-27750242D02*
X59396666Y-27712147D01*
X59396666Y-27712147D02*
X59320476Y-27674051D01*
X59320476Y-27674051D02*
X59206190Y-27674051D01*
X59206190Y-27674051D02*
X59129999Y-27712147D01*
X59129999Y-27712147D02*
X59091904Y-27750242D01*
X59091904Y-27750242D02*
X59053809Y-27826432D01*
X59053809Y-27826432D02*
X59053809Y-28055004D01*
X59053809Y-28055004D02*
X59091904Y-28131194D01*
X59091904Y-28131194D02*
X59129999Y-28169290D01*
X59129999Y-28169290D02*
X59206190Y-28207385D01*
X59206190Y-28207385D02*
X59320476Y-28207385D01*
X58368094Y-28207385D02*
X58368094Y-27788337D01*
X58368094Y-27788337D02*
X58406189Y-27712147D01*
X58406189Y-27712147D02*
X58482380Y-27674051D01*
X58482380Y-27674051D02*
X58634761Y-27674051D01*
X58634761Y-27674051D02*
X58710951Y-27712147D01*
X58368094Y-28169290D02*
X58444285Y-28207385D01*
X58444285Y-28207385D02*
X58634761Y-28207385D01*
X58634761Y-28207385D02*
X58710951Y-28169290D01*
X58710951Y-28169290D02*
X58749047Y-28093099D01*
X58749047Y-28093099D02*
X58749047Y-28016909D01*
X58749047Y-28016909D02*
X58710951Y-27940718D01*
X58710951Y-27940718D02*
X58634761Y-27902623D01*
X58634761Y-27902623D02*
X58444285Y-27902623D01*
X58444285Y-27902623D02*
X58368094Y-27864528D01*
X57987141Y-28207385D02*
X57987141Y-27674051D01*
X57987141Y-27826432D02*
X57949046Y-27750242D01*
X57949046Y-27750242D02*
X57910951Y-27712147D01*
X57910951Y-27712147D02*
X57834760Y-27674051D01*
X57834760Y-27674051D02*
X57758570Y-27674051D01*
X57149046Y-28207385D02*
X57149046Y-27407385D01*
X57149046Y-28169290D02*
X57225237Y-28207385D01*
X57225237Y-28207385D02*
X57377618Y-28207385D01*
X57377618Y-28207385D02*
X57453808Y-28169290D01*
X57453808Y-28169290D02*
X57491903Y-28131194D01*
X57491903Y-28131194D02*
X57529999Y-28055004D01*
X57529999Y-28055004D02*
X57529999Y-27826432D01*
X57529999Y-27826432D02*
X57491903Y-27750242D01*
X57491903Y-27750242D02*
X57453808Y-27712147D01*
X57453808Y-27712147D02*
X57377618Y-27674051D01*
X57377618Y-27674051D02*
X57225237Y-27674051D01*
X57225237Y-27674051D02*
X57149046Y-27712147D01*
X56234760Y-27674051D02*
X56044284Y-28207385D01*
X56044284Y-28207385D02*
X55853807Y-27674051D01*
X55129998Y-28207385D02*
X55587141Y-28207385D01*
X55358569Y-28207385D02*
X55358569Y-27407385D01*
X55358569Y-27407385D02*
X55434760Y-27521670D01*
X55434760Y-27521670D02*
X55510950Y-27597861D01*
X55510950Y-27597861D02*
X55587141Y-27635956D01*
X54787140Y-28131194D02*
X54749045Y-28169290D01*
X54749045Y-28169290D02*
X54787140Y-28207385D01*
X54787140Y-28207385D02*
X54825236Y-28169290D01*
X54825236Y-28169290D02*
X54787140Y-28131194D01*
X54787140Y-28131194D02*
X54787140Y-28207385D01*
X54253807Y-27407385D02*
X54177617Y-27407385D01*
X54177617Y-27407385D02*
X54101426Y-27445480D01*
X54101426Y-27445480D02*
X54063331Y-27483575D01*
X54063331Y-27483575D02*
X54025236Y-27559766D01*
X54025236Y-27559766D02*
X53987141Y-27712147D01*
X53987141Y-27712147D02*
X53987141Y-27902623D01*
X53987141Y-27902623D02*
X54025236Y-28055004D01*
X54025236Y-28055004D02*
X54063331Y-28131194D01*
X54063331Y-28131194D02*
X54101426Y-28169290D01*
X54101426Y-28169290D02*
X54177617Y-28207385D01*
X54177617Y-28207385D02*
X54253807Y-28207385D01*
X54253807Y-28207385D02*
X54329998Y-28169290D01*
X54329998Y-28169290D02*
X54368093Y-28131194D01*
X54368093Y-28131194D02*
X54406188Y-28055004D01*
X54406188Y-28055004D02*
X54444284Y-27902623D01*
X54444284Y-27902623D02*
X54444284Y-27712147D01*
X54444284Y-27712147D02*
X54406188Y-27559766D01*
X54406188Y-27559766D02*
X54368093Y-27483575D01*
X54368093Y-27483575D02*
X54329998Y-27445480D01*
X54329998Y-27445480D02*
X54253807Y-27407385D01*
X67663334Y-29495340D02*
X67663334Y-28962006D01*
X67663334Y-29038197D02*
X67625239Y-29000102D01*
X67625239Y-29000102D02*
X67549049Y-28962006D01*
X67549049Y-28962006D02*
X67434763Y-28962006D01*
X67434763Y-28962006D02*
X67358572Y-29000102D01*
X67358572Y-29000102D02*
X67320477Y-29076292D01*
X67320477Y-29076292D02*
X67320477Y-29495340D01*
X67320477Y-29076292D02*
X67282382Y-29000102D01*
X67282382Y-29000102D02*
X67206191Y-28962006D01*
X67206191Y-28962006D02*
X67091906Y-28962006D01*
X67091906Y-28962006D02*
X67015715Y-29000102D01*
X67015715Y-29000102D02*
X66977620Y-29076292D01*
X66977620Y-29076292D02*
X66977620Y-29495340D01*
X66253810Y-29495340D02*
X66253810Y-29076292D01*
X66253810Y-29076292D02*
X66291905Y-29000102D01*
X66291905Y-29000102D02*
X66368096Y-28962006D01*
X66368096Y-28962006D02*
X66520477Y-28962006D01*
X66520477Y-28962006D02*
X66596667Y-29000102D01*
X66253810Y-29457245D02*
X66330001Y-29495340D01*
X66330001Y-29495340D02*
X66520477Y-29495340D01*
X66520477Y-29495340D02*
X66596667Y-29457245D01*
X66596667Y-29457245D02*
X66634763Y-29381054D01*
X66634763Y-29381054D02*
X66634763Y-29304864D01*
X66634763Y-29304864D02*
X66596667Y-29228673D01*
X66596667Y-29228673D02*
X66520477Y-29190578D01*
X66520477Y-29190578D02*
X66330001Y-29190578D01*
X66330001Y-29190578D02*
X66253810Y-29152483D01*
X65530000Y-28962006D02*
X65530000Y-29495340D01*
X65872857Y-28962006D02*
X65872857Y-29381054D01*
X65872857Y-29381054D02*
X65834762Y-29457245D01*
X65834762Y-29457245D02*
X65758572Y-29495340D01*
X65758572Y-29495340D02*
X65644286Y-29495340D01*
X65644286Y-29495340D02*
X65568095Y-29457245D01*
X65568095Y-29457245D02*
X65530000Y-29419149D01*
X65149047Y-29495340D02*
X65149047Y-28962006D01*
X65149047Y-29114387D02*
X65110952Y-29038197D01*
X65110952Y-29038197D02*
X65072857Y-29000102D01*
X65072857Y-29000102D02*
X64996666Y-28962006D01*
X64996666Y-28962006D02*
X64920476Y-28962006D01*
X64653809Y-29495340D02*
X64653809Y-28962006D01*
X64653809Y-28695340D02*
X64691905Y-28733435D01*
X64691905Y-28733435D02*
X64653809Y-28771530D01*
X64653809Y-28771530D02*
X64615714Y-28733435D01*
X64615714Y-28733435D02*
X64653809Y-28695340D01*
X64653809Y-28695340D02*
X64653809Y-28771530D01*
X64349048Y-28962006D02*
X63930000Y-28962006D01*
X63930000Y-28962006D02*
X64349048Y-29495340D01*
X64349048Y-29495340D02*
X63930000Y-29495340D01*
X63625238Y-29495340D02*
X63625238Y-28962006D01*
X63625238Y-28695340D02*
X63663334Y-28733435D01*
X63663334Y-28733435D02*
X63625238Y-28771530D01*
X63625238Y-28771530D02*
X63587143Y-28733435D01*
X63587143Y-28733435D02*
X63625238Y-28695340D01*
X63625238Y-28695340D02*
X63625238Y-28771530D01*
X63130001Y-29495340D02*
X63206191Y-29457245D01*
X63206191Y-29457245D02*
X63244286Y-29419149D01*
X63244286Y-29419149D02*
X63282382Y-29342959D01*
X63282382Y-29342959D02*
X63282382Y-29114387D01*
X63282382Y-29114387D02*
X63244286Y-29038197D01*
X63244286Y-29038197D02*
X63206191Y-29000102D01*
X63206191Y-29000102D02*
X63130001Y-28962006D01*
X63130001Y-28962006D02*
X63015715Y-28962006D01*
X63015715Y-28962006D02*
X62939524Y-29000102D01*
X62939524Y-29000102D02*
X62901429Y-29038197D01*
X62901429Y-29038197D02*
X62863334Y-29114387D01*
X62863334Y-29114387D02*
X62863334Y-29342959D01*
X62863334Y-29342959D02*
X62901429Y-29419149D01*
X62901429Y-29419149D02*
X62939524Y-29457245D01*
X62939524Y-29457245D02*
X63015715Y-29495340D01*
X63015715Y-29495340D02*
X63130001Y-29495340D01*
X62520476Y-29419149D02*
X62482381Y-29457245D01*
X62482381Y-29457245D02*
X62520476Y-29495340D01*
X62520476Y-29495340D02*
X62558572Y-29457245D01*
X62558572Y-29457245D02*
X62520476Y-29419149D01*
X62520476Y-29419149D02*
X62520476Y-29495340D01*
X61796667Y-29457245D02*
X61872858Y-29495340D01*
X61872858Y-29495340D02*
X62025239Y-29495340D01*
X62025239Y-29495340D02*
X62101429Y-29457245D01*
X62101429Y-29457245D02*
X62139524Y-29419149D01*
X62139524Y-29419149D02*
X62177620Y-29342959D01*
X62177620Y-29342959D02*
X62177620Y-29114387D01*
X62177620Y-29114387D02*
X62139524Y-29038197D01*
X62139524Y-29038197D02*
X62101429Y-29000102D01*
X62101429Y-29000102D02*
X62025239Y-28962006D01*
X62025239Y-28962006D02*
X61872858Y-28962006D01*
X61872858Y-28962006D02*
X61796667Y-29000102D01*
X61339525Y-29495340D02*
X61415715Y-29457245D01*
X61415715Y-29457245D02*
X61453810Y-29419149D01*
X61453810Y-29419149D02*
X61491906Y-29342959D01*
X61491906Y-29342959D02*
X61491906Y-29114387D01*
X61491906Y-29114387D02*
X61453810Y-29038197D01*
X61453810Y-29038197D02*
X61415715Y-29000102D01*
X61415715Y-29000102D02*
X61339525Y-28962006D01*
X61339525Y-28962006D02*
X61225239Y-28962006D01*
X61225239Y-28962006D02*
X61149048Y-29000102D01*
X61149048Y-29000102D02*
X61110953Y-29038197D01*
X61110953Y-29038197D02*
X61072858Y-29114387D01*
X61072858Y-29114387D02*
X61072858Y-29342959D01*
X61072858Y-29342959D02*
X61110953Y-29419149D01*
X61110953Y-29419149D02*
X61149048Y-29457245D01*
X61149048Y-29457245D02*
X61225239Y-29495340D01*
X61225239Y-29495340D02*
X61339525Y-29495340D01*
X60730000Y-28962006D02*
X60730000Y-29495340D01*
X60730000Y-29038197D02*
X60691905Y-29000102D01*
X60691905Y-29000102D02*
X60615715Y-28962006D01*
X60615715Y-28962006D02*
X60501429Y-28962006D01*
X60501429Y-28962006D02*
X60425238Y-29000102D01*
X60425238Y-29000102D02*
X60387143Y-29076292D01*
X60387143Y-29076292D02*
X60387143Y-29495340D01*
X60120476Y-28962006D02*
X59815714Y-28962006D01*
X60006190Y-28695340D02*
X60006190Y-29381054D01*
X60006190Y-29381054D02*
X59968095Y-29457245D01*
X59968095Y-29457245D02*
X59891905Y-29495340D01*
X59891905Y-29495340D02*
X59815714Y-29495340D01*
X59549047Y-29495340D02*
X59549047Y-28962006D01*
X59549047Y-28695340D02*
X59587143Y-28733435D01*
X59587143Y-28733435D02*
X59549047Y-28771530D01*
X59549047Y-28771530D02*
X59510952Y-28733435D01*
X59510952Y-28733435D02*
X59549047Y-28695340D01*
X59549047Y-28695340D02*
X59549047Y-28771530D01*
X58672857Y-29114387D02*
X58710952Y-29076292D01*
X58710952Y-29076292D02*
X58787143Y-29038197D01*
X58787143Y-29038197D02*
X58863333Y-29038197D01*
X58863333Y-29038197D02*
X58939524Y-29076292D01*
X58939524Y-29076292D02*
X58977619Y-29114387D01*
X58977619Y-29114387D02*
X59015714Y-29190578D01*
X59015714Y-29190578D02*
X59015714Y-29266768D01*
X59015714Y-29266768D02*
X58977619Y-29342959D01*
X58977619Y-29342959D02*
X58939524Y-29381054D01*
X58939524Y-29381054D02*
X58863333Y-29419149D01*
X58863333Y-29419149D02*
X58787143Y-29419149D01*
X58787143Y-29419149D02*
X58710952Y-29381054D01*
X58710952Y-29381054D02*
X58672857Y-29342959D01*
X58672857Y-29038197D02*
X58672857Y-29342959D01*
X58672857Y-29342959D02*
X58634762Y-29381054D01*
X58634762Y-29381054D02*
X58596667Y-29381054D01*
X58596667Y-29381054D02*
X58520476Y-29342959D01*
X58520476Y-29342959D02*
X58482381Y-29266768D01*
X58482381Y-29266768D02*
X58482381Y-29076292D01*
X58482381Y-29076292D02*
X58558572Y-28962006D01*
X58558572Y-28962006D02*
X58672857Y-28885816D01*
X58672857Y-28885816D02*
X58825238Y-28847721D01*
X58825238Y-28847721D02*
X58977619Y-28885816D01*
X58977619Y-28885816D02*
X59091905Y-28962006D01*
X59091905Y-28962006D02*
X59168095Y-29076292D01*
X59168095Y-29076292D02*
X59206191Y-29228673D01*
X59206191Y-29228673D02*
X59168095Y-29381054D01*
X59168095Y-29381054D02*
X59091905Y-29495340D01*
X59091905Y-29495340D02*
X58977619Y-29571530D01*
X58977619Y-29571530D02*
X58825238Y-29609625D01*
X58825238Y-29609625D02*
X58672857Y-29571530D01*
X58672857Y-29571530D02*
X58558572Y-29495340D01*
X58253810Y-28962006D02*
X57949048Y-28962006D01*
X58139524Y-29495340D02*
X58139524Y-28809625D01*
X58139524Y-28809625D02*
X58101429Y-28733435D01*
X58101429Y-28733435D02*
X58025239Y-28695340D01*
X58025239Y-28695340D02*
X57949048Y-28695340D01*
X57339524Y-29495340D02*
X57339524Y-29076292D01*
X57339524Y-29076292D02*
X57377619Y-29000102D01*
X57377619Y-29000102D02*
X57453810Y-28962006D01*
X57453810Y-28962006D02*
X57606191Y-28962006D01*
X57606191Y-28962006D02*
X57682381Y-29000102D01*
X57339524Y-29457245D02*
X57415715Y-29495340D01*
X57415715Y-29495340D02*
X57606191Y-29495340D01*
X57606191Y-29495340D02*
X57682381Y-29457245D01*
X57682381Y-29457245D02*
X57720477Y-29381054D01*
X57720477Y-29381054D02*
X57720477Y-29304864D01*
X57720477Y-29304864D02*
X57682381Y-29228673D01*
X57682381Y-29228673D02*
X57606191Y-29190578D01*
X57606191Y-29190578D02*
X57415715Y-29190578D01*
X57415715Y-29190578D02*
X57339524Y-29152483D01*
X56958571Y-29495340D02*
X56958571Y-28695340D01*
X56958571Y-29000102D02*
X56882381Y-28962006D01*
X56882381Y-28962006D02*
X56730000Y-28962006D01*
X56730000Y-28962006D02*
X56653809Y-29000102D01*
X56653809Y-29000102D02*
X56615714Y-29038197D01*
X56615714Y-29038197D02*
X56577619Y-29114387D01*
X56577619Y-29114387D02*
X56577619Y-29342959D01*
X56577619Y-29342959D02*
X56615714Y-29419149D01*
X56615714Y-29419149D02*
X56653809Y-29457245D01*
X56653809Y-29457245D02*
X56730000Y-29495340D01*
X56730000Y-29495340D02*
X56882381Y-29495340D01*
X56882381Y-29495340D02*
X56958571Y-29457245D01*
X56120476Y-29495340D02*
X56196666Y-29457245D01*
X56196666Y-29457245D02*
X56234761Y-29381054D01*
X56234761Y-29381054D02*
X56234761Y-28695340D01*
X55472856Y-29495340D02*
X55472856Y-29076292D01*
X55472856Y-29076292D02*
X55510951Y-29000102D01*
X55510951Y-29000102D02*
X55587142Y-28962006D01*
X55587142Y-28962006D02*
X55739523Y-28962006D01*
X55739523Y-28962006D02*
X55815713Y-29000102D01*
X55472856Y-29457245D02*
X55549047Y-29495340D01*
X55549047Y-29495340D02*
X55739523Y-29495340D01*
X55739523Y-29495340D02*
X55815713Y-29457245D01*
X55815713Y-29457245D02*
X55853809Y-29381054D01*
X55853809Y-29381054D02*
X55853809Y-29304864D01*
X55853809Y-29304864D02*
X55815713Y-29228673D01*
X55815713Y-29228673D02*
X55739523Y-29190578D01*
X55739523Y-29190578D02*
X55549047Y-29190578D01*
X55549047Y-29190578D02*
X55472856Y-29152483D01*
X55091903Y-29495340D02*
X55091903Y-28695340D01*
X55091903Y-29000102D02*
X55015713Y-28962006D01*
X55015713Y-28962006D02*
X54863332Y-28962006D01*
X54863332Y-28962006D02*
X54787141Y-29000102D01*
X54787141Y-29000102D02*
X54749046Y-29038197D01*
X54749046Y-29038197D02*
X54710951Y-29114387D01*
X54710951Y-29114387D02*
X54710951Y-29342959D01*
X54710951Y-29342959D02*
X54749046Y-29419149D01*
X54749046Y-29419149D02*
X54787141Y-29457245D01*
X54787141Y-29457245D02*
X54863332Y-29495340D01*
X54863332Y-29495340D02*
X55015713Y-29495340D01*
X55015713Y-29495340D02*
X55091903Y-29457245D01*
X54368093Y-29495340D02*
X54368093Y-28962006D01*
X54368093Y-29114387D02*
X54329998Y-29038197D01*
X54329998Y-29038197D02*
X54291903Y-29000102D01*
X54291903Y-29000102D02*
X54215712Y-28962006D01*
X54215712Y-28962006D02*
X54139522Y-28962006D01*
X53758570Y-29495340D02*
X53834760Y-29457245D01*
X53834760Y-29457245D02*
X53872855Y-29419149D01*
X53872855Y-29419149D02*
X53910951Y-29342959D01*
X53910951Y-29342959D02*
X53910951Y-29114387D01*
X53910951Y-29114387D02*
X53872855Y-29038197D01*
X53872855Y-29038197D02*
X53834760Y-29000102D01*
X53834760Y-29000102D02*
X53758570Y-28962006D01*
X53758570Y-28962006D02*
X53644284Y-28962006D01*
X53644284Y-28962006D02*
X53568093Y-29000102D01*
X53568093Y-29000102D02*
X53529998Y-29038197D01*
X53529998Y-29038197D02*
X53491903Y-29114387D01*
X53491903Y-29114387D02*
X53491903Y-29342959D01*
X53491903Y-29342959D02*
X53529998Y-29419149D01*
X53529998Y-29419149D02*
X53568093Y-29457245D01*
X53568093Y-29457245D02*
X53644284Y-29495340D01*
X53644284Y-29495340D02*
X53758570Y-29495340D01*
X53149045Y-29495340D02*
X53149045Y-28962006D01*
X53149045Y-29038197D02*
X53110950Y-29000102D01*
X53110950Y-29000102D02*
X53034760Y-28962006D01*
X53034760Y-28962006D02*
X52920474Y-28962006D01*
X52920474Y-28962006D02*
X52844283Y-29000102D01*
X52844283Y-29000102D02*
X52806188Y-29076292D01*
X52806188Y-29076292D02*
X52806188Y-29495340D01*
X52806188Y-29076292D02*
X52768093Y-29000102D01*
X52768093Y-29000102D02*
X52691902Y-28962006D01*
X52691902Y-28962006D02*
X52577617Y-28962006D01*
X52577617Y-28962006D02*
X52501426Y-29000102D01*
X52501426Y-29000102D02*
X52463331Y-29076292D01*
X52463331Y-29076292D02*
X52463331Y-29495340D01*
X51739521Y-29495340D02*
X51739521Y-29076292D01*
X51739521Y-29076292D02*
X51777616Y-29000102D01*
X51777616Y-29000102D02*
X51853807Y-28962006D01*
X51853807Y-28962006D02*
X52006188Y-28962006D01*
X52006188Y-28962006D02*
X52082378Y-29000102D01*
X51739521Y-29457245D02*
X51815712Y-29495340D01*
X51815712Y-29495340D02*
X52006188Y-29495340D01*
X52006188Y-29495340D02*
X52082378Y-29457245D01*
X52082378Y-29457245D02*
X52120474Y-29381054D01*
X52120474Y-29381054D02*
X52120474Y-29304864D01*
X52120474Y-29304864D02*
X52082378Y-29228673D01*
X52082378Y-29228673D02*
X52006188Y-29190578D01*
X52006188Y-29190578D02*
X51815712Y-29190578D01*
X51815712Y-29190578D02*
X51739521Y-29152483D01*
X51015711Y-28962006D02*
X51015711Y-29609625D01*
X51015711Y-29609625D02*
X51053806Y-29685816D01*
X51053806Y-29685816D02*
X51091902Y-29723911D01*
X51091902Y-29723911D02*
X51168092Y-29762006D01*
X51168092Y-29762006D02*
X51282378Y-29762006D01*
X51282378Y-29762006D02*
X51358568Y-29723911D01*
X51015711Y-29457245D02*
X51091902Y-29495340D01*
X51091902Y-29495340D02*
X51244283Y-29495340D01*
X51244283Y-29495340D02*
X51320473Y-29457245D01*
X51320473Y-29457245D02*
X51358568Y-29419149D01*
X51358568Y-29419149D02*
X51396664Y-29342959D01*
X51396664Y-29342959D02*
X51396664Y-29114387D01*
X51396664Y-29114387D02*
X51358568Y-29038197D01*
X51358568Y-29038197D02*
X51320473Y-29000102D01*
X51320473Y-29000102D02*
X51244283Y-28962006D01*
X51244283Y-28962006D02*
X51091902Y-28962006D01*
X51091902Y-28962006D02*
X51015711Y-29000102D01*
X50634758Y-28962006D02*
X50634758Y-29495340D01*
X50634758Y-29038197D02*
X50596663Y-29000102D01*
X50596663Y-29000102D02*
X50520473Y-28962006D01*
X50520473Y-28962006D02*
X50406187Y-28962006D01*
X50406187Y-28962006D02*
X50329996Y-29000102D01*
X50329996Y-29000102D02*
X50291901Y-29076292D01*
X50291901Y-29076292D02*
X50291901Y-29495340D01*
X49568091Y-29495340D02*
X49568091Y-29076292D01*
X49568091Y-29076292D02*
X49606186Y-29000102D01*
X49606186Y-29000102D02*
X49682377Y-28962006D01*
X49682377Y-28962006D02*
X49834758Y-28962006D01*
X49834758Y-28962006D02*
X49910948Y-29000102D01*
X49568091Y-29457245D02*
X49644282Y-29495340D01*
X49644282Y-29495340D02*
X49834758Y-29495340D01*
X49834758Y-29495340D02*
X49910948Y-29457245D01*
X49910948Y-29457245D02*
X49949044Y-29381054D01*
X49949044Y-29381054D02*
X49949044Y-29304864D01*
X49949044Y-29304864D02*
X49910948Y-29228673D01*
X49910948Y-29228673D02*
X49834758Y-29190578D01*
X49834758Y-29190578D02*
X49644282Y-29190578D01*
X49644282Y-29190578D02*
X49568091Y-29152483D01*
X49187138Y-29419149D02*
X49149043Y-29457245D01*
X49149043Y-29457245D02*
X49187138Y-29495340D01*
X49187138Y-29495340D02*
X49225234Y-29457245D01*
X49225234Y-29457245D02*
X49187138Y-29419149D01*
X49187138Y-29419149D02*
X49187138Y-29495340D01*
X48691901Y-29495340D02*
X48768091Y-29457245D01*
X48768091Y-29457245D02*
X48806186Y-29419149D01*
X48806186Y-29419149D02*
X48844282Y-29342959D01*
X48844282Y-29342959D02*
X48844282Y-29114387D01*
X48844282Y-29114387D02*
X48806186Y-29038197D01*
X48806186Y-29038197D02*
X48768091Y-29000102D01*
X48768091Y-29000102D02*
X48691901Y-28962006D01*
X48691901Y-28962006D02*
X48577615Y-28962006D01*
X48577615Y-28962006D02*
X48501424Y-29000102D01*
X48501424Y-29000102D02*
X48463329Y-29038197D01*
X48463329Y-29038197D02*
X48425234Y-29114387D01*
X48425234Y-29114387D02*
X48425234Y-29342959D01*
X48425234Y-29342959D02*
X48463329Y-29419149D01*
X48463329Y-29419149D02*
X48501424Y-29457245D01*
X48501424Y-29457245D02*
X48577615Y-29495340D01*
X48577615Y-29495340D02*
X48691901Y-29495340D01*
X48082376Y-29495340D02*
X48082376Y-28962006D01*
X48082376Y-29114387D02*
X48044281Y-29038197D01*
X48044281Y-29038197D02*
X48006186Y-29000102D01*
X48006186Y-29000102D02*
X47929995Y-28962006D01*
X47929995Y-28962006D02*
X47853805Y-28962006D01*
X47244281Y-28962006D02*
X47244281Y-29609625D01*
X47244281Y-29609625D02*
X47282376Y-29685816D01*
X47282376Y-29685816D02*
X47320472Y-29723911D01*
X47320472Y-29723911D02*
X47396662Y-29762006D01*
X47396662Y-29762006D02*
X47510948Y-29762006D01*
X47510948Y-29762006D02*
X47587138Y-29723911D01*
X47244281Y-29457245D02*
X47320472Y-29495340D01*
X47320472Y-29495340D02*
X47472853Y-29495340D01*
X47472853Y-29495340D02*
X47549043Y-29457245D01*
X47549043Y-29457245D02*
X47587138Y-29419149D01*
X47587138Y-29419149D02*
X47625234Y-29342959D01*
X47625234Y-29342959D02*
X47625234Y-29114387D01*
X47625234Y-29114387D02*
X47587138Y-29038197D01*
X47587138Y-29038197D02*
X47549043Y-29000102D01*
X47549043Y-29000102D02*
X47472853Y-28962006D01*
X47472853Y-28962006D02*
X47320472Y-28962006D01*
X47320472Y-28962006D02*
X47244281Y-29000102D01*
X67663334Y-30249961D02*
X67663334Y-30783295D01*
X67663334Y-30326152D02*
X67625239Y-30288057D01*
X67625239Y-30288057D02*
X67549049Y-30249961D01*
X67549049Y-30249961D02*
X67434763Y-30249961D01*
X67434763Y-30249961D02*
X67358572Y-30288057D01*
X67358572Y-30288057D02*
X67320477Y-30364247D01*
X67320477Y-30364247D02*
X67320477Y-30783295D01*
X66825239Y-30783295D02*
X66901429Y-30745200D01*
X66901429Y-30745200D02*
X66939524Y-30707104D01*
X66939524Y-30707104D02*
X66977620Y-30630914D01*
X66977620Y-30630914D02*
X66977620Y-30402342D01*
X66977620Y-30402342D02*
X66939524Y-30326152D01*
X66939524Y-30326152D02*
X66901429Y-30288057D01*
X66901429Y-30288057D02*
X66825239Y-30249961D01*
X66825239Y-30249961D02*
X66710953Y-30249961D01*
X66710953Y-30249961D02*
X66634762Y-30288057D01*
X66634762Y-30288057D02*
X66596667Y-30326152D01*
X66596667Y-30326152D02*
X66558572Y-30402342D01*
X66558572Y-30402342D02*
X66558572Y-30630914D01*
X66558572Y-30630914D02*
X66596667Y-30707104D01*
X66596667Y-30707104D02*
X66634762Y-30745200D01*
X66634762Y-30745200D02*
X66710953Y-30783295D01*
X66710953Y-30783295D02*
X66825239Y-30783295D01*
X66291905Y-30249961D02*
X66101429Y-30783295D01*
X66101429Y-30783295D02*
X65910952Y-30249961D01*
X65606190Y-30478533D02*
X64996667Y-30478533D01*
X64653810Y-30059485D02*
X64615714Y-30021390D01*
X64615714Y-30021390D02*
X64539524Y-29983295D01*
X64539524Y-29983295D02*
X64349048Y-29983295D01*
X64349048Y-29983295D02*
X64272857Y-30021390D01*
X64272857Y-30021390D02*
X64234762Y-30059485D01*
X64234762Y-30059485D02*
X64196667Y-30135676D01*
X64196667Y-30135676D02*
X64196667Y-30211866D01*
X64196667Y-30211866D02*
X64234762Y-30326152D01*
X64234762Y-30326152D02*
X64691905Y-30783295D01*
X64691905Y-30783295D02*
X64196667Y-30783295D01*
X63701428Y-29983295D02*
X63625238Y-29983295D01*
X63625238Y-29983295D02*
X63549047Y-30021390D01*
X63549047Y-30021390D02*
X63510952Y-30059485D01*
X63510952Y-30059485D02*
X63472857Y-30135676D01*
X63472857Y-30135676D02*
X63434762Y-30288057D01*
X63434762Y-30288057D02*
X63434762Y-30478533D01*
X63434762Y-30478533D02*
X63472857Y-30630914D01*
X63472857Y-30630914D02*
X63510952Y-30707104D01*
X63510952Y-30707104D02*
X63549047Y-30745200D01*
X63549047Y-30745200D02*
X63625238Y-30783295D01*
X63625238Y-30783295D02*
X63701428Y-30783295D01*
X63701428Y-30783295D02*
X63777619Y-30745200D01*
X63777619Y-30745200D02*
X63815714Y-30707104D01*
X63815714Y-30707104D02*
X63853809Y-30630914D01*
X63853809Y-30630914D02*
X63891905Y-30478533D01*
X63891905Y-30478533D02*
X63891905Y-30288057D01*
X63891905Y-30288057D02*
X63853809Y-30135676D01*
X63853809Y-30135676D02*
X63815714Y-30059485D01*
X63815714Y-30059485D02*
X63777619Y-30021390D01*
X63777619Y-30021390D02*
X63701428Y-29983295D01*
X63130000Y-30059485D02*
X63091904Y-30021390D01*
X63091904Y-30021390D02*
X63015714Y-29983295D01*
X63015714Y-29983295D02*
X62825238Y-29983295D01*
X62825238Y-29983295D02*
X62749047Y-30021390D01*
X62749047Y-30021390D02*
X62710952Y-30059485D01*
X62710952Y-30059485D02*
X62672857Y-30135676D01*
X62672857Y-30135676D02*
X62672857Y-30211866D01*
X62672857Y-30211866D02*
X62710952Y-30326152D01*
X62710952Y-30326152D02*
X63168095Y-30783295D01*
X63168095Y-30783295D02*
X62672857Y-30783295D01*
X61987142Y-30249961D02*
X61987142Y-30783295D01*
X62177618Y-29945200D02*
X62368095Y-30516628D01*
X62368095Y-30516628D02*
X61872856Y-30516628D01*
D11*
%TO.C,L1*%
X40578128Y-30181345D02*
X40608954Y-30190968D01*
X40646916Y-30206963D01*
X40665296Y-30215559D01*
X40678561Y-30217113D01*
X40681495Y-30205198D01*
X40681498Y-30204861D01*
X40687709Y-30193487D01*
X40709131Y-30187656D01*
X40750653Y-30186014D01*
X40819812Y-30186014D01*
X40819812Y-30789579D01*
X40681495Y-30789579D01*
X40681495Y-30373427D01*
X40647110Y-30341561D01*
X40636368Y-30332504D01*
X40604370Y-30317030D01*
X40564965Y-30316410D01*
X40511312Y-30330064D01*
X40493225Y-30330929D01*
X40472008Y-30317683D01*
X40443768Y-30286200D01*
X40430069Y-30268785D01*
X40413868Y-30244197D01*
X40411371Y-30228545D01*
X40420442Y-30215341D01*
X40448289Y-30198645D01*
X40491540Y-30185430D01*
X40538464Y-30178878D01*
X40578128Y-30181345D01*
G36*
X40578128Y-30181345D02*
G01*
X40608954Y-30190968D01*
X40646916Y-30206963D01*
X40665296Y-30215559D01*
X40678561Y-30217113D01*
X40681495Y-30205198D01*
X40681498Y-30204861D01*
X40687709Y-30193487D01*
X40709131Y-30187656D01*
X40750653Y-30186014D01*
X40819812Y-30186014D01*
X40819812Y-30789579D01*
X40681495Y-30789579D01*
X40681495Y-30373427D01*
X40647110Y-30341561D01*
X40636368Y-30332504D01*
X40604370Y-30317030D01*
X40564965Y-30316410D01*
X40511312Y-30330064D01*
X40493225Y-30330929D01*
X40472008Y-30317683D01*
X40443768Y-30286200D01*
X40430069Y-30268785D01*
X40413868Y-30244197D01*
X40411371Y-30228545D01*
X40420442Y-30215341D01*
X40448289Y-30198645D01*
X40491540Y-30185430D01*
X40538464Y-30178878D01*
X40578128Y-30181345D01*
G37*
X40761265Y-31137365D02*
X40799255Y-31155145D01*
X40832386Y-31181206D01*
X40832386Y-31155145D01*
X40833211Y-31145249D01*
X40840893Y-31134758D01*
X40861667Y-31130125D01*
X40901544Y-31129083D01*
X40970703Y-31129083D01*
X40970703Y-31745222D01*
X40832386Y-31745222D01*
X40832386Y-31544626D01*
X40832369Y-31533110D01*
X40831189Y-31452158D01*
X40828294Y-31386217D01*
X40823888Y-31338658D01*
X40818181Y-31312852D01*
X40812940Y-31303110D01*
X40780676Y-31272556D01*
X40736730Y-31259031D01*
X40688743Y-31265341D01*
X40676973Y-31269617D01*
X40651898Y-31277176D01*
X40634762Y-31274828D01*
X40617518Y-31259464D01*
X40592124Y-31227971D01*
X40550936Y-31175968D01*
X40579886Y-31152525D01*
X40607405Y-31138415D01*
X40655745Y-31128886D01*
X40710230Y-31128574D01*
X40761265Y-31137365D01*
G36*
X40761265Y-31137365D02*
G01*
X40799255Y-31155145D01*
X40832386Y-31181206D01*
X40832386Y-31155145D01*
X40833211Y-31145249D01*
X40840893Y-31134758D01*
X40861667Y-31130125D01*
X40901544Y-31129083D01*
X40970703Y-31129083D01*
X40970703Y-31745222D01*
X40832386Y-31745222D01*
X40832386Y-31544626D01*
X40832369Y-31533110D01*
X40831189Y-31452158D01*
X40828294Y-31386217D01*
X40823888Y-31338658D01*
X40818181Y-31312852D01*
X40812940Y-31303110D01*
X40780676Y-31272556D01*
X40736730Y-31259031D01*
X40688743Y-31265341D01*
X40676973Y-31269617D01*
X40651898Y-31277176D01*
X40634762Y-31274828D01*
X40617518Y-31259464D01*
X40592124Y-31227971D01*
X40550936Y-31175968D01*
X40579886Y-31152525D01*
X40607405Y-31138415D01*
X40655745Y-31128886D01*
X40710230Y-31128574D01*
X40761265Y-31137365D01*
G37*
X43384960Y-31745222D02*
X43259218Y-31745222D01*
X43259218Y-31551140D01*
X43259078Y-31505994D01*
X43257649Y-31431223D01*
X43254029Y-31375867D01*
X43247434Y-31336102D01*
X43237079Y-31308100D01*
X43222178Y-31288035D01*
X43201946Y-31272081D01*
X43179859Y-31260192D01*
X43153705Y-31256821D01*
X43116508Y-31264317D01*
X43104555Y-31267438D01*
X43074718Y-31272135D01*
X43053383Y-31265405D01*
X43028655Y-31244577D01*
X43023963Y-31240047D01*
X42998020Y-31212026D01*
X42981291Y-31189243D01*
X42978996Y-31183755D01*
X42983543Y-31163488D01*
X43006602Y-31147284D01*
X43042995Y-31135913D01*
X43087544Y-31130140D01*
X43135072Y-31130734D01*
X43180400Y-31138463D01*
X43218351Y-31154094D01*
X43230381Y-31161393D01*
X43250632Y-31172076D01*
X43258129Y-31169630D01*
X43259218Y-31154047D01*
X43259473Y-31148453D01*
X43265539Y-31136060D01*
X43284356Y-31130420D01*
X43322089Y-31129083D01*
X43384960Y-31129083D01*
X43384960Y-31745222D01*
G36*
X43384960Y-31745222D02*
G01*
X43259218Y-31745222D01*
X43259218Y-31551140D01*
X43259078Y-31505994D01*
X43257649Y-31431223D01*
X43254029Y-31375867D01*
X43247434Y-31336102D01*
X43237079Y-31308100D01*
X43222178Y-31288035D01*
X43201946Y-31272081D01*
X43179859Y-31260192D01*
X43153705Y-31256821D01*
X43116508Y-31264317D01*
X43104555Y-31267438D01*
X43074718Y-31272135D01*
X43053383Y-31265405D01*
X43028655Y-31244577D01*
X43023963Y-31240047D01*
X42998020Y-31212026D01*
X42981291Y-31189243D01*
X42978996Y-31183755D01*
X42983543Y-31163488D01*
X43006602Y-31147284D01*
X43042995Y-31135913D01*
X43087544Y-31130140D01*
X43135072Y-31130734D01*
X43180400Y-31138463D01*
X43218351Y-31154094D01*
X43230381Y-31161393D01*
X43250632Y-31172076D01*
X43258129Y-31169630D01*
X43259218Y-31154047D01*
X43259473Y-31148453D01*
X43265539Y-31136060D01*
X43284356Y-31130420D01*
X43322089Y-31129083D01*
X43384960Y-31129083D01*
X43384960Y-31745222D01*
G37*
X41071297Y-30381742D02*
X41072357Y-30469794D01*
X41076509Y-30540910D01*
X41084921Y-30592599D01*
X41098757Y-30627760D01*
X41119182Y-30649289D01*
X41147364Y-30660082D01*
X41184465Y-30663036D01*
X41219890Y-30660400D01*
X41248500Y-30650079D01*
X41269296Y-30629172D01*
X41283442Y-30594781D01*
X41292103Y-30544010D01*
X41296445Y-30473963D01*
X41297633Y-30381742D01*
X41297633Y-30186014D01*
X41423376Y-30186014D01*
X41423376Y-30421978D01*
X41423160Y-30484961D01*
X41421484Y-30566407D01*
X41417277Y-30628521D01*
X41409521Y-30674858D01*
X41397196Y-30708973D01*
X41379285Y-30734422D01*
X41354767Y-30754762D01*
X41322623Y-30773547D01*
X41255125Y-30797328D01*
X41184681Y-30798880D01*
X41118264Y-30776980D01*
X41089286Y-30762783D01*
X41074909Y-30760661D01*
X41071297Y-30770693D01*
X41065299Y-30781956D01*
X41043830Y-30787889D01*
X41002138Y-30789579D01*
X40932980Y-30789579D01*
X40932980Y-30186014D01*
X41071297Y-30186014D01*
X41071297Y-30381742D01*
G36*
X41071297Y-30381742D02*
G01*
X41072357Y-30469794D01*
X41076509Y-30540910D01*
X41084921Y-30592599D01*
X41098757Y-30627760D01*
X41119182Y-30649289D01*
X41147364Y-30660082D01*
X41184465Y-30663036D01*
X41219890Y-30660400D01*
X41248500Y-30650079D01*
X41269296Y-30629172D01*
X41283442Y-30594781D01*
X41292103Y-30544010D01*
X41296445Y-30473963D01*
X41297633Y-30381742D01*
X41297633Y-30186014D01*
X41423376Y-30186014D01*
X41423376Y-30421978D01*
X41423160Y-30484961D01*
X41421484Y-30566407D01*
X41417277Y-30628521D01*
X41409521Y-30674858D01*
X41397196Y-30708973D01*
X41379285Y-30734422D01*
X41354767Y-30754762D01*
X41322623Y-30773547D01*
X41255125Y-30797328D01*
X41184681Y-30798880D01*
X41118264Y-30776980D01*
X41089286Y-30762783D01*
X41074909Y-30760661D01*
X41071297Y-30770693D01*
X41065299Y-30781956D01*
X41043830Y-30787889D01*
X41002138Y-30789579D01*
X40932980Y-30789579D01*
X40932980Y-30186014D01*
X41071297Y-30186014D01*
X41071297Y-30381742D01*
G37*
X43173605Y-30184824D02*
X43230926Y-30202834D01*
X43256199Y-30215074D01*
X43268910Y-30216338D01*
X43271792Y-30205198D01*
X43271795Y-30204861D01*
X43278006Y-30193487D01*
X43299428Y-30187656D01*
X43340950Y-30186014D01*
X43410109Y-30186014D01*
X43410109Y-30789579D01*
X43271792Y-30789579D01*
X43271792Y-30581532D01*
X43271697Y-30511279D01*
X43271051Y-30453570D01*
X43269320Y-30413187D01*
X43265974Y-30386015D01*
X43260481Y-30367940D01*
X43252310Y-30354847D01*
X43240928Y-30342621D01*
X43225424Y-30329617D01*
X43180843Y-30312145D01*
X43134047Y-30317273D01*
X43091180Y-30344907D01*
X43078927Y-30357768D01*
X43070132Y-30370784D01*
X43064233Y-30388106D01*
X43060651Y-30413901D01*
X43058809Y-30452339D01*
X43058128Y-30507589D01*
X43058030Y-30583818D01*
X43058030Y-30789579D01*
X42919713Y-30789579D01*
X42919989Y-30566385D01*
X42920008Y-30556444D01*
X42921207Y-30461506D01*
X42924891Y-30387758D01*
X42932006Y-30331614D01*
X42943500Y-30289487D01*
X42960318Y-30257791D01*
X42983409Y-30232941D01*
X43013717Y-30211350D01*
X43045012Y-30196402D01*
X43108037Y-30182821D01*
X43173605Y-30184824D01*
G36*
X43173605Y-30184824D02*
G01*
X43230926Y-30202834D01*
X43256199Y-30215074D01*
X43268910Y-30216338D01*
X43271792Y-30205198D01*
X43271795Y-30204861D01*
X43278006Y-30193487D01*
X43299428Y-30187656D01*
X43340950Y-30186014D01*
X43410109Y-30186014D01*
X43410109Y-30789579D01*
X43271792Y-30789579D01*
X43271792Y-30581532D01*
X43271697Y-30511279D01*
X43271051Y-30453570D01*
X43269320Y-30413187D01*
X43265974Y-30386015D01*
X43260481Y-30367940D01*
X43252310Y-30354847D01*
X43240928Y-30342621D01*
X43225424Y-30329617D01*
X43180843Y-30312145D01*
X43134047Y-30317273D01*
X43091180Y-30344907D01*
X43078927Y-30357768D01*
X43070132Y-30370784D01*
X43064233Y-30388106D01*
X43060651Y-30413901D01*
X43058809Y-30452339D01*
X43058128Y-30507589D01*
X43058030Y-30583818D01*
X43058030Y-30789579D01*
X42919713Y-30789579D01*
X42919989Y-30566385D01*
X42920008Y-30556444D01*
X42921207Y-30461506D01*
X42924891Y-30387758D01*
X42932006Y-30331614D01*
X42943500Y-30289487D01*
X42960318Y-30257791D01*
X42983409Y-30232941D01*
X43013717Y-30211350D01*
X43045012Y-30196402D01*
X43108037Y-30182821D01*
X43173605Y-30184824D01*
G37*
X40224409Y-30188893D02*
X40293021Y-30215624D01*
X40351048Y-30259751D01*
X40393907Y-30320358D01*
X40396801Y-30326537D01*
X40415176Y-30386809D01*
X40424357Y-30458807D01*
X40424285Y-30533769D01*
X40414901Y-30602936D01*
X40396149Y-30657549D01*
X40372995Y-30695612D01*
X40322030Y-30749535D01*
X40258306Y-30783811D01*
X40203785Y-30797672D01*
X40120767Y-30799185D01*
X40041326Y-30778282D01*
X39970879Y-30735864D01*
X39925284Y-30698280D01*
X39966351Y-30655910D01*
X39992296Y-30630809D01*
X40015764Y-30616834D01*
X40037524Y-30619911D01*
X40065356Y-30638687D01*
X40076454Y-30646038D01*
X40123337Y-30661083D01*
X40177224Y-30661073D01*
X40227675Y-30645568D01*
X40246672Y-30633116D01*
X40274537Y-30596346D01*
X40288506Y-30542339D01*
X40289405Y-30468731D01*
X40289403Y-30468689D01*
X40279009Y-30402833D01*
X40256114Y-30357172D01*
X40218439Y-30328928D01*
X40163708Y-30315320D01*
X40129241Y-30313490D01*
X40099126Y-30320984D01*
X40068240Y-30342695D01*
X40028272Y-30376326D01*
X39977656Y-30335650D01*
X39959163Y-30320067D01*
X39936065Y-30297740D01*
X39927039Y-30284583D01*
X39930236Y-30278653D01*
X39948646Y-30260448D01*
X39977973Y-30237295D01*
X40000920Y-30222230D01*
X40073774Y-30191280D01*
X40149799Y-30180473D01*
X40224409Y-30188893D01*
G36*
X40224409Y-30188893D02*
G01*
X40293021Y-30215624D01*
X40351048Y-30259751D01*
X40393907Y-30320358D01*
X40396801Y-30326537D01*
X40415176Y-30386809D01*
X40424357Y-30458807D01*
X40424285Y-30533769D01*
X40414901Y-30602936D01*
X40396149Y-30657549D01*
X40372995Y-30695612D01*
X40322030Y-30749535D01*
X40258306Y-30783811D01*
X40203785Y-30797672D01*
X40120767Y-30799185D01*
X40041326Y-30778282D01*
X39970879Y-30735864D01*
X39925284Y-30698280D01*
X39966351Y-30655910D01*
X39992296Y-30630809D01*
X40015764Y-30616834D01*
X40037524Y-30619911D01*
X40065356Y-30638687D01*
X40076454Y-30646038D01*
X40123337Y-30661083D01*
X40177224Y-30661073D01*
X40227675Y-30645568D01*
X40246672Y-30633116D01*
X40274537Y-30596346D01*
X40288506Y-30542339D01*
X40289405Y-30468731D01*
X40289403Y-30468689D01*
X40279009Y-30402833D01*
X40256114Y-30357172D01*
X40218439Y-30328928D01*
X40163708Y-30315320D01*
X40129241Y-30313490D01*
X40099126Y-30320984D01*
X40068240Y-30342695D01*
X40028272Y-30376326D01*
X39977656Y-30335650D01*
X39959163Y-30320067D01*
X39936065Y-30297740D01*
X39927039Y-30284583D01*
X39930236Y-30278653D01*
X39948646Y-30260448D01*
X39977973Y-30237295D01*
X40000920Y-30222230D01*
X40073774Y-30191280D01*
X40149799Y-30180473D01*
X40224409Y-30188893D01*
G37*
X42023857Y-30531171D02*
X42020349Y-30570965D01*
X42004844Y-30646938D01*
X41977110Y-30704911D01*
X41934898Y-30748700D01*
X41875960Y-30782122D01*
X41853076Y-30790076D01*
X41793812Y-30800001D01*
X41731447Y-30799731D01*
X41678823Y-30788830D01*
X41677789Y-30788434D01*
X41635381Y-30763487D01*
X41592537Y-30724868D01*
X41556986Y-30680706D01*
X41536459Y-30639127D01*
X41530374Y-30608734D01*
X41525164Y-30551829D01*
X41524291Y-30501105D01*
X41650976Y-30501105D01*
X41658549Y-30561945D01*
X41676341Y-30611938D01*
X41703296Y-30644604D01*
X41713513Y-30650212D01*
X41752473Y-30660407D01*
X41797536Y-30662504D01*
X41835448Y-30655420D01*
X41850244Y-30645261D01*
X41871014Y-30609734D01*
X41884083Y-30554132D01*
X41888624Y-30481166D01*
X41888551Y-30460162D01*
X41886974Y-30417603D01*
X41881728Y-30389839D01*
X41870723Y-30369325D01*
X41851868Y-30348512D01*
X41815989Y-30323287D01*
X41769280Y-30312973D01*
X41724151Y-30322796D01*
X41686680Y-30351205D01*
X41662943Y-30396653D01*
X41654675Y-30435897D01*
X41650976Y-30501105D01*
X41524291Y-30501105D01*
X41524049Y-30487021D01*
X41526844Y-30422516D01*
X41533366Y-30366521D01*
X41543432Y-30327242D01*
X41566877Y-30282772D01*
X41616637Y-30228092D01*
X41680238Y-30193455D01*
X41755790Y-30179745D01*
X41841399Y-30187848D01*
X41855644Y-30191299D01*
X41921982Y-30221064D01*
X41971971Y-30269930D01*
X42005612Y-30337901D01*
X42022906Y-30424980D01*
X42023410Y-30481166D01*
X42023857Y-30531171D01*
G36*
X42023857Y-30531171D02*
G01*
X42020349Y-30570965D01*
X42004844Y-30646938D01*
X41977110Y-30704911D01*
X41934898Y-30748700D01*
X41875960Y-30782122D01*
X41853076Y-30790076D01*
X41793812Y-30800001D01*
X41731447Y-30799731D01*
X41678823Y-30788830D01*
X41677789Y-30788434D01*
X41635381Y-30763487D01*
X41592537Y-30724868D01*
X41556986Y-30680706D01*
X41536459Y-30639127D01*
X41530374Y-30608734D01*
X41525164Y-30551829D01*
X41524291Y-30501105D01*
X41650976Y-30501105D01*
X41658549Y-30561945D01*
X41676341Y-30611938D01*
X41703296Y-30644604D01*
X41713513Y-30650212D01*
X41752473Y-30660407D01*
X41797536Y-30662504D01*
X41835448Y-30655420D01*
X41850244Y-30645261D01*
X41871014Y-30609734D01*
X41884083Y-30554132D01*
X41888624Y-30481166D01*
X41888551Y-30460162D01*
X41886974Y-30417603D01*
X41881728Y-30389839D01*
X41870723Y-30369325D01*
X41851868Y-30348512D01*
X41815989Y-30323287D01*
X41769280Y-30312973D01*
X41724151Y-30322796D01*
X41686680Y-30351205D01*
X41662943Y-30396653D01*
X41654675Y-30435897D01*
X41650976Y-30501105D01*
X41524291Y-30501105D01*
X41524049Y-30487021D01*
X41526844Y-30422516D01*
X41533366Y-30366521D01*
X41543432Y-30327242D01*
X41566877Y-30282772D01*
X41616637Y-30228092D01*
X41680238Y-30193455D01*
X41755790Y-30179745D01*
X41841399Y-30187848D01*
X41855644Y-30191299D01*
X41921982Y-30221064D01*
X41971971Y-30269930D01*
X42005612Y-30337901D01*
X42022906Y-30424980D01*
X42023410Y-30481166D01*
X42023857Y-30531171D01*
G37*
X42123997Y-31326530D02*
X42140997Y-31377250D01*
X42161107Y-31433397D01*
X42177899Y-31475932D01*
X42189986Y-31501390D01*
X42195980Y-31506303D01*
X42197426Y-31502030D01*
X42205254Y-31475822D01*
X42217723Y-31432049D01*
X42233447Y-31375611D01*
X42251043Y-31311410D01*
X42298914Y-31135371D01*
X42372007Y-31131552D01*
X42378177Y-31131246D01*
X42417592Y-31130841D01*
X42436533Y-31134887D01*
X42438945Y-31144126D01*
X42435898Y-31153149D01*
X42425874Y-31184032D01*
X42410180Y-31232944D01*
X42389934Y-31296387D01*
X42366256Y-31370862D01*
X42340263Y-31452871D01*
X42247736Y-31745222D01*
X42131993Y-31745222D01*
X42077457Y-31559752D01*
X42067386Y-31525694D01*
X42048775Y-31463778D01*
X42032872Y-31412187D01*
X42021109Y-31375530D01*
X42014918Y-31358418D01*
X42013154Y-31357141D01*
X42004571Y-31368179D01*
X41992316Y-31397369D01*
X41978426Y-31440150D01*
X41977692Y-31442663D01*
X41959096Y-31505800D01*
X41937818Y-31577289D01*
X41918321Y-31642134D01*
X41886705Y-31746522D01*
X41828402Y-31742728D01*
X41770098Y-31738935D01*
X41716098Y-31569182D01*
X41692390Y-31494593D01*
X41665833Y-31410939D01*
X41640404Y-31330742D01*
X41619354Y-31264257D01*
X41576609Y-31129083D01*
X41719612Y-31129083D01*
X41754274Y-31257970D01*
X41763488Y-31292025D01*
X41780915Y-31355515D01*
X41797054Y-31413274D01*
X41809322Y-31456014D01*
X41829709Y-31525173D01*
X41959745Y-31135371D01*
X42009476Y-31131637D01*
X42059206Y-31127904D01*
X42123997Y-31326530D01*
G36*
X42123997Y-31326530D02*
G01*
X42140997Y-31377250D01*
X42161107Y-31433397D01*
X42177899Y-31475932D01*
X42189986Y-31501390D01*
X42195980Y-31506303D01*
X42197426Y-31502030D01*
X42205254Y-31475822D01*
X42217723Y-31432049D01*
X42233447Y-31375611D01*
X42251043Y-31311410D01*
X42298914Y-31135371D01*
X42372007Y-31131552D01*
X42378177Y-31131246D01*
X42417592Y-31130841D01*
X42436533Y-31134887D01*
X42438945Y-31144126D01*
X42435898Y-31153149D01*
X42425874Y-31184032D01*
X42410180Y-31232944D01*
X42389934Y-31296387D01*
X42366256Y-31370862D01*
X42340263Y-31452871D01*
X42247736Y-31745222D01*
X42131993Y-31745222D01*
X42077457Y-31559752D01*
X42067386Y-31525694D01*
X42048775Y-31463778D01*
X42032872Y-31412187D01*
X42021109Y-31375530D01*
X42014918Y-31358418D01*
X42013154Y-31357141D01*
X42004571Y-31368179D01*
X41992316Y-31397369D01*
X41978426Y-31440150D01*
X41977692Y-31442663D01*
X41959096Y-31505800D01*
X41937818Y-31577289D01*
X41918321Y-31642134D01*
X41886705Y-31746522D01*
X41828402Y-31742728D01*
X41770098Y-31738935D01*
X41716098Y-31569182D01*
X41692390Y-31494593D01*
X41665833Y-31410939D01*
X41640404Y-31330742D01*
X41619354Y-31264257D01*
X41576609Y-31129083D01*
X41719612Y-31129083D01*
X41754274Y-31257970D01*
X41763488Y-31292025D01*
X41780915Y-31355515D01*
X41797054Y-31413274D01*
X41809322Y-31456014D01*
X41829709Y-31525173D01*
X41959745Y-31135371D01*
X42009476Y-31131637D01*
X42059206Y-31127904D01*
X42123997Y-31326530D01*
G37*
X42981761Y-31484213D02*
X42980167Y-31537971D01*
X42976962Y-31575418D01*
X42976413Y-31578850D01*
X42954838Y-31640235D01*
X42915438Y-31692277D01*
X42863752Y-31727535D01*
X42808248Y-31742129D01*
X42739977Y-31740997D01*
X42677173Y-31721429D01*
X42660815Y-31713171D01*
X42639779Y-31704323D01*
X42631774Y-31707076D01*
X42630505Y-31721429D01*
X42629922Y-31728586D01*
X42622394Y-31739172D01*
X42601488Y-31744045D01*
X42561346Y-31745222D01*
X42492188Y-31745222D01*
X42492188Y-31443330D01*
X42630505Y-31443330D01*
X42631496Y-31495630D01*
X42635519Y-31530450D01*
X42644108Y-31554305D01*
X42658797Y-31574295D01*
X42697584Y-31604018D01*
X42742974Y-31613982D01*
X42786989Y-31601660D01*
X42824060Y-31567288D01*
X42833859Y-31542135D01*
X42841097Y-31497594D01*
X42844279Y-31443555D01*
X42843277Y-31388128D01*
X42837961Y-31339422D01*
X42828204Y-31305548D01*
X42825087Y-31299993D01*
X42795038Y-31272074D01*
X42754315Y-31259706D01*
X42710579Y-31262583D01*
X42671491Y-31280400D01*
X42644710Y-31312852D01*
X42643603Y-31315581D01*
X42636963Y-31346034D01*
X42632278Y-31391539D01*
X42630505Y-31443330D01*
X42492188Y-31443330D01*
X42492188Y-30890173D01*
X42630505Y-30890173D01*
X42630505Y-31183278D01*
X42656124Y-31160093D01*
X42680792Y-31145682D01*
X42727480Y-31133636D01*
X42782056Y-31129754D01*
X42835354Y-31134520D01*
X42878207Y-31148414D01*
X42908878Y-31168179D01*
X42940471Y-31201849D01*
X42961733Y-31247130D01*
X42974514Y-31308381D01*
X42980664Y-31389963D01*
X42981568Y-31422940D01*
X42981633Y-31443555D01*
X42981761Y-31484213D01*
G36*
X42981761Y-31484213D02*
G01*
X42980167Y-31537971D01*
X42976962Y-31575418D01*
X42976413Y-31578850D01*
X42954838Y-31640235D01*
X42915438Y-31692277D01*
X42863752Y-31727535D01*
X42808248Y-31742129D01*
X42739977Y-31740997D01*
X42677173Y-31721429D01*
X42660815Y-31713171D01*
X42639779Y-31704323D01*
X42631774Y-31707076D01*
X42630505Y-31721429D01*
X42629922Y-31728586D01*
X42622394Y-31739172D01*
X42601488Y-31744045D01*
X42561346Y-31745222D01*
X42492188Y-31745222D01*
X42492188Y-31443330D01*
X42630505Y-31443330D01*
X42631496Y-31495630D01*
X42635519Y-31530450D01*
X42644108Y-31554305D01*
X42658797Y-31574295D01*
X42697584Y-31604018D01*
X42742974Y-31613982D01*
X42786989Y-31601660D01*
X42824060Y-31567288D01*
X42833859Y-31542135D01*
X42841097Y-31497594D01*
X42844279Y-31443555D01*
X42843277Y-31388128D01*
X42837961Y-31339422D01*
X42828204Y-31305548D01*
X42825087Y-31299993D01*
X42795038Y-31272074D01*
X42754315Y-31259706D01*
X42710579Y-31262583D01*
X42671491Y-31280400D01*
X42644710Y-31312852D01*
X42643603Y-31315581D01*
X42636963Y-31346034D01*
X42632278Y-31391539D01*
X42630505Y-31443330D01*
X42492188Y-31443330D01*
X42492188Y-30890173D01*
X42630505Y-30890173D01*
X42630505Y-31183278D01*
X42656124Y-31160093D01*
X42680792Y-31145682D01*
X42727480Y-31133636D01*
X42782056Y-31129754D01*
X42835354Y-31134520D01*
X42878207Y-31148414D01*
X42908878Y-31168179D01*
X42940471Y-31201849D01*
X42961733Y-31247130D01*
X42974514Y-31308381D01*
X42980664Y-31389963D01*
X42981568Y-31422940D01*
X42981633Y-31443555D01*
X42981761Y-31484213D01*
G37*
X45155997Y-30522331D02*
X45154373Y-30561710D01*
X45150688Y-30609732D01*
X45144410Y-30643768D01*
X45134044Y-30670738D01*
X45118092Y-30697558D01*
X45117412Y-30698575D01*
X45078132Y-30742029D01*
X45030072Y-30775172D01*
X44974185Y-30794839D01*
X44900666Y-30801224D01*
X44828609Y-30788668D01*
X44764201Y-30758411D01*
X44713627Y-30711694D01*
X44699108Y-30689621D01*
X44671993Y-30621002D01*
X44658546Y-30536339D01*
X44658776Y-30514923D01*
X44793920Y-30514923D01*
X44794174Y-30554974D01*
X44798421Y-30581713D01*
X44808096Y-30602259D01*
X44824638Y-30623731D01*
X44847593Y-30645039D01*
X44893505Y-30664053D01*
X44942802Y-30660522D01*
X44989917Y-30634094D01*
X45003207Y-30621472D01*
X45017397Y-30599865D01*
X45025266Y-30569494D01*
X45029726Y-30522170D01*
X45030955Y-30486619D01*
X45024224Y-30414020D01*
X45003567Y-30362042D01*
X44968894Y-30330399D01*
X44928249Y-30315247D01*
X44879777Y-30316523D01*
X44834845Y-30342103D01*
X44824103Y-30351842D01*
X44810548Y-30368880D01*
X44802505Y-30391172D01*
X44798043Y-30425347D01*
X44795228Y-30478038D01*
X44793920Y-30514923D01*
X44658776Y-30514923D01*
X44659583Y-30439751D01*
X44660907Y-30426051D01*
X44679374Y-30338308D01*
X44713540Y-30270193D01*
X44763479Y-30221631D01*
X44829261Y-30192548D01*
X44910961Y-30182871D01*
X44941828Y-30183779D01*
X45005128Y-30194893D01*
X45056889Y-30221421D01*
X45105147Y-30266836D01*
X45112865Y-30275951D01*
X45133681Y-30306648D01*
X45147362Y-30341407D01*
X45154948Y-30385456D01*
X45157479Y-30444021D01*
X45156672Y-30486619D01*
X45155997Y-30522331D01*
G36*
X45155997Y-30522331D02*
G01*
X45154373Y-30561710D01*
X45150688Y-30609732D01*
X45144410Y-30643768D01*
X45134044Y-30670738D01*
X45118092Y-30697558D01*
X45117412Y-30698575D01*
X45078132Y-30742029D01*
X45030072Y-30775172D01*
X44974185Y-30794839D01*
X44900666Y-30801224D01*
X44828609Y-30788668D01*
X44764201Y-30758411D01*
X44713627Y-30711694D01*
X44699108Y-30689621D01*
X44671993Y-30621002D01*
X44658546Y-30536339D01*
X44658776Y-30514923D01*
X44793920Y-30514923D01*
X44794174Y-30554974D01*
X44798421Y-30581713D01*
X44808096Y-30602259D01*
X44824638Y-30623731D01*
X44847593Y-30645039D01*
X44893505Y-30664053D01*
X44942802Y-30660522D01*
X44989917Y-30634094D01*
X45003207Y-30621472D01*
X45017397Y-30599865D01*
X45025266Y-30569494D01*
X45029726Y-30522170D01*
X45030955Y-30486619D01*
X45024224Y-30414020D01*
X45003567Y-30362042D01*
X44968894Y-30330399D01*
X44928249Y-30315247D01*
X44879777Y-30316523D01*
X44834845Y-30342103D01*
X44824103Y-30351842D01*
X44810548Y-30368880D01*
X44802505Y-30391172D01*
X44798043Y-30425347D01*
X44795228Y-30478038D01*
X44793920Y-30514923D01*
X44658776Y-30514923D01*
X44659583Y-30439751D01*
X44660907Y-30426051D01*
X44679374Y-30338308D01*
X44713540Y-30270193D01*
X44763479Y-30221631D01*
X44829261Y-30192548D01*
X44910961Y-30182871D01*
X44941828Y-30183779D01*
X45005128Y-30194893D01*
X45056889Y-30221421D01*
X45105147Y-30266836D01*
X45112865Y-30275951D01*
X45133681Y-30306648D01*
X45147362Y-30341407D01*
X45154948Y-30385456D01*
X45157479Y-30444021D01*
X45156672Y-30486619D01*
X45155997Y-30522331D01*
G37*
X39910444Y-30447278D02*
X39908825Y-30543521D01*
X39908615Y-30545414D01*
X39890535Y-30633725D01*
X39857870Y-30702386D01*
X39809601Y-30752906D01*
X39744713Y-30786793D01*
X39732801Y-30790668D01*
X39658971Y-30802088D01*
X39582614Y-30795720D01*
X39511626Y-30772963D01*
X39453904Y-30735219D01*
X39410667Y-30695272D01*
X39456625Y-30658932D01*
X39502583Y-30622593D01*
X39557969Y-30649501D01*
X39622056Y-30671305D01*
X39678632Y-30671958D01*
X39724920Y-30651925D01*
X39758230Y-30611715D01*
X39770171Y-30587622D01*
X39776837Y-30567030D01*
X39772980Y-30553120D01*
X39755675Y-30544581D01*
X39721997Y-30540104D01*
X39669021Y-30538378D01*
X39593822Y-30538093D01*
X39411495Y-30538093D01*
X39411495Y-30450892D01*
X39412857Y-30412610D01*
X39541234Y-30412610D01*
X39547399Y-30419651D01*
X39565654Y-30423316D01*
X39600352Y-30424706D01*
X39655846Y-30424925D01*
X39685603Y-30424576D01*
X39732562Y-30422267D01*
X39764416Y-30418222D01*
X39776148Y-30412942D01*
X39773146Y-30393462D01*
X39751988Y-30356186D01*
X39716731Y-30325564D01*
X39674699Y-30307068D01*
X39633220Y-30306173D01*
X39601997Y-30321004D01*
X39566618Y-30354755D01*
X39544122Y-30396633D01*
X39542805Y-30401090D01*
X39541234Y-30412610D01*
X39412857Y-30412610D01*
X39413136Y-30404771D01*
X39417955Y-30359140D01*
X39424840Y-30328293D01*
X39429859Y-30316517D01*
X39466390Y-30264067D01*
X39519175Y-30220321D01*
X39580904Y-30191679D01*
X39613102Y-30183857D01*
X39689820Y-30180296D01*
X39758179Y-30198409D01*
X39816299Y-30236179D01*
X39862302Y-30291591D01*
X39894310Y-30362629D01*
X39903900Y-30412942D01*
X39910444Y-30447278D01*
G36*
X39910444Y-30447278D02*
G01*
X39908825Y-30543521D01*
X39908615Y-30545414D01*
X39890535Y-30633725D01*
X39857870Y-30702386D01*
X39809601Y-30752906D01*
X39744713Y-30786793D01*
X39732801Y-30790668D01*
X39658971Y-30802088D01*
X39582614Y-30795720D01*
X39511626Y-30772963D01*
X39453904Y-30735219D01*
X39410667Y-30695272D01*
X39456625Y-30658932D01*
X39502583Y-30622593D01*
X39557969Y-30649501D01*
X39622056Y-30671305D01*
X39678632Y-30671958D01*
X39724920Y-30651925D01*
X39758230Y-30611715D01*
X39770171Y-30587622D01*
X39776837Y-30567030D01*
X39772980Y-30553120D01*
X39755675Y-30544581D01*
X39721997Y-30540104D01*
X39669021Y-30538378D01*
X39593822Y-30538093D01*
X39411495Y-30538093D01*
X39411495Y-30450892D01*
X39412857Y-30412610D01*
X39541234Y-30412610D01*
X39547399Y-30419651D01*
X39565654Y-30423316D01*
X39600352Y-30424706D01*
X39655846Y-30424925D01*
X39685603Y-30424576D01*
X39732562Y-30422267D01*
X39764416Y-30418222D01*
X39776148Y-30412942D01*
X39773146Y-30393462D01*
X39751988Y-30356186D01*
X39716731Y-30325564D01*
X39674699Y-30307068D01*
X39633220Y-30306173D01*
X39601997Y-30321004D01*
X39566618Y-30354755D01*
X39544122Y-30396633D01*
X39542805Y-30401090D01*
X39541234Y-30412610D01*
X39412857Y-30412610D01*
X39413136Y-30404771D01*
X39417955Y-30359140D01*
X39424840Y-30328293D01*
X39429859Y-30316517D01*
X39466390Y-30264067D01*
X39519175Y-30220321D01*
X39580904Y-30191679D01*
X39613102Y-30183857D01*
X39689820Y-30180296D01*
X39758179Y-30198409D01*
X39816299Y-30236179D01*
X39862302Y-30291591D01*
X39894310Y-30362629D01*
X39903900Y-30412942D01*
X39910444Y-30447278D01*
G37*
X42389874Y-30185607D02*
X42462495Y-30203808D01*
X42515546Y-30237544D01*
X42549329Y-30287042D01*
X42564147Y-30352526D01*
X42561147Y-30415220D01*
X42539493Y-30468099D01*
X42497967Y-30507196D01*
X42435736Y-30533273D01*
X42351969Y-30547095D01*
X42297540Y-30554340D01*
X42247860Y-30570015D01*
X42222211Y-30592714D01*
X42220662Y-30622398D01*
X42230984Y-30640907D01*
X42262951Y-30662843D01*
X42308395Y-30673218D01*
X42361649Y-30671799D01*
X42417048Y-30658352D01*
X42468928Y-30632643D01*
X42520653Y-30598413D01*
X42566148Y-30644449D01*
X42611643Y-30690484D01*
X42573921Y-30721276D01*
X42559253Y-30731974D01*
X42517983Y-30756280D01*
X42473327Y-30777225D01*
X42437984Y-30789245D01*
X42386234Y-30797952D01*
X42322435Y-30798067D01*
X42244200Y-30788481D01*
X42173722Y-30764183D01*
X42123836Y-30725588D01*
X42094423Y-30672598D01*
X42085365Y-30605118D01*
X42091921Y-30545754D01*
X42112970Y-30497152D01*
X42150864Y-30462346D01*
X42208004Y-30439198D01*
X42286785Y-30425570D01*
X42295834Y-30424583D01*
X42344885Y-30418292D01*
X42384675Y-30411709D01*
X42407312Y-30406108D01*
X42414866Y-30401597D01*
X42427637Y-30378341D01*
X42425563Y-30348571D01*
X42408495Y-30322727D01*
X42399533Y-30317091D01*
X42362188Y-30308060D01*
X42313950Y-30308667D01*
X42263650Y-30318278D01*
X42220115Y-30336258D01*
X42174372Y-30363247D01*
X42138890Y-30321784D01*
X42130280Y-30311250D01*
X42110883Y-30283032D01*
X42102897Y-30263908D01*
X42111283Y-30252181D01*
X42137226Y-30233876D01*
X42174688Y-30214177D01*
X42179966Y-30211770D01*
X42229366Y-30192882D01*
X42276983Y-30183852D01*
X42336072Y-30182039D01*
X42389874Y-30185607D01*
G36*
X42389874Y-30185607D02*
G01*
X42462495Y-30203808D01*
X42515546Y-30237544D01*
X42549329Y-30287042D01*
X42564147Y-30352526D01*
X42561147Y-30415220D01*
X42539493Y-30468099D01*
X42497967Y-30507196D01*
X42435736Y-30533273D01*
X42351969Y-30547095D01*
X42297540Y-30554340D01*
X42247860Y-30570015D01*
X42222211Y-30592714D01*
X42220662Y-30622398D01*
X42230984Y-30640907D01*
X42262951Y-30662843D01*
X42308395Y-30673218D01*
X42361649Y-30671799D01*
X42417048Y-30658352D01*
X42468928Y-30632643D01*
X42520653Y-30598413D01*
X42566148Y-30644449D01*
X42611643Y-30690484D01*
X42573921Y-30721276D01*
X42559253Y-30731974D01*
X42517983Y-30756280D01*
X42473327Y-30777225D01*
X42437984Y-30789245D01*
X42386234Y-30797952D01*
X42322435Y-30798067D01*
X42244200Y-30788481D01*
X42173722Y-30764183D01*
X42123836Y-30725588D01*
X42094423Y-30672598D01*
X42085365Y-30605118D01*
X42091921Y-30545754D01*
X42112970Y-30497152D01*
X42150864Y-30462346D01*
X42208004Y-30439198D01*
X42286785Y-30425570D01*
X42295834Y-30424583D01*
X42344885Y-30418292D01*
X42384675Y-30411709D01*
X42407312Y-30406108D01*
X42414866Y-30401597D01*
X42427637Y-30378341D01*
X42425563Y-30348571D01*
X42408495Y-30322727D01*
X42399533Y-30317091D01*
X42362188Y-30308060D01*
X42313950Y-30308667D01*
X42263650Y-30318278D01*
X42220115Y-30336258D01*
X42174372Y-30363247D01*
X42138890Y-30321784D01*
X42130280Y-30311250D01*
X42110883Y-30283032D01*
X42102897Y-30263908D01*
X42111283Y-30252181D01*
X42137226Y-30233876D01*
X42174688Y-30214177D01*
X42179966Y-30211770D01*
X42229366Y-30192882D01*
X42276983Y-30183852D01*
X42336072Y-30182039D01*
X42389874Y-30185607D01*
G37*
X40555353Y-31437153D02*
X40553718Y-31484092D01*
X40538827Y-31573859D01*
X40508185Y-31644445D01*
X40461524Y-31696352D01*
X40398574Y-31730086D01*
X40378235Y-31736047D01*
X40305612Y-31744371D01*
X40228928Y-31737346D01*
X40159663Y-31715665D01*
X40135262Y-31703359D01*
X40100275Y-31682279D01*
X40079072Y-31664934D01*
X40075942Y-31660971D01*
X40070085Y-31646477D01*
X40078524Y-31630721D01*
X40104221Y-31606860D01*
X40116622Y-31596472D01*
X40141052Y-31577463D01*
X40153861Y-31569693D01*
X40157530Y-31570494D01*
X40178561Y-31579145D01*
X40209960Y-31594331D01*
X40220197Y-31599326D01*
X40280590Y-31617875D01*
X40333057Y-31613094D01*
X40379065Y-31584900D01*
X40384419Y-31579691D01*
X40410013Y-31547059D01*
X40424637Y-31515742D01*
X40432736Y-31481163D01*
X40052782Y-31481163D01*
X40052852Y-31415148D01*
X40052892Y-31408582D01*
X40058022Y-31355618D01*
X40191099Y-31355618D01*
X40192670Y-31366603D01*
X40200738Y-31374173D01*
X40219967Y-31378375D01*
X40255019Y-31380183D01*
X40310554Y-31380569D01*
X40341429Y-31380168D01*
X40387002Y-31377829D01*
X40418348Y-31373865D01*
X40430010Y-31368813D01*
X40420064Y-31327227D01*
X40390947Y-31288413D01*
X40348952Y-31261486D01*
X40300440Y-31252172D01*
X40264723Y-31262672D01*
X40229020Y-31288340D01*
X40201879Y-31321781D01*
X40191099Y-31355618D01*
X40058022Y-31355618D01*
X40060758Y-31327365D01*
X40083655Y-31261295D01*
X40123607Y-31204340D01*
X40147979Y-31180248D01*
X40198315Y-31147997D01*
X40258419Y-31132370D01*
X40334338Y-31131271D01*
X40371010Y-31135579D01*
X40438703Y-31157949D01*
X40490530Y-31198663D01*
X40526945Y-31258349D01*
X40548401Y-31337636D01*
X40550579Y-31368813D01*
X40555353Y-31437153D01*
G36*
X40555353Y-31437153D02*
G01*
X40553718Y-31484092D01*
X40538827Y-31573859D01*
X40508185Y-31644445D01*
X40461524Y-31696352D01*
X40398574Y-31730086D01*
X40378235Y-31736047D01*
X40305612Y-31744371D01*
X40228928Y-31737346D01*
X40159663Y-31715665D01*
X40135262Y-31703359D01*
X40100275Y-31682279D01*
X40079072Y-31664934D01*
X40075942Y-31660971D01*
X40070085Y-31646477D01*
X40078524Y-31630721D01*
X40104221Y-31606860D01*
X40116622Y-31596472D01*
X40141052Y-31577463D01*
X40153861Y-31569693D01*
X40157530Y-31570494D01*
X40178561Y-31579145D01*
X40209960Y-31594331D01*
X40220197Y-31599326D01*
X40280590Y-31617875D01*
X40333057Y-31613094D01*
X40379065Y-31584900D01*
X40384419Y-31579691D01*
X40410013Y-31547059D01*
X40424637Y-31515742D01*
X40432736Y-31481163D01*
X40052782Y-31481163D01*
X40052852Y-31415148D01*
X40052892Y-31408582D01*
X40058022Y-31355618D01*
X40191099Y-31355618D01*
X40192670Y-31366603D01*
X40200738Y-31374173D01*
X40219967Y-31378375D01*
X40255019Y-31380183D01*
X40310554Y-31380569D01*
X40341429Y-31380168D01*
X40387002Y-31377829D01*
X40418348Y-31373865D01*
X40430010Y-31368813D01*
X40420064Y-31327227D01*
X40390947Y-31288413D01*
X40348952Y-31261486D01*
X40300440Y-31252172D01*
X40264723Y-31262672D01*
X40229020Y-31288340D01*
X40201879Y-31321781D01*
X40191099Y-31355618D01*
X40058022Y-31355618D01*
X40060758Y-31327365D01*
X40083655Y-31261295D01*
X40123607Y-31204340D01*
X40147979Y-31180248D01*
X40198315Y-31147997D01*
X40258419Y-31132370D01*
X40334338Y-31131271D01*
X40371010Y-31135579D01*
X40438703Y-31157949D01*
X40490530Y-31198663D01*
X40526945Y-31258349D01*
X40548401Y-31337636D01*
X40550579Y-31368813D01*
X40555353Y-31437153D01*
G37*
X43998022Y-30412261D02*
X44002421Y-30500336D01*
X44001322Y-30538771D01*
X43988926Y-30622767D01*
X43961608Y-30688995D01*
X43917941Y-30740184D01*
X43856495Y-30779063D01*
X43796888Y-30797212D01*
X43722110Y-30800684D01*
X43646664Y-30787330D01*
X43579366Y-30757825D01*
X43554428Y-30741412D01*
X43526951Y-30720373D01*
X43514414Y-30706529D01*
X43515124Y-30700817D01*
X43529158Y-30681355D01*
X43555533Y-30657776D01*
X43601240Y-30622913D01*
X43654799Y-30649662D01*
X43669282Y-30656282D01*
X43711916Y-30670673D01*
X43747649Y-30676410D01*
X43773998Y-30671682D01*
X43815347Y-30648914D01*
X43850104Y-30613570D01*
X43869983Y-30572673D01*
X43878083Y-30538093D01*
X43498129Y-30538093D01*
X43498199Y-30472079D01*
X43498774Y-30451157D01*
X43502972Y-30406262D01*
X43636445Y-30406262D01*
X43636690Y-30408834D01*
X43643604Y-30416843D01*
X43663141Y-30421764D01*
X43699467Y-30424243D01*
X43756748Y-30424925D01*
X43775575Y-30424917D01*
X43824470Y-30424465D01*
X43853863Y-30422513D01*
X43868115Y-30417958D01*
X43871582Y-30409699D01*
X43868625Y-30396633D01*
X43868173Y-30395152D01*
X43842699Y-30349685D01*
X43802539Y-30318381D01*
X43754651Y-30306727D01*
X43736949Y-30307659D01*
X43704094Y-30318808D01*
X43672575Y-30347163D01*
X43664085Y-30357189D01*
X43644336Y-30385823D01*
X43636445Y-30406262D01*
X43502972Y-30406262D01*
X43503512Y-30400491D01*
X43511459Y-30358566D01*
X43520168Y-30335096D01*
X43550790Y-30284046D01*
X43591799Y-30237683D01*
X43635168Y-30205914D01*
X43647699Y-30200014D01*
X43720661Y-30180446D01*
X43795168Y-30182509D01*
X43865217Y-30205331D01*
X43924807Y-30248039D01*
X43957038Y-30287425D01*
X43983392Y-30342910D01*
X43997482Y-30409699D01*
X43998022Y-30412261D01*
G36*
X43998022Y-30412261D02*
G01*
X44002421Y-30500336D01*
X44001322Y-30538771D01*
X43988926Y-30622767D01*
X43961608Y-30688995D01*
X43917941Y-30740184D01*
X43856495Y-30779063D01*
X43796888Y-30797212D01*
X43722110Y-30800684D01*
X43646664Y-30787330D01*
X43579366Y-30757825D01*
X43554428Y-30741412D01*
X43526951Y-30720373D01*
X43514414Y-30706529D01*
X43515124Y-30700817D01*
X43529158Y-30681355D01*
X43555533Y-30657776D01*
X43601240Y-30622913D01*
X43654799Y-30649662D01*
X43669282Y-30656282D01*
X43711916Y-30670673D01*
X43747649Y-30676410D01*
X43773998Y-30671682D01*
X43815347Y-30648914D01*
X43850104Y-30613570D01*
X43869983Y-30572673D01*
X43878083Y-30538093D01*
X43498129Y-30538093D01*
X43498199Y-30472079D01*
X43498774Y-30451157D01*
X43502972Y-30406262D01*
X43636445Y-30406262D01*
X43636690Y-30408834D01*
X43643604Y-30416843D01*
X43663141Y-30421764D01*
X43699467Y-30424243D01*
X43756748Y-30424925D01*
X43775575Y-30424917D01*
X43824470Y-30424465D01*
X43853863Y-30422513D01*
X43868115Y-30417958D01*
X43871582Y-30409699D01*
X43868625Y-30396633D01*
X43868173Y-30395152D01*
X43842699Y-30349685D01*
X43802539Y-30318381D01*
X43754651Y-30306727D01*
X43736949Y-30307659D01*
X43704094Y-30318808D01*
X43672575Y-30347163D01*
X43664085Y-30357189D01*
X43644336Y-30385823D01*
X43636445Y-30406262D01*
X43502972Y-30406262D01*
X43503512Y-30400491D01*
X43511459Y-30358566D01*
X43520168Y-30335096D01*
X43550790Y-30284046D01*
X43591799Y-30237683D01*
X43635168Y-30205914D01*
X43647699Y-30200014D01*
X43720661Y-30180446D01*
X43795168Y-30182509D01*
X43865217Y-30205331D01*
X43924807Y-30248039D01*
X43957038Y-30287425D01*
X43983392Y-30342910D01*
X43997482Y-30409699D01*
X43998022Y-30412261D01*
G37*
X41580413Y-31579733D02*
X41565244Y-31636819D01*
X41532277Y-31685655D01*
X41482270Y-31720786D01*
X41477362Y-31722921D01*
X41422646Y-31738303D01*
X41360993Y-31744299D01*
X41302376Y-31740633D01*
X41256767Y-31727029D01*
X41238549Y-31718154D01*
X41225179Y-31716037D01*
X41222188Y-31727106D01*
X41216524Y-31737342D01*
X41194607Y-31743438D01*
X41152068Y-31745222D01*
X41081948Y-31745222D01*
X41086053Y-31503168D01*
X41086492Y-31481163D01*
X41222188Y-31481163D01*
X41222188Y-31525173D01*
X41226924Y-31558066D01*
X41247336Y-31594331D01*
X41254871Y-31600997D01*
X41285753Y-31615020D01*
X41332213Y-31618628D01*
X41360090Y-31617219D01*
X41412255Y-31606604D01*
X41444587Y-31586825D01*
X41455492Y-31559224D01*
X41443374Y-31525143D01*
X41436304Y-31516224D01*
X41404724Y-31496218D01*
X41354744Y-31484795D01*
X41283487Y-31481163D01*
X41222188Y-31481163D01*
X41086492Y-31481163D01*
X41087169Y-31447194D01*
X41090106Y-31363396D01*
X41095058Y-31299320D01*
X41103002Y-31251473D01*
X41114917Y-31216362D01*
X41131780Y-31190493D01*
X41154572Y-31170374D01*
X41184269Y-31152510D01*
X41199589Y-31145690D01*
X41252589Y-31132817D01*
X41316513Y-31127495D01*
X41382602Y-31129627D01*
X41442099Y-31139114D01*
X41486247Y-31155861D01*
X41501604Y-31165585D01*
X41536960Y-31194405D01*
X41548926Y-31218537D01*
X41546020Y-31223200D01*
X41527909Y-31239488D01*
X41498672Y-31261217D01*
X41483725Y-31271387D01*
X41458270Y-31285797D01*
X41441728Y-31287173D01*
X41426370Y-31277227D01*
X41388094Y-31257084D01*
X41336590Y-31248800D01*
X41283957Y-31255142D01*
X41282961Y-31255430D01*
X41245838Y-31271558D01*
X41227463Y-31296805D01*
X41222380Y-31338558D01*
X41222188Y-31378279D01*
X41353423Y-31382568D01*
X41374331Y-31383273D01*
X41427043Y-31385726D01*
X41462381Y-31389580D01*
X41486267Y-31396278D01*
X41504624Y-31407264D01*
X41523376Y-31423980D01*
X41554337Y-31462644D01*
X41577029Y-31519856D01*
X41579254Y-31559224D01*
X41580413Y-31579733D01*
G36*
X41580413Y-31579733D02*
G01*
X41565244Y-31636819D01*
X41532277Y-31685655D01*
X41482270Y-31720786D01*
X41477362Y-31722921D01*
X41422646Y-31738303D01*
X41360993Y-31744299D01*
X41302376Y-31740633D01*
X41256767Y-31727029D01*
X41238549Y-31718154D01*
X41225179Y-31716037D01*
X41222188Y-31727106D01*
X41216524Y-31737342D01*
X41194607Y-31743438D01*
X41152068Y-31745222D01*
X41081948Y-31745222D01*
X41086053Y-31503168D01*
X41086492Y-31481163D01*
X41222188Y-31481163D01*
X41222188Y-31525173D01*
X41226924Y-31558066D01*
X41247336Y-31594331D01*
X41254871Y-31600997D01*
X41285753Y-31615020D01*
X41332213Y-31618628D01*
X41360090Y-31617219D01*
X41412255Y-31606604D01*
X41444587Y-31586825D01*
X41455492Y-31559224D01*
X41443374Y-31525143D01*
X41436304Y-31516224D01*
X41404724Y-31496218D01*
X41354744Y-31484795D01*
X41283487Y-31481163D01*
X41222188Y-31481163D01*
X41086492Y-31481163D01*
X41087169Y-31447194D01*
X41090106Y-31363396D01*
X41095058Y-31299320D01*
X41103002Y-31251473D01*
X41114917Y-31216362D01*
X41131780Y-31190493D01*
X41154572Y-31170374D01*
X41184269Y-31152510D01*
X41199589Y-31145690D01*
X41252589Y-31132817D01*
X41316513Y-31127495D01*
X41382602Y-31129627D01*
X41442099Y-31139114D01*
X41486247Y-31155861D01*
X41501604Y-31165585D01*
X41536960Y-31194405D01*
X41548926Y-31218537D01*
X41546020Y-31223200D01*
X41527909Y-31239488D01*
X41498672Y-31261217D01*
X41483725Y-31271387D01*
X41458270Y-31285797D01*
X41441728Y-31287173D01*
X41426370Y-31277227D01*
X41388094Y-31257084D01*
X41336590Y-31248800D01*
X41283957Y-31255142D01*
X41282961Y-31255430D01*
X41245838Y-31271558D01*
X41227463Y-31296805D01*
X41222380Y-31338558D01*
X41222188Y-31378279D01*
X41353423Y-31382568D01*
X41374331Y-31383273D01*
X41427043Y-31385726D01*
X41462381Y-31389580D01*
X41486267Y-31396278D01*
X41504624Y-31407264D01*
X41523376Y-31423980D01*
X41554337Y-31462644D01*
X41577029Y-31519856D01*
X41579254Y-31559224D01*
X41580413Y-31579733D01*
G37*
X43998299Y-31577623D02*
X43998157Y-31579282D01*
X43982835Y-31643879D01*
X43948753Y-31692463D01*
X43894218Y-31727472D01*
X43866036Y-31735989D01*
X43817764Y-31742628D01*
X43764978Y-31744213D01*
X43717353Y-31740560D01*
X43684566Y-31731483D01*
X43664652Y-31724213D01*
X43645155Y-31731483D01*
X43638023Y-31735695D01*
X43609557Y-31742526D01*
X43571059Y-31745222D01*
X43510703Y-31745222D01*
X43510703Y-31501884D01*
X43510707Y-31481163D01*
X43649020Y-31481163D01*
X43649020Y-31529511D01*
X43653668Y-31566304D01*
X43672015Y-31598669D01*
X43682514Y-31605674D01*
X43719988Y-31616591D01*
X43766773Y-31619317D01*
X43812652Y-31613779D01*
X43847410Y-31599905D01*
X43864726Y-31581561D01*
X43875356Y-31548966D01*
X43865929Y-31523129D01*
X43834764Y-31500663D01*
X43784667Y-31486250D01*
X43718582Y-31481163D01*
X43649020Y-31481163D01*
X43510707Y-31481163D01*
X43510707Y-31480840D01*
X43510937Y-31401522D01*
X43511797Y-31342554D01*
X43513679Y-31300016D01*
X43516974Y-31269992D01*
X43522073Y-31248563D01*
X43529366Y-31231811D01*
X43539246Y-31215819D01*
X43571023Y-31178348D01*
X43616055Y-31149739D01*
X43675210Y-31133955D01*
X43753161Y-31129103D01*
X43755695Y-31129108D01*
X43809880Y-31131555D01*
X43858380Y-31137656D01*
X43891478Y-31146209D01*
X43900552Y-31150496D01*
X43929433Y-31168648D01*
X43955568Y-31190222D01*
X43972764Y-31209636D01*
X43974825Y-31221309D01*
X43970803Y-31224463D01*
X43926976Y-31258139D01*
X43897671Y-31278000D01*
X43878294Y-31286013D01*
X43864253Y-31284146D01*
X43850957Y-31274365D01*
X43826418Y-31262156D01*
X43785064Y-31254015D01*
X43738326Y-31251903D01*
X43696034Y-31256200D01*
X43668017Y-31267287D01*
X43666543Y-31268636D01*
X43653953Y-31293981D01*
X43649020Y-31331811D01*
X43649020Y-31380569D01*
X43765331Y-31380616D01*
X43818760Y-31381461D01*
X43863735Y-31385140D01*
X43895907Y-31392709D01*
X43921899Y-31405208D01*
X43927948Y-31409047D01*
X43971710Y-31451245D01*
X43994987Y-31507047D01*
X43996955Y-31548966D01*
X43998299Y-31577623D01*
G36*
X43998299Y-31577623D02*
G01*
X43998157Y-31579282D01*
X43982835Y-31643879D01*
X43948753Y-31692463D01*
X43894218Y-31727472D01*
X43866036Y-31735989D01*
X43817764Y-31742628D01*
X43764978Y-31744213D01*
X43717353Y-31740560D01*
X43684566Y-31731483D01*
X43664652Y-31724213D01*
X43645155Y-31731483D01*
X43638023Y-31735695D01*
X43609557Y-31742526D01*
X43571059Y-31745222D01*
X43510703Y-31745222D01*
X43510703Y-31501884D01*
X43510707Y-31481163D01*
X43649020Y-31481163D01*
X43649020Y-31529511D01*
X43653668Y-31566304D01*
X43672015Y-31598669D01*
X43682514Y-31605674D01*
X43719988Y-31616591D01*
X43766773Y-31619317D01*
X43812652Y-31613779D01*
X43847410Y-31599905D01*
X43864726Y-31581561D01*
X43875356Y-31548966D01*
X43865929Y-31523129D01*
X43834764Y-31500663D01*
X43784667Y-31486250D01*
X43718582Y-31481163D01*
X43649020Y-31481163D01*
X43510707Y-31481163D01*
X43510707Y-31480840D01*
X43510937Y-31401522D01*
X43511797Y-31342554D01*
X43513679Y-31300016D01*
X43516974Y-31269992D01*
X43522073Y-31248563D01*
X43529366Y-31231811D01*
X43539246Y-31215819D01*
X43571023Y-31178348D01*
X43616055Y-31149739D01*
X43675210Y-31133955D01*
X43753161Y-31129103D01*
X43755695Y-31129108D01*
X43809880Y-31131555D01*
X43858380Y-31137656D01*
X43891478Y-31146209D01*
X43900552Y-31150496D01*
X43929433Y-31168648D01*
X43955568Y-31190222D01*
X43972764Y-31209636D01*
X43974825Y-31221309D01*
X43970803Y-31224463D01*
X43926976Y-31258139D01*
X43897671Y-31278000D01*
X43878294Y-31286013D01*
X43864253Y-31284146D01*
X43850957Y-31274365D01*
X43826418Y-31262156D01*
X43785064Y-31254015D01*
X43738326Y-31251903D01*
X43696034Y-31256200D01*
X43668017Y-31267287D01*
X43666543Y-31268636D01*
X43653953Y-31293981D01*
X43649020Y-31331811D01*
X43649020Y-31380569D01*
X43765331Y-31380616D01*
X43818760Y-31381461D01*
X43863735Y-31385140D01*
X43895907Y-31392709D01*
X43921899Y-31405208D01*
X43927948Y-31409047D01*
X43971710Y-31451245D01*
X43994987Y-31507047D01*
X43996955Y-31548966D01*
X43998299Y-31577623D01*
G37*
X44566940Y-31746536D02*
X44500926Y-31742736D01*
X44434911Y-31738935D01*
X44431772Y-31537747D01*
X44430844Y-31488825D01*
X44428208Y-31415326D01*
X44423683Y-31361391D01*
X44416438Y-31323395D01*
X44405642Y-31297713D01*
X44390462Y-31280720D01*
X44370066Y-31268789D01*
X44331797Y-31256605D01*
X44293738Y-31261340D01*
X44253549Y-31287379D01*
X44214861Y-31319933D01*
X44214861Y-31745222D01*
X44076544Y-31745222D01*
X44076544Y-31514576D01*
X44076677Y-31442282D01*
X44077413Y-31378041D01*
X44079181Y-31331018D01*
X44082411Y-31296948D01*
X44087530Y-31271570D01*
X44094967Y-31250621D01*
X44105150Y-31229836D01*
X44107564Y-31225424D01*
X44139675Y-31182447D01*
X44177256Y-31152413D01*
X44222564Y-31136643D01*
X44282561Y-31129622D01*
X44342643Y-31133425D01*
X44391525Y-31148268D01*
X44428624Y-31167452D01*
X44428624Y-30752259D01*
X44377792Y-30778754D01*
X44356558Y-30788380D01*
X44289536Y-30801992D01*
X44222930Y-30792584D01*
X44161187Y-30761305D01*
X44108757Y-30709302D01*
X44100543Y-30697080D01*
X44092649Y-30679163D01*
X44087500Y-30654804D01*
X44084527Y-30619327D01*
X44083161Y-30568056D01*
X44082915Y-30514636D01*
X44215749Y-30514636D01*
X44215861Y-30559249D01*
X44219272Y-30589001D01*
X44226937Y-30610235D01*
X44239814Y-30629296D01*
X44256171Y-30647017D01*
X44282329Y-30660428D01*
X44321742Y-30663836D01*
X44356559Y-30660871D01*
X44391020Y-30646031D01*
X44413215Y-30615969D01*
X44425097Y-30567654D01*
X44428624Y-30498050D01*
X44427712Y-30461024D01*
X44418609Y-30391128D01*
X44399828Y-30343864D01*
X44371476Y-30319568D01*
X44342840Y-30312732D01*
X44292970Y-30315937D01*
X44250833Y-30335780D01*
X44240749Y-30344880D01*
X44230063Y-30360623D01*
X44223456Y-30384058D01*
X44219532Y-30421004D01*
X44216897Y-30477280D01*
X44215749Y-30514636D01*
X44082915Y-30514636D01*
X44082831Y-30496317D01*
X44082944Y-30463584D01*
X44084872Y-30387444D01*
X44090240Y-30330566D01*
X44100406Y-30288649D01*
X44116725Y-30257396D01*
X44140553Y-30232506D01*
X44173247Y-30209682D01*
X44199759Y-30196584D01*
X44262615Y-30182139D01*
X44328869Y-30184107D01*
X44387757Y-30202833D01*
X44413030Y-30215073D01*
X44425742Y-30216338D01*
X44428624Y-30205198D01*
X44428626Y-30204861D01*
X44434838Y-30193487D01*
X44456260Y-30187656D01*
X44497782Y-30186014D01*
X44566940Y-30186014D01*
X44566940Y-30498050D01*
X44566940Y-31746536D01*
G36*
X44566940Y-31746536D02*
G01*
X44500926Y-31742736D01*
X44434911Y-31738935D01*
X44431772Y-31537747D01*
X44430844Y-31488825D01*
X44428208Y-31415326D01*
X44423683Y-31361391D01*
X44416438Y-31323395D01*
X44405642Y-31297713D01*
X44390462Y-31280720D01*
X44370066Y-31268789D01*
X44331797Y-31256605D01*
X44293738Y-31261340D01*
X44253549Y-31287379D01*
X44214861Y-31319933D01*
X44214861Y-31745222D01*
X44076544Y-31745222D01*
X44076544Y-31514576D01*
X44076677Y-31442282D01*
X44077413Y-31378041D01*
X44079181Y-31331018D01*
X44082411Y-31296948D01*
X44087530Y-31271570D01*
X44094967Y-31250621D01*
X44105150Y-31229836D01*
X44107564Y-31225424D01*
X44139675Y-31182447D01*
X44177256Y-31152413D01*
X44222564Y-31136643D01*
X44282561Y-31129622D01*
X44342643Y-31133425D01*
X44391525Y-31148268D01*
X44428624Y-31167452D01*
X44428624Y-30752259D01*
X44377792Y-30778754D01*
X44356558Y-30788380D01*
X44289536Y-30801992D01*
X44222930Y-30792584D01*
X44161187Y-30761305D01*
X44108757Y-30709302D01*
X44100543Y-30697080D01*
X44092649Y-30679163D01*
X44087500Y-30654804D01*
X44084527Y-30619327D01*
X44083161Y-30568056D01*
X44082915Y-30514636D01*
X44215749Y-30514636D01*
X44215861Y-30559249D01*
X44219272Y-30589001D01*
X44226937Y-30610235D01*
X44239814Y-30629296D01*
X44256171Y-30647017D01*
X44282329Y-30660428D01*
X44321742Y-30663836D01*
X44356559Y-30660871D01*
X44391020Y-30646031D01*
X44413215Y-30615969D01*
X44425097Y-30567654D01*
X44428624Y-30498050D01*
X44427712Y-30461024D01*
X44418609Y-30391128D01*
X44399828Y-30343864D01*
X44371476Y-30319568D01*
X44342840Y-30312732D01*
X44292970Y-30315937D01*
X44250833Y-30335780D01*
X44240749Y-30344880D01*
X44230063Y-30360623D01*
X44223456Y-30384058D01*
X44219532Y-30421004D01*
X44216897Y-30477280D01*
X44215749Y-30514636D01*
X44082915Y-30514636D01*
X44082831Y-30496317D01*
X44082944Y-30463584D01*
X44084872Y-30387444D01*
X44090240Y-30330566D01*
X44100406Y-30288649D01*
X44116725Y-30257396D01*
X44140553Y-30232506D01*
X44173247Y-30209682D01*
X44199759Y-30196584D01*
X44262615Y-30182139D01*
X44328869Y-30184107D01*
X44387757Y-30202833D01*
X44413030Y-30215073D01*
X44425742Y-30216338D01*
X44428624Y-30205198D01*
X44428626Y-30204861D01*
X44434838Y-30193487D01*
X44456260Y-30187656D01*
X44497782Y-30186014D01*
X44566940Y-30186014D01*
X44566940Y-30498050D01*
X44566940Y-31746536D01*
G37*
X42655389Y-26017418D02*
X42712237Y-26318970D01*
X42922001Y-26405441D01*
X43131764Y-26491912D01*
X43383410Y-26320795D01*
X43433216Y-26287061D01*
X43499244Y-26242781D01*
X43556410Y-26204961D01*
X43601744Y-26175542D01*
X43632280Y-26156467D01*
X43645046Y-26149678D01*
X43652887Y-26154506D01*
X43676325Y-26174739D01*
X43711794Y-26207943D01*
X43756289Y-26251070D01*
X43806805Y-26301070D01*
X43860336Y-26354895D01*
X43913877Y-26409495D01*
X43964423Y-26461823D01*
X44008968Y-26508828D01*
X44044507Y-26547463D01*
X44068034Y-26574678D01*
X44076544Y-26587424D01*
X44074565Y-26592900D01*
X44060857Y-26617327D01*
X44035825Y-26657529D01*
X44001499Y-26710352D01*
X43959907Y-26772647D01*
X43913079Y-26841262D01*
X43887380Y-26878683D01*
X43843173Y-26943832D01*
X43805272Y-27000689D01*
X43775698Y-27046170D01*
X43756472Y-27077193D01*
X43749614Y-27090674D01*
X43749726Y-27091421D01*
X43755776Y-27108510D01*
X43769654Y-27143406D01*
X43789427Y-27191551D01*
X43813160Y-27248386D01*
X43838918Y-27309353D01*
X43864766Y-27369892D01*
X43888771Y-27425447D01*
X43908998Y-27471457D01*
X43923511Y-27503365D01*
X43930377Y-27516612D01*
X43934439Y-27517787D01*
X43959121Y-27523087D01*
X44003111Y-27531867D01*
X44062887Y-27543440D01*
X44134929Y-27557121D01*
X44215716Y-27572223D01*
X44258294Y-27580230D01*
X44336445Y-27595507D01*
X44404775Y-27609615D01*
X44459551Y-27621745D01*
X44497037Y-27631086D01*
X44513500Y-27636827D01*
X44516457Y-27642519D01*
X44521362Y-27670330D01*
X44525216Y-27716650D01*
X44528021Y-27777120D01*
X44529781Y-27847383D01*
X44530499Y-27923080D01*
X44530177Y-27999853D01*
X44528819Y-28073344D01*
X44526428Y-28139194D01*
X44523006Y-28193045D01*
X44518556Y-28230538D01*
X44513082Y-28247316D01*
X44509760Y-28249209D01*
X44484987Y-28257326D01*
X44442011Y-28268066D01*
X44385802Y-28280253D01*
X44321325Y-28292710D01*
X44299570Y-28296677D01*
X44199093Y-28315129D01*
X44120126Y-28329959D01*
X44059934Y-28341780D01*
X44015778Y-28351209D01*
X43984920Y-28358860D01*
X43964625Y-28365348D01*
X43952154Y-28371288D01*
X43944771Y-28377294D01*
X43943913Y-28378302D01*
X43931838Y-28399319D01*
X43913971Y-28437776D01*
X43892042Y-28489161D01*
X43867784Y-28548963D01*
X43842927Y-28612670D01*
X43819205Y-28675771D01*
X43798347Y-28733755D01*
X43782087Y-28782109D01*
X43772156Y-28816322D01*
X43770285Y-28831883D01*
X43771536Y-28833902D01*
X43784486Y-28853428D01*
X43808840Y-28889442D01*
X43842340Y-28938628D01*
X43882727Y-28997667D01*
X43927745Y-29063242D01*
X43940100Y-29081284D01*
X43983545Y-29145999D01*
X44021091Y-29203876D01*
X44050594Y-29251482D01*
X44069914Y-29285385D01*
X44076905Y-29302152D01*
X44075398Y-29306561D01*
X44059695Y-29328282D01*
X44028714Y-29363754D01*
X43984673Y-29410588D01*
X43929790Y-29466396D01*
X43866286Y-29528792D01*
X43829988Y-29563717D01*
X43772595Y-29618111D01*
X43722361Y-29664702D01*
X43681984Y-29701036D01*
X43654161Y-29724661D01*
X43641590Y-29733124D01*
X43632952Y-29729987D01*
X43606360Y-29715147D01*
X43567741Y-29690877D01*
X43522134Y-29660252D01*
X43489707Y-29637903D01*
X43424970Y-29593522D01*
X43355886Y-29546387D01*
X43292787Y-29503555D01*
X43169178Y-29419947D01*
X43065417Y-29476050D01*
X43040984Y-29488999D01*
X42996552Y-29511149D01*
X42962191Y-29526441D01*
X42943828Y-29532143D01*
X42937818Y-29524821D01*
X42922895Y-29496941D01*
X42900852Y-29450975D01*
X42872917Y-29389841D01*
X42840317Y-29316455D01*
X42804276Y-29233735D01*
X42766023Y-29144597D01*
X42726783Y-29051959D01*
X42687783Y-28958737D01*
X42650249Y-28867850D01*
X42615409Y-28782214D01*
X42584488Y-28704745D01*
X42558714Y-28638362D01*
X42539311Y-28585982D01*
X42527508Y-28550521D01*
X42524531Y-28534896D01*
X42524732Y-28534439D01*
X42538601Y-28519995D01*
X42567611Y-28497374D01*
X42605772Y-28471264D01*
X42617817Y-28463292D01*
X42709469Y-28387656D01*
X42785323Y-28297569D01*
X42843581Y-28196781D01*
X42882448Y-28089040D01*
X42900128Y-27978097D01*
X42894826Y-27867703D01*
X42873347Y-27769515D01*
X42834782Y-27670366D01*
X42778562Y-27581912D01*
X42701410Y-27497887D01*
X42671095Y-27471045D01*
X42573094Y-27404910D01*
X42467227Y-27360370D01*
X42356561Y-27337025D01*
X42244164Y-27334478D01*
X42133105Y-27352329D01*
X42026451Y-27390180D01*
X41927270Y-27447632D01*
X41838631Y-27524287D01*
X41763600Y-27619745D01*
X41749175Y-27643385D01*
X41700143Y-27751434D01*
X41674103Y-27863948D01*
X41670372Y-27978014D01*
X41688268Y-28090718D01*
X41727109Y-28199145D01*
X41786214Y-28300382D01*
X41864900Y-28391514D01*
X41962485Y-28469628D01*
X41965654Y-28471733D01*
X42003411Y-28498340D01*
X42031709Y-28520961D01*
X42044634Y-28534896D01*
X42043003Y-28545821D01*
X42032864Y-28577631D01*
X42014884Y-28626934D01*
X41990292Y-28690813D01*
X41960311Y-28766348D01*
X41926170Y-28850623D01*
X41889092Y-28940720D01*
X41850306Y-29033721D01*
X41811036Y-29126708D01*
X41772509Y-29216764D01*
X41735950Y-29300971D01*
X41702586Y-29376410D01*
X41673643Y-29440165D01*
X41650346Y-29489317D01*
X41633923Y-29520949D01*
X41625598Y-29532143D01*
X41618674Y-29530627D01*
X41591477Y-29519731D01*
X41551280Y-29500628D01*
X41504009Y-29476050D01*
X41400248Y-29419947D01*
X41276639Y-29503555D01*
X41240120Y-29528313D01*
X41172194Y-29574571D01*
X41104475Y-29620903D01*
X41047291Y-29660252D01*
X41015732Y-29681697D01*
X40974714Y-29708339D01*
X40944301Y-29726578D01*
X40929446Y-29733341D01*
X40923065Y-29730470D01*
X40899996Y-29712885D01*
X40864433Y-29681923D01*
X40819471Y-29640631D01*
X40768206Y-29592053D01*
X40713733Y-29539235D01*
X40659148Y-29485223D01*
X40607547Y-29433061D01*
X40562024Y-29385796D01*
X40525675Y-29346472D01*
X40501595Y-29318136D01*
X40492881Y-29303832D01*
X40493383Y-29301111D01*
X40503755Y-29278960D01*
X40525912Y-29240635D01*
X40557712Y-29189600D01*
X40597016Y-29129314D01*
X40641681Y-29063242D01*
X40654207Y-29045017D01*
X40698193Y-28980885D01*
X40736937Y-28924189D01*
X40768182Y-28878244D01*
X40789669Y-28846370D01*
X40799140Y-28831883D01*
X40799373Y-28831262D01*
X40796578Y-28813539D01*
X40785903Y-28777635D01*
X40769081Y-28728062D01*
X40747843Y-28669332D01*
X40723921Y-28605956D01*
X40699046Y-28542446D01*
X40674950Y-28483313D01*
X40653365Y-28433069D01*
X40636023Y-28396226D01*
X40624655Y-28377294D01*
X40623516Y-28376119D01*
X40615376Y-28370173D01*
X40601629Y-28364176D01*
X40579537Y-28357514D01*
X40546363Y-28349573D01*
X40499370Y-28339737D01*
X40435820Y-28327391D01*
X40352976Y-28311920D01*
X40248100Y-28292710D01*
X40226348Y-28288667D01*
X40164036Y-28276169D01*
X40111619Y-28264327D01*
X40074066Y-28254317D01*
X40056343Y-28247316D01*
X40053378Y-28241475D01*
X40048435Y-28213416D01*
X40044518Y-28166900D01*
X40041629Y-28106286D01*
X40039773Y-28035932D01*
X40038952Y-27960196D01*
X40039168Y-27883437D01*
X40040426Y-27810012D01*
X40042728Y-27744280D01*
X40046076Y-27690600D01*
X40050474Y-27653330D01*
X40055926Y-27636827D01*
X40061491Y-27634389D01*
X40089178Y-27626705D01*
X40135979Y-27615836D01*
X40198157Y-27602592D01*
X40271979Y-27587784D01*
X40353710Y-27572223D01*
X40398336Y-27563909D01*
X40474824Y-27549492D01*
X40540660Y-27536867D01*
X40592323Y-27526721D01*
X40626293Y-27519741D01*
X40639048Y-27516612D01*
X40639528Y-27515968D01*
X40647651Y-27499581D01*
X40663137Y-27465252D01*
X40684050Y-27417536D01*
X40708455Y-27360986D01*
X40734416Y-27300158D01*
X40759997Y-27239606D01*
X40783262Y-27183885D01*
X40802277Y-27137550D01*
X40815105Y-27105155D01*
X40819812Y-27091255D01*
X40817736Y-27086365D01*
X40803920Y-27063092D01*
X40778860Y-27023919D01*
X40744568Y-26971920D01*
X40703059Y-26910168D01*
X40656346Y-26841736D01*
X40630718Y-26804260D01*
X40586490Y-26738556D01*
X40548570Y-26680892D01*
X40518980Y-26634414D01*
X40499743Y-26602265D01*
X40492881Y-26587590D01*
X40497649Y-26579630D01*
X40517593Y-26555846D01*
X40550313Y-26519851D01*
X40592805Y-26474695D01*
X40642065Y-26423428D01*
X40695091Y-26369101D01*
X40748877Y-26314764D01*
X40800421Y-26263467D01*
X40846720Y-26218259D01*
X40884769Y-26182192D01*
X40911565Y-26158314D01*
X40924105Y-26149678D01*
X40931066Y-26153036D01*
X40956627Y-26168610D01*
X40997874Y-26195115D01*
X41051837Y-26230610D01*
X41115542Y-26273150D01*
X41186016Y-26320795D01*
X41437662Y-26491912D01*
X41857188Y-26318970D01*
X41914036Y-26017418D01*
X41970885Y-25715866D01*
X42598540Y-25715866D01*
X42655389Y-26017418D01*
G36*
X42655389Y-26017418D02*
G01*
X42712237Y-26318970D01*
X42922001Y-26405441D01*
X43131764Y-26491912D01*
X43383410Y-26320795D01*
X43433216Y-26287061D01*
X43499244Y-26242781D01*
X43556410Y-26204961D01*
X43601744Y-26175542D01*
X43632280Y-26156467D01*
X43645046Y-26149678D01*
X43652887Y-26154506D01*
X43676325Y-26174739D01*
X43711794Y-26207943D01*
X43756289Y-26251070D01*
X43806805Y-26301070D01*
X43860336Y-26354895D01*
X43913877Y-26409495D01*
X43964423Y-26461823D01*
X44008968Y-26508828D01*
X44044507Y-26547463D01*
X44068034Y-26574678D01*
X44076544Y-26587424D01*
X44074565Y-26592900D01*
X44060857Y-26617327D01*
X44035825Y-26657529D01*
X44001499Y-26710352D01*
X43959907Y-26772647D01*
X43913079Y-26841262D01*
X43887380Y-26878683D01*
X43843173Y-26943832D01*
X43805272Y-27000689D01*
X43775698Y-27046170D01*
X43756472Y-27077193D01*
X43749614Y-27090674D01*
X43749726Y-27091421D01*
X43755776Y-27108510D01*
X43769654Y-27143406D01*
X43789427Y-27191551D01*
X43813160Y-27248386D01*
X43838918Y-27309353D01*
X43864766Y-27369892D01*
X43888771Y-27425447D01*
X43908998Y-27471457D01*
X43923511Y-27503365D01*
X43930377Y-27516612D01*
X43934439Y-27517787D01*
X43959121Y-27523087D01*
X44003111Y-27531867D01*
X44062887Y-27543440D01*
X44134929Y-27557121D01*
X44215716Y-27572223D01*
X44258294Y-27580230D01*
X44336445Y-27595507D01*
X44404775Y-27609615D01*
X44459551Y-27621745D01*
X44497037Y-27631086D01*
X44513500Y-27636827D01*
X44516457Y-27642519D01*
X44521362Y-27670330D01*
X44525216Y-27716650D01*
X44528021Y-27777120D01*
X44529781Y-27847383D01*
X44530499Y-27923080D01*
X44530177Y-27999853D01*
X44528819Y-28073344D01*
X44526428Y-28139194D01*
X44523006Y-28193045D01*
X44518556Y-28230538D01*
X44513082Y-28247316D01*
X44509760Y-28249209D01*
X44484987Y-28257326D01*
X44442011Y-28268066D01*
X44385802Y-28280253D01*
X44321325Y-28292710D01*
X44299570Y-28296677D01*
X44199093Y-28315129D01*
X44120126Y-28329959D01*
X44059934Y-28341780D01*
X44015778Y-28351209D01*
X43984920Y-28358860D01*
X43964625Y-28365348D01*
X43952154Y-28371288D01*
X43944771Y-28377294D01*
X43943913Y-28378302D01*
X43931838Y-28399319D01*
X43913971Y-28437776D01*
X43892042Y-28489161D01*
X43867784Y-28548963D01*
X43842927Y-28612670D01*
X43819205Y-28675771D01*
X43798347Y-28733755D01*
X43782087Y-28782109D01*
X43772156Y-28816322D01*
X43770285Y-28831883D01*
X43771536Y-28833902D01*
X43784486Y-28853428D01*
X43808840Y-28889442D01*
X43842340Y-28938628D01*
X43882727Y-28997667D01*
X43927745Y-29063242D01*
X43940100Y-29081284D01*
X43983545Y-29145999D01*
X44021091Y-29203876D01*
X44050594Y-29251482D01*
X44069914Y-29285385D01*
X44076905Y-29302152D01*
X44075398Y-29306561D01*
X44059695Y-29328282D01*
X44028714Y-29363754D01*
X43984673Y-29410588D01*
X43929790Y-29466396D01*
X43866286Y-29528792D01*
X43829988Y-29563717D01*
X43772595Y-29618111D01*
X43722361Y-29664702D01*
X43681984Y-29701036D01*
X43654161Y-29724661D01*
X43641590Y-29733124D01*
X43632952Y-29729987D01*
X43606360Y-29715147D01*
X43567741Y-29690877D01*
X43522134Y-29660252D01*
X43489707Y-29637903D01*
X43424970Y-29593522D01*
X43355886Y-29546387D01*
X43292787Y-29503555D01*
X43169178Y-29419947D01*
X43065417Y-29476050D01*
X43040984Y-29488999D01*
X42996552Y-29511149D01*
X42962191Y-29526441D01*
X42943828Y-29532143D01*
X42937818Y-29524821D01*
X42922895Y-29496941D01*
X42900852Y-29450975D01*
X42872917Y-29389841D01*
X42840317Y-29316455D01*
X42804276Y-29233735D01*
X42766023Y-29144597D01*
X42726783Y-29051959D01*
X42687783Y-28958737D01*
X42650249Y-28867850D01*
X42615409Y-28782214D01*
X42584488Y-28704745D01*
X42558714Y-28638362D01*
X42539311Y-28585982D01*
X42527508Y-28550521D01*
X42524531Y-28534896D01*
X42524732Y-28534439D01*
X42538601Y-28519995D01*
X42567611Y-28497374D01*
X42605772Y-28471264D01*
X42617817Y-28463292D01*
X42709469Y-28387656D01*
X42785323Y-28297569D01*
X42843581Y-28196781D01*
X42882448Y-28089040D01*
X42900128Y-27978097D01*
X42894826Y-27867703D01*
X42873347Y-27769515D01*
X42834782Y-27670366D01*
X42778562Y-27581912D01*
X42701410Y-27497887D01*
X42671095Y-27471045D01*
X42573094Y-27404910D01*
X42467227Y-27360370D01*
X42356561Y-27337025D01*
X42244164Y-27334478D01*
X42133105Y-27352329D01*
X42026451Y-27390180D01*
X41927270Y-27447632D01*
X41838631Y-27524287D01*
X41763600Y-27619745D01*
X41749175Y-27643385D01*
X41700143Y-27751434D01*
X41674103Y-27863948D01*
X41670372Y-27978014D01*
X41688268Y-28090718D01*
X41727109Y-28199145D01*
X41786214Y-28300382D01*
X41864900Y-28391514D01*
X41962485Y-28469628D01*
X41965654Y-28471733D01*
X42003411Y-28498340D01*
X42031709Y-28520961D01*
X42044634Y-28534896D01*
X42043003Y-28545821D01*
X42032864Y-28577631D01*
X42014884Y-28626934D01*
X41990292Y-28690813D01*
X41960311Y-28766348D01*
X41926170Y-28850623D01*
X41889092Y-28940720D01*
X41850306Y-29033721D01*
X41811036Y-29126708D01*
X41772509Y-29216764D01*
X41735950Y-29300971D01*
X41702586Y-29376410D01*
X41673643Y-29440165D01*
X41650346Y-29489317D01*
X41633923Y-29520949D01*
X41625598Y-29532143D01*
X41618674Y-29530627D01*
X41591477Y-29519731D01*
X41551280Y-29500628D01*
X41504009Y-29476050D01*
X41400248Y-29419947D01*
X41276639Y-29503555D01*
X41240120Y-29528313D01*
X41172194Y-29574571D01*
X41104475Y-29620903D01*
X41047291Y-29660252D01*
X41015732Y-29681697D01*
X40974714Y-29708339D01*
X40944301Y-29726578D01*
X40929446Y-29733341D01*
X40923065Y-29730470D01*
X40899996Y-29712885D01*
X40864433Y-29681923D01*
X40819471Y-29640631D01*
X40768206Y-29592053D01*
X40713733Y-29539235D01*
X40659148Y-29485223D01*
X40607547Y-29433061D01*
X40562024Y-29385796D01*
X40525675Y-29346472D01*
X40501595Y-29318136D01*
X40492881Y-29303832D01*
X40493383Y-29301111D01*
X40503755Y-29278960D01*
X40525912Y-29240635D01*
X40557712Y-29189600D01*
X40597016Y-29129314D01*
X40641681Y-29063242D01*
X40654207Y-29045017D01*
X40698193Y-28980885D01*
X40736937Y-28924189D01*
X40768182Y-28878244D01*
X40789669Y-28846370D01*
X40799140Y-28831883D01*
X40799373Y-28831262D01*
X40796578Y-28813539D01*
X40785903Y-28777635D01*
X40769081Y-28728062D01*
X40747843Y-28669332D01*
X40723921Y-28605956D01*
X40699046Y-28542446D01*
X40674950Y-28483313D01*
X40653365Y-28433069D01*
X40636023Y-28396226D01*
X40624655Y-28377294D01*
X40623516Y-28376119D01*
X40615376Y-28370173D01*
X40601629Y-28364176D01*
X40579537Y-28357514D01*
X40546363Y-28349573D01*
X40499370Y-28339737D01*
X40435820Y-28327391D01*
X40352976Y-28311920D01*
X40248100Y-28292710D01*
X40226348Y-28288667D01*
X40164036Y-28276169D01*
X40111619Y-28264327D01*
X40074066Y-28254317D01*
X40056343Y-28247316D01*
X40053378Y-28241475D01*
X40048435Y-28213416D01*
X40044518Y-28166900D01*
X40041629Y-28106286D01*
X40039773Y-28035932D01*
X40038952Y-27960196D01*
X40039168Y-27883437D01*
X40040426Y-27810012D01*
X40042728Y-27744280D01*
X40046076Y-27690600D01*
X40050474Y-27653330D01*
X40055926Y-27636827D01*
X40061491Y-27634389D01*
X40089178Y-27626705D01*
X40135979Y-27615836D01*
X40198157Y-27602592D01*
X40271979Y-27587784D01*
X40353710Y-27572223D01*
X40398336Y-27563909D01*
X40474824Y-27549492D01*
X40540660Y-27536867D01*
X40592323Y-27526721D01*
X40626293Y-27519741D01*
X40639048Y-27516612D01*
X40639528Y-27515968D01*
X40647651Y-27499581D01*
X40663137Y-27465252D01*
X40684050Y-27417536D01*
X40708455Y-27360986D01*
X40734416Y-27300158D01*
X40759997Y-27239606D01*
X40783262Y-27183885D01*
X40802277Y-27137550D01*
X40815105Y-27105155D01*
X40819812Y-27091255D01*
X40817736Y-27086365D01*
X40803920Y-27063092D01*
X40778860Y-27023919D01*
X40744568Y-26971920D01*
X40703059Y-26910168D01*
X40656346Y-26841736D01*
X40630718Y-26804260D01*
X40586490Y-26738556D01*
X40548570Y-26680892D01*
X40518980Y-26634414D01*
X40499743Y-26602265D01*
X40492881Y-26587590D01*
X40497649Y-26579630D01*
X40517593Y-26555846D01*
X40550313Y-26519851D01*
X40592805Y-26474695D01*
X40642065Y-26423428D01*
X40695091Y-26369101D01*
X40748877Y-26314764D01*
X40800421Y-26263467D01*
X40846720Y-26218259D01*
X40884769Y-26182192D01*
X40911565Y-26158314D01*
X40924105Y-26149678D01*
X40931066Y-26153036D01*
X40956627Y-26168610D01*
X40997874Y-26195115D01*
X41051837Y-26230610D01*
X41115542Y-26273150D01*
X41186016Y-26320795D01*
X41437662Y-26491912D01*
X41857188Y-26318970D01*
X41914036Y-26017418D01*
X41970885Y-25715866D01*
X42598540Y-25715866D01*
X42655389Y-26017418D01*
G37*
%TD*%
%LPC*%
D12*
%TO.C,J7*%
X40640000Y-35560000D03*
D13*
X43180000Y-35560000D03*
X45720000Y-35560000D03*
X48260000Y-35560000D03*
X50800000Y-35560000D03*
X53340000Y-35560000D03*
X55880000Y-35560000D03*
%TD*%
D14*
%TO.C,J4*%
X24922500Y-26330000D03*
X24922500Y-32130000D03*
D15*
X25452500Y-24910000D03*
D16*
X21272500Y-24910000D03*
D15*
X25452500Y-33550000D03*
D16*
X21272500Y-33550000D03*
%TD*%
D12*
%TO.C,J9*%
X73660000Y-22860000D03*
D13*
X76200000Y-22860000D03*
X78740000Y-22860000D03*
X81280000Y-22860000D03*
X83820000Y-22860000D03*
X86360000Y-22860000D03*
X88900000Y-22860000D03*
X91440000Y-22860000D03*
%TD*%
D12*
%TO.C,J8*%
X55880000Y-22860000D03*
D13*
X53340000Y-22860000D03*
X50800000Y-22860000D03*
X48260000Y-22860000D03*
X45720000Y-22860000D03*
X43180000Y-22860000D03*
X40640000Y-22860000D03*
%TD*%
D12*
%TO.C,J6*%
X25400000Y-22860000D03*
D13*
X22860000Y-22860000D03*
%TD*%
D12*
%TO.C,J1*%
X35560000Y-35560000D03*
D13*
X33020000Y-35560000D03*
X35560000Y-33020000D03*
X33020000Y-33020000D03*
X35560000Y-30480000D03*
X33020000Y-30480000D03*
%TD*%
D12*
%TO.C,J2*%
X60960000Y-22860000D03*
D13*
X63500000Y-22860000D03*
X66040000Y-22860000D03*
X68580000Y-22860000D03*
%TD*%
D12*
%TO.C,J5*%
X25400000Y-35560000D03*
D13*
X22860000Y-35560000D03*
%TD*%
D12*
%TO.C,J3*%
X60960000Y-35560000D03*
D13*
X63500000Y-35560000D03*
X66040000Y-35560000D03*
X68580000Y-35560000D03*
%TD*%
D17*
%TO.C,R1*%
X29083000Y-29464000D03*
D18*
X29083000Y-34544000D03*
%TD*%
%LPD*%
M02*
