M48
; DRILL file {KiCad 8.0.6} date 2024-11-04T18:07:15+0100
; FORMAT={-:-/ absolute / inch / decimal}
; #@! TF.CreationDate,2024-11-04T18:07:15+01:00
; #@! TF.GenerationSoftware,Kicad,Pcbnew,8.0.6
; #@! TF.FileFunction,Plated,1,2,PTH
FMAT,2
INCH
; #@! TA.AperFunction,Plated,PTH,ViaDrill
T1C0.0118
; #@! TA.AperFunction,Plated,PTH,ComponentDrill
T2C0.0236
; #@! TA.AperFunction,Plated,PTH,ComponentDrill
T3C0.0276
; #@! TA.AperFunction,Plated,PTH,ComponentDrill
T4C0.0394
%
G90
G05
T1
X1.0744Y-1.0
X1.0744Y-1.2837
X1.22Y-1.11
X1.3Y-0.95
X1.41Y-0.99
X1.5Y-1.06
X1.5Y-1.15
X1.56Y-1.2
X1.69Y-1.09
X1.79Y-1.08
X1.877Y-1.0236
X1.99Y-1.14
X2.0715Y-1.1115
X2.1Y-1.28
X2.11Y-1.0464
X2.23Y-1.14
X2.31Y-1.11
X2.34Y-1.28
X2.36Y-1.07
X2.47Y-1.14
X2.55Y-1.11
X2.58Y-1.29
X2.59Y-1.24
X2.71Y-1.14
X2.78Y-1.11
X2.82Y-1.2485
X2.82Y-1.28
X2.93Y-1.09
X2.94Y-1.14
X2.98Y-1.04
X3.02Y-1.11
X3.05Y-1.28
X3.07Y-1.3164
X3.18Y-1.14
X3.26Y-1.11
X3.29Y-1.28
X3.34Y-1.34
X3.41Y-1.14
X3.5Y-1.11
X3.53Y-1.27
T3
X1.145Y-1.16
X1.145Y-1.36
T4
X0.9Y-0.9
X0.9Y-1.4
X1.0Y-0.9
X1.0Y-1.4
X1.3Y-1.2
X1.3Y-1.3
X1.3Y-1.4
X1.4Y-1.2
X1.4Y-1.3
X1.4Y-1.4
X1.6Y-0.9
X1.6Y-1.4
X1.7Y-0.9
X1.7Y-1.4
X1.8Y-0.9
X1.8Y-1.4
X1.9Y-0.9
X1.9Y-1.4
X2.0Y-0.9
X2.0Y-1.4
X2.1Y-0.9
X2.1Y-1.4
X2.2Y-0.9
X2.2Y-1.4
X2.4Y-0.9
X2.4Y-1.4
X2.5Y-0.9
X2.5Y-1.4
X2.6Y-0.9
X2.6Y-1.4
X2.7Y-0.9
X2.7Y-1.4
X2.9Y-0.9
X3.0Y-0.9
X3.1Y-0.9
X3.2Y-0.9
X3.3Y-0.9
X3.4Y-0.9
X3.5Y-0.9
X3.6Y-0.9
T2
G00X0.8493Y-0.9807
M15
G01X0.8257Y-0.9807
M16
G05
G00X0.8493Y-1.3209
M15
G01X0.8257Y-1.3209
M16
G05
G00X1.0237Y-0.9807
M15
G01X0.9804Y-0.9807
M16
G05
G00X1.0237Y-1.3209
M15
G01X0.9804Y-1.3209
M16
G05
M30
