%TF.GenerationSoftware,KiCad,Pcbnew,8.0.6*%
%TF.CreationDate,2024-10-28T20:27:18+01:00*%
%TF.ProjectId,ATtiny3,41547469-6e79-4332-9b2e-6b696361645f,rev?*%
%TF.SameCoordinates,Original*%
%TF.FileFunction,Copper,L1,Top*%
%TF.FilePolarity,Positive*%
%FSLAX46Y46*%
G04 Gerber Fmt 4.6, Leading zero omitted, Abs format (unit mm)*
G04 Created by KiCad (PCBNEW 8.0.6) date 2024-10-28 20:27:18*
%MOMM*%
%LPD*%
G01*
G04 APERTURE LIST*
G04 Aperture macros list*
%AMRoundRect*
0 Rectangle with rounded corners*
0 $1 Rounding radius*
0 $2 $3 $4 $5 $6 $7 $8 $9 X,Y pos of 4 corners*
0 Add a 4 corners polygon primitive as box body*
4,1,4,$2,$3,$4,$5,$6,$7,$8,$9,$2,$3,0*
0 Add four circle primitives for the rounded corners*
1,1,$1+$1,$2,$3*
1,1,$1+$1,$4,$5*
1,1,$1+$1,$6,$7*
1,1,$1+$1,$8,$9*
0 Add four rect primitives between the rounded corners*
20,1,$1+$1,$2,$3,$4,$5,0*
20,1,$1+$1,$4,$5,$6,$7,0*
20,1,$1+$1,$6,$7,$8,$9,0*
20,1,$1+$1,$8,$9,$2,$3,0*%
G04 Aperture macros list end*
%TA.AperFunction,SMDPad,CuDef*%
%ADD10RoundRect,0.150000X-0.512500X-0.150000X0.512500X-0.150000X0.512500X0.150000X-0.512500X0.150000X0*%
%TD*%
%TA.AperFunction,SMDPad,CuDef*%
%ADD11RoundRect,0.100000X0.100000X-0.637500X0.100000X0.637500X-0.100000X0.637500X-0.100000X-0.637500X0*%
%TD*%
%TA.AperFunction,SMDPad,CuDef*%
%ADD12RoundRect,0.250000X-0.262500X-0.450000X0.262500X-0.450000X0.262500X0.450000X-0.262500X0.450000X0*%
%TD*%
%TA.AperFunction,SMDPad,CuDef*%
%ADD13RoundRect,0.250000X-0.262500X-1.775000X0.262500X-1.775000X0.262500X1.775000X-0.262500X1.775000X0*%
%TD*%
%TA.AperFunction,SMDPad,CuDef*%
%ADD14R,1.050000X0.600000*%
%TD*%
%TA.AperFunction,SMDPad,CuDef*%
%ADD15R,0.889000X1.270000*%
%TD*%
%TA.AperFunction,ComponentPad*%
%ADD16RoundRect,0.250000X-0.600000X-0.725000X0.600000X-0.725000X0.600000X0.725000X-0.600000X0.725000X0*%
%TD*%
%TA.AperFunction,ComponentPad*%
%ADD17O,1.700000X1.950000*%
%TD*%
%TA.AperFunction,SMDPad,CuDef*%
%ADD18RoundRect,0.243750X-0.243750X-0.456250X0.243750X-0.456250X0.243750X0.456250X-0.243750X0.456250X0*%
%TD*%
%TA.AperFunction,SMDPad,CuDef*%
%ADD19RoundRect,0.250000X-0.250000X-0.475000X0.250000X-0.475000X0.250000X0.475000X-0.250000X0.475000X0*%
%TD*%
%TA.AperFunction,ViaPad*%
%ADD20C,5.000000*%
%TD*%
G04 APERTURE END LIST*
D10*
%TO.P,U2,1,VIN*%
%TO.N,+5V*%
X20177900Y-25230000D03*
%TO.P,U2,2,GND*%
%TO.N,GND*%
X20177900Y-26180000D03*
%TO.P,U2,3,EN*%
%TO.N,+5V*%
X20177900Y-27130000D03*
%TO.P,U2,4,NC*%
%TO.N,unconnected-(U2-NC-Pad4)*%
X22452900Y-27130000D03*
%TO.P,U2,5,VOUT*%
%TO.N,+3.3V*%
X22452900Y-25230000D03*
%TD*%
D11*
%TO.P,U1,1,VCC*%
%TO.N,+3.3V*%
X30160400Y-29677500D03*
%TO.P,U1,2,PA4*%
%TO.N,/Mosfet Driver 4/_IN*%
X30810400Y-29677500D03*
%TO.P,U1,3,PA5*%
%TO.N,/Mosfet Driver 5/_IN*%
X31460400Y-29677500D03*
%TO.P,U1,4,PA6*%
%TO.N,/Mosfet Driver 6/_IN*%
X32110400Y-29677500D03*
%TO.P,U1,5,PA7*%
%TO.N,/Mosfet Driver 7/_IN*%
X32760400Y-29677500D03*
%TO.P,U1,6,PB3*%
%TO.N,unconnected-(U1-PB3-Pad6)*%
X33410400Y-29677500D03*
%TO.P,U1,7,PB2*%
%TO.N,unconnected-(U1-PB2-Pad7)*%
X34060400Y-29677500D03*
%TO.P,U1,8,PB1*%
%TO.N,unconnected-(U1-PB1-Pad8)*%
X34060400Y-23952500D03*
%TO.P,U1,9,PB0*%
%TO.N,/Mosfet Driver 8/_IN*%
X33410400Y-23952500D03*
%TO.P,U1,10,~{RESET}/PA0*%
%TO.N,UPDI*%
X32760400Y-23952500D03*
%TO.P,U1,11,PA1*%
%TO.N,/Mosfet Driver 1/_IN*%
X32110400Y-23952500D03*
%TO.P,U1,12,PA2*%
%TO.N,/Mosfet Driver 2/_IN*%
X31460400Y-23952500D03*
%TO.P,U1,13,PA3*%
%TO.N,/Mosfet Driver 3/_IN*%
X30810400Y-23952500D03*
%TO.P,U1,14,GND*%
%TO.N,GND*%
X30160400Y-23952500D03*
%TD*%
D12*
%TO.P,RLED8,1,1*%
%TO.N,Net-(LED8--)*%
X95967900Y-38880000D03*
%TO.P,RLED8,2,2*%
%TO.N,GND*%
X97792900Y-38880000D03*
%TD*%
%TO.P,RLED7,1,1*%
%TO.N,Net-(LED7--)*%
X85807900Y-38880000D03*
%TO.P,RLED7,2,2*%
%TO.N,GND*%
X87632900Y-38880000D03*
%TD*%
%TO.P,RLED6,1,1*%
%TO.N,Net-(LED6--)*%
X75382500Y-38815000D03*
%TO.P,RLED6,2,2*%
%TO.N,GND*%
X77207500Y-38815000D03*
%TD*%
%TO.P,RLED5,1,1*%
%TO.N,Net-(LED5--)*%
X65222500Y-38815000D03*
%TO.P,RLED5,2,2*%
%TO.N,GND*%
X67047500Y-38815000D03*
%TD*%
%TO.P,RLED4,1,1*%
%TO.N,Net-(LED4--)*%
X55062500Y-38815000D03*
%TO.P,RLED4,2,2*%
%TO.N,GND*%
X56887500Y-38815000D03*
%TD*%
%TO.P,RLED3,1,1*%
%TO.N,Net-(LED3--)*%
X44902500Y-38815000D03*
%TO.P,RLED3,2,2*%
%TO.N,GND*%
X46727500Y-38815000D03*
%TD*%
%TO.P,RLED2,1,1*%
%TO.N,Net-(LED2--)*%
X34992900Y-38820000D03*
%TO.P,RLED2,2,2*%
%TO.N,GND*%
X36817900Y-38820000D03*
%TD*%
%TO.P,RLED1,1,1*%
%TO.N,Net-(LED1--)*%
X24847900Y-38880000D03*
%TO.P,RLED1,2,2*%
%TO.N,GND*%
X26672900Y-38880000D03*
%TD*%
D13*
%TO.P,R8,1,1*%
%TO.N,/Mosfet Driver 8/_IN*%
X91512900Y-40210000D03*
%TO.P,R8,2,2*%
%TO.N,GND*%
X93387900Y-40210000D03*
%TD*%
%TO.P,R7,1,1*%
%TO.N,/Mosfet Driver 7/_IN*%
X81352900Y-40210000D03*
%TO.P,R7,2,2*%
%TO.N,GND*%
X83227900Y-40210000D03*
%TD*%
%TO.P,R6,1,1*%
%TO.N,/Mosfet Driver 6/_IN*%
X70927500Y-40145000D03*
%TO.P,R6,2,2*%
%TO.N,GND*%
X72802500Y-40145000D03*
%TD*%
%TO.P,R5,1,1*%
%TO.N,/Mosfet Driver 5/_IN*%
X60767500Y-40145000D03*
%TO.P,R5,2,2*%
%TO.N,GND*%
X62642500Y-40145000D03*
%TD*%
%TO.P,R4,1,1*%
%TO.N,/Mosfet Driver 4/_IN*%
X50607500Y-40145000D03*
%TO.P,R4,2,2*%
%TO.N,GND*%
X52482500Y-40145000D03*
%TD*%
%TO.P,R3,1,1*%
%TO.N,/Mosfet Driver 3/_IN*%
X40447500Y-40145000D03*
%TO.P,R3,2,2*%
%TO.N,GND*%
X42322500Y-40145000D03*
%TD*%
%TO.P,R2,1,1*%
%TO.N,/Mosfet Driver 1/_IN*%
X30537900Y-40150000D03*
%TO.P,R2,2,2*%
%TO.N,GND*%
X32412900Y-40150000D03*
%TD*%
%TO.P,R1,1,1*%
%TO.N,/Mosfet Driver 2/_IN*%
X20392900Y-40210000D03*
%TO.P,R1,2,2*%
%TO.N,GND*%
X22267900Y-40210000D03*
%TD*%
D14*
%TO.P,Q8,1,G*%
%TO.N,/Mosfet Driver 8/_IN*%
X91550800Y-34185000D03*
%TO.P,Q8,2,S*%
%TO.N,GND*%
X91550800Y-36085000D03*
%TO.P,Q8,3,D*%
%TO.N,/Mosfet Driver 8/_OUT*%
X93850800Y-35135000D03*
%TD*%
%TO.P,Q7,1,G*%
%TO.N,/Mosfet Driver 7/_IN*%
X81390800Y-34185000D03*
%TO.P,Q7,2,S*%
%TO.N,GND*%
X81390800Y-36085000D03*
%TO.P,Q7,3,D*%
%TO.N,/Mosfet Driver 7/_OUT*%
X83690800Y-35135000D03*
%TD*%
%TO.P,Q6,1,G*%
%TO.N,/Mosfet Driver 6/_IN*%
X70965400Y-34120000D03*
%TO.P,Q6,2,S*%
%TO.N,GND*%
X70965400Y-36020000D03*
%TO.P,Q6,3,D*%
%TO.N,/Mosfet Driver 6/_OUT*%
X73265400Y-35070000D03*
%TD*%
%TO.P,Q5,1,G*%
%TO.N,/Mosfet Driver 5/_IN*%
X60805400Y-34120000D03*
%TO.P,Q5,2,S*%
%TO.N,GND*%
X60805400Y-36020000D03*
%TO.P,Q5,3,D*%
%TO.N,/Mosfet Driver 5/_OUT*%
X63105400Y-35070000D03*
%TD*%
%TO.P,Q4,1,G*%
%TO.N,/Mosfet Driver 4/_IN*%
X50645400Y-34120000D03*
%TO.P,Q4,2,S*%
%TO.N,GND*%
X50645400Y-36020000D03*
%TO.P,Q4,3,D*%
%TO.N,/Mosfet Driver 4/_OUT*%
X52945400Y-35070000D03*
%TD*%
%TO.P,Q3,1,G*%
%TO.N,/Mosfet Driver 3/_IN*%
X40485400Y-34120000D03*
%TO.P,Q3,2,S*%
%TO.N,GND*%
X40485400Y-36020000D03*
%TO.P,Q3,3,D*%
%TO.N,/Mosfet Driver 3/_OUT*%
X42785400Y-35070000D03*
%TD*%
%TO.P,Q2,1,G*%
%TO.N,/Mosfet Driver 1/_IN*%
X30575800Y-34125000D03*
%TO.P,Q2,2,S*%
%TO.N,GND*%
X30575800Y-36025000D03*
%TO.P,Q2,3,D*%
%TO.N,/Mosfet Driver 1/_OUT*%
X32875800Y-35075000D03*
%TD*%
%TO.P,Q1,1,G*%
%TO.N,/Mosfet Driver 2/_IN*%
X20430800Y-34185000D03*
%TO.P,Q1,2,S*%
%TO.N,GND*%
X20430800Y-36085000D03*
%TO.P,Q1,3,D*%
%TO.N,/Mosfet Driver 2/_OUT*%
X22730800Y-35135000D03*
%TD*%
D15*
%TO.P,LED8,1,+*%
%TO.N,/Mosfet Driver 8/_IN*%
X95937400Y-41807500D03*
%TO.P,LED8,2,-*%
%TO.N,Net-(LED8--)*%
X97715400Y-41807500D03*
%TD*%
%TO.P,LED7,1,+*%
%TO.N,/Mosfet Driver 7/_IN*%
X85777400Y-41807500D03*
%TO.P,LED7,2,-*%
%TO.N,Net-(LED7--)*%
X87555400Y-41807500D03*
%TD*%
%TO.P,LED6,1,+*%
%TO.N,/Mosfet Driver 6/_IN*%
X75352000Y-41742500D03*
%TO.P,LED6,2,-*%
%TO.N,Net-(LED6--)*%
X77130000Y-41742500D03*
%TD*%
%TO.P,LED5,1,+*%
%TO.N,/Mosfet Driver 5/_IN*%
X65192000Y-41742500D03*
%TO.P,LED5,2,-*%
%TO.N,Net-(LED5--)*%
X66970000Y-41742500D03*
%TD*%
%TO.P,LED4,1,+*%
%TO.N,/Mosfet Driver 4/_IN*%
X55032000Y-41742500D03*
%TO.P,LED4,2,-*%
%TO.N,Net-(LED4--)*%
X56810000Y-41742500D03*
%TD*%
%TO.P,LED3,1,+*%
%TO.N,/Mosfet Driver 3/_IN*%
X44872000Y-41742500D03*
%TO.P,LED3,2,-*%
%TO.N,Net-(LED3--)*%
X46650000Y-41742500D03*
%TD*%
%TO.P,LED2,1,+*%
%TO.N,/Mosfet Driver 1/_IN*%
X34962400Y-41747500D03*
%TO.P,LED2,2,-*%
%TO.N,Net-(LED2--)*%
X36740400Y-41747500D03*
%TD*%
%TO.P,LED1,1,+*%
%TO.N,/Mosfet Driver 2/_IN*%
X24817400Y-41807500D03*
%TO.P,LED1,2,-*%
%TO.N,Net-(LED1--)*%
X26595400Y-41807500D03*
%TD*%
D16*
%TO.P,J3,1,Pin_1*%
%TO.N,+5V*%
X41080400Y-25880000D03*
D17*
%TO.P,J3,2,Pin_2*%
%TO.N,GND*%
X43580400Y-25880000D03*
%TO.P,J3,3,Pin_3*%
X46080400Y-25880000D03*
%TO.P,J3,4,Pin_4*%
%TO.N,UPDI*%
X48580400Y-25880000D03*
%TO.P,J3,5,Pin_5*%
%TO.N,GND*%
X51080400Y-25880000D03*
%TD*%
D16*
%TO.P,J2,1,Pin_1*%
%TO.N,+5V*%
X83625400Y-25880000D03*
D17*
%TO.P,J2,2,Pin_2*%
%TO.N,/Mosfet Driver 8/_OUT*%
X86125400Y-25880000D03*
%TO.P,J2,3,Pin_3*%
%TO.N,/Mosfet Driver 7/_OUT*%
X88625400Y-25880000D03*
%TO.P,J2,4,Pin_4*%
%TO.N,/Mosfet Driver 6/_OUT*%
X91125400Y-25880000D03*
%TO.P,J2,5,Pin_5*%
%TO.N,/Mosfet Driver 5/_OUT*%
X93625400Y-25880000D03*
%TD*%
D16*
%TO.P,J1,1,Pin_1*%
%TO.N,+5V*%
X64575400Y-25880000D03*
D17*
%TO.P,J1,2,Pin_2*%
%TO.N,/Mosfet Driver 4/_OUT*%
X67075400Y-25880000D03*
%TO.P,J1,3,Pin_3*%
%TO.N,/Mosfet Driver 3/_OUT*%
X69575400Y-25880000D03*
%TO.P,J1,4,Pin_4*%
%TO.N,/Mosfet Driver 2/_OUT*%
X72075400Y-25880000D03*
%TO.P,J1,5,Pin_5*%
%TO.N,/Mosfet Driver 1/_OUT*%
X74575400Y-25880000D03*
%TD*%
D18*
%TO.P,D8,1,+*%
%TO.N,GND*%
X96482900Y-34355000D03*
%TO.P,D8,2,-*%
%TO.N,/Mosfet Driver 8/_OUT*%
X98357900Y-34355000D03*
%TD*%
%TO.P,D7,1,+*%
%TO.N,GND*%
X86322900Y-34355000D03*
%TO.P,D7,2,-*%
%TO.N,/Mosfet Driver 7/_OUT*%
X88197900Y-34355000D03*
%TD*%
%TO.P,D6,1,+*%
%TO.N,GND*%
X75897500Y-34290000D03*
%TO.P,D6,2,-*%
%TO.N,/Mosfet Driver 6/_OUT*%
X77772500Y-34290000D03*
%TD*%
%TO.P,D5,1,+*%
%TO.N,GND*%
X65737500Y-34290000D03*
%TO.P,D5,2,-*%
%TO.N,/Mosfet Driver 5/_OUT*%
X67612500Y-34290000D03*
%TD*%
%TO.P,D4,1,+*%
%TO.N,GND*%
X55577500Y-34290000D03*
%TO.P,D4,2,-*%
%TO.N,/Mosfet Driver 4/_OUT*%
X57452500Y-34290000D03*
%TD*%
%TO.P,D3,1,+*%
%TO.N,GND*%
X45417500Y-34290000D03*
%TO.P,D3,2,-*%
%TO.N,/Mosfet Driver 3/_OUT*%
X47292500Y-34290000D03*
%TD*%
%TO.P,D2,1,+*%
%TO.N,GND*%
X35507900Y-34295000D03*
%TO.P,D2,2,-*%
%TO.N,/Mosfet Driver 1/_OUT*%
X37382900Y-34295000D03*
%TD*%
%TO.P,D1,1,+*%
%TO.N,GND*%
X25362900Y-34355000D03*
%TO.P,D1,2,-*%
%TO.N,/Mosfet Driver 2/_OUT*%
X27237900Y-34355000D03*
%TD*%
D19*
%TO.P,C3,1,1*%
%TO.N,+5V*%
X20111400Y-29990000D03*
%TO.P,C3,2,2*%
%TO.N,GND*%
X22011400Y-29990000D03*
%TD*%
%TO.P,C2,1,1*%
%TO.N,+3.3V*%
X24480200Y-29990000D03*
%TO.P,C2,2,2*%
%TO.N,GND*%
X26380200Y-29990000D03*
%TD*%
%TO.P,C1,1,1*%
%TO.N,+3.3V*%
X24531000Y-26256200D03*
%TO.P,C1,2,2*%
%TO.N,GND*%
X26431000Y-26256200D03*
%TD*%
D20*
%TO.N,*%
X99060000Y-45720000D03*
X99060000Y-20320000D03*
X17780000Y-45720000D03*
X17780000Y-20320000D03*
%TD*%
M02*
