%TF.GenerationSoftware,KiCad,Pcbnew,8.0.6*%
%TF.CreationDate,2024-11-04T18:07:15+01:00*%
%TF.ProjectId,ATtiny3,41547469-6e79-4332-9e6b-696361645f70,rev?*%
%TF.SameCoordinates,Original*%
%TF.FileFunction,Soldermask,Top*%
%TF.FilePolarity,Negative*%
%FSLAX46Y46*%
G04 Gerber Fmt 4.6, Leading zero omitted, Abs format (unit mm)*
G04 Created by KiCad (PCBNEW 8.0.6) date 2024-11-04 18:07:15*
%MOMM*%
%LPD*%
G01*
G04 APERTURE LIST*
G04 Aperture macros list*
%AMRoundRect*
0 Rectangle with rounded corners*
0 $1 Rounding radius*
0 $2 $3 $4 $5 $6 $7 $8 $9 X,Y pos of 4 corners*
0 Add a 4 corners polygon primitive as box body*
4,1,4,$2,$3,$4,$5,$6,$7,$8,$9,$2,$3,0*
0 Add four circle primitives for the rounded corners*
1,1,$1+$1,$2,$3*
1,1,$1+$1,$4,$5*
1,1,$1+$1,$6,$7*
1,1,$1+$1,$8,$9*
0 Add four rect primitives between the rounded corners*
20,1,$1+$1,$2,$3,$4,$5,0*
20,1,$1+$1,$4,$5,$6,$7,0*
20,1,$1+$1,$6,$7,$8,$9,0*
20,1,$1+$1,$8,$9,$2,$3,0*%
G04 Aperture macros list end*
%ADD10RoundRect,0.250000X-0.262500X-0.450000X0.262500X-0.450000X0.262500X0.450000X-0.262500X0.450000X0*%
%ADD11RoundRect,0.150000X-0.512500X-0.150000X0.512500X-0.150000X0.512500X0.150000X-0.512500X0.150000X0*%
%ADD12R,1.700000X1.700000*%
%ADD13O,1.700000X1.700000*%
%ADD14RoundRect,0.250000X0.250000X0.475000X-0.250000X0.475000X-0.250000X-0.475000X0.250000X-0.475000X0*%
%ADD15RoundRect,0.243750X-0.243750X-0.456250X0.243750X-0.456250X0.243750X0.456250X-0.243750X0.456250X0*%
%ADD16C,0.670000*%
%ADD17R,1.450000X0.250000*%
%ADD18R,1.450000X0.300000*%
%ADD19RoundRect,0.500000X-0.600000X0.000010X-0.600000X-0.000010X0.600000X-0.000010X0.600000X0.000010X0*%
%ADD20RoundRect,0.500000X-0.300000X0.000010X-0.300000X-0.000010X0.300000X-0.000010X0.300000X0.000010X0*%
%ADD21RoundRect,0.150000X0.150000X-0.587500X0.150000X0.587500X-0.150000X0.587500X-0.150000X-0.587500X0*%
%ADD22RoundRect,0.250000X-0.450000X0.262500X-0.450000X-0.262500X0.450000X-0.262500X0.450000X0.262500X0*%
%ADD23RoundRect,0.250000X-0.475000X0.250000X-0.475000X-0.250000X0.475000X-0.250000X0.475000X0.250000X0*%
%ADD24RoundRect,0.250000X0.262500X0.450000X-0.262500X0.450000X-0.262500X-0.450000X0.262500X-0.450000X0*%
%ADD25RoundRect,0.225000X0.375000X-0.225000X0.375000X0.225000X-0.375000X0.225000X-0.375000X-0.225000X0*%
%ADD26RoundRect,0.100000X0.100000X-0.637500X0.100000X0.637500X-0.100000X0.637500X-0.100000X-0.637500X0*%
%ADD27RoundRect,0.243750X-0.456250X0.243750X-0.456250X-0.243750X0.456250X-0.243750X0.456250X0.243750X0*%
%ADD28C,1.400000*%
%ADD29O,1.400000X1.400000*%
G04 APERTURE END LIST*
D10*
%TO.C,rgate3*%
X60767100Y-32149700D03*
X62592100Y-32149700D03*
%TD*%
D11*
%TO.C,U1*%
X31882500Y-23180000D03*
X31882500Y-24130000D03*
X31882500Y-25080000D03*
X34157500Y-25080000D03*
X34157500Y-23180000D03*
%TD*%
D12*
%TO.C,J7*%
X40640000Y-35560000D03*
D13*
X43180000Y-35560000D03*
X45720000Y-35560000D03*
X48260000Y-35560000D03*
X50800000Y-35560000D03*
X53340000Y-35560000D03*
X55880000Y-35560000D03*
%TD*%
D10*
%TO.C,rgate4*%
X66767100Y-32149700D03*
X68592100Y-32149700D03*
%TD*%
D14*
%TO.C,C3*%
X40894000Y-29210000D03*
X38994000Y-29210000D03*
%TD*%
D15*
%TO.C,led7*%
X84742100Y-26053700D03*
X86617100Y-26053700D03*
%TD*%
D16*
%TO.C,J4*%
X24922500Y-26330000D03*
X24922500Y-32130000D03*
D17*
X26372500Y-25855000D03*
X26372500Y-26655000D03*
X26372500Y-27980000D03*
X26372500Y-28980000D03*
X26372500Y-29480000D03*
X26372500Y-30480000D03*
X26372500Y-31805000D03*
X26372500Y-32605000D03*
D18*
X26372500Y-32330000D03*
X26372500Y-31530000D03*
D17*
X26372500Y-30980000D03*
X26372500Y-29980000D03*
X26372500Y-28480000D03*
X26372500Y-27480000D03*
D18*
X26372500Y-26930000D03*
X26372500Y-26130000D03*
D19*
X25452500Y-24910000D03*
D20*
X21272500Y-24910000D03*
D19*
X25452500Y-33550000D03*
D20*
X21272500Y-33550000D03*
%TD*%
D10*
%TO.C,rgate2*%
X54767100Y-32149700D03*
X56592100Y-32149700D03*
%TD*%
D21*
%TO.C,q5*%
X72763600Y-30039200D03*
X74663600Y-30039200D03*
X73713600Y-28164200D03*
%TD*%
D22*
%TO.C,rled2*%
X58473600Y-30602200D03*
X58473600Y-32427200D03*
%TD*%
D23*
%TO.C,C1*%
X36830000Y-23246000D03*
X36830000Y-25146000D03*
%TD*%
D22*
%TO.C,rled6*%
X82473600Y-30602200D03*
X82473600Y-32427200D03*
%TD*%
D21*
%TO.C,q3*%
X60763600Y-30039200D03*
X62663600Y-30039200D03*
X61713600Y-28164200D03*
%TD*%
D15*
%TO.C,led5*%
X72742100Y-26053700D03*
X74617100Y-26053700D03*
%TD*%
D10*
%TO.C,rgate5*%
X72767100Y-32149700D03*
X74592100Y-32149700D03*
%TD*%
D24*
%TO.C,R2*%
X40856500Y-31496000D03*
X39031500Y-31496000D03*
%TD*%
D15*
%TO.C,led6*%
X78742100Y-26053700D03*
X80617100Y-26053700D03*
%TD*%
%TO.C,led4*%
X66742100Y-26053700D03*
X68617100Y-26053700D03*
%TD*%
D25*
%TO.C,dq5*%
X76727600Y-28973700D03*
X76727600Y-25673700D03*
%TD*%
D10*
%TO.C,rgate7*%
X84767100Y-32149700D03*
X86592100Y-32149700D03*
%TD*%
D15*
%TO.C,led2*%
X54742100Y-26053700D03*
X56617100Y-26053700D03*
%TD*%
D10*
%TO.C,rgate6*%
X78767100Y-32149700D03*
X80592100Y-32149700D03*
%TD*%
D25*
%TO.C,dq6*%
X82727600Y-28973700D03*
X82727600Y-25673700D03*
%TD*%
D22*
%TO.C,rled4*%
X70473600Y-30602200D03*
X70473600Y-32427200D03*
%TD*%
D25*
%TO.C,dq7*%
X88727600Y-28973700D03*
X88727600Y-25673700D03*
%TD*%
%TO.C,dq4*%
X70727600Y-28973700D03*
X70727600Y-25673700D03*
%TD*%
D12*
%TO.C,J9*%
X73660000Y-22860000D03*
D13*
X76200000Y-22860000D03*
X78740000Y-22860000D03*
X81280000Y-22860000D03*
X83820000Y-22860000D03*
X86360000Y-22860000D03*
X88900000Y-22860000D03*
X91440000Y-22860000D03*
%TD*%
D22*
%TO.C,rled5*%
X76473600Y-30602200D03*
X76473600Y-32427200D03*
%TD*%
D25*
%TO.C,dq3*%
X64727600Y-28973700D03*
X64727600Y-25673700D03*
%TD*%
D12*
%TO.C,J8*%
X55880000Y-22860000D03*
D13*
X53340000Y-22860000D03*
X50800000Y-22860000D03*
X48260000Y-22860000D03*
X45720000Y-22860000D03*
X43180000Y-22860000D03*
X40640000Y-22860000D03*
%TD*%
D22*
%TO.C,rled1*%
X52361100Y-30649700D03*
X52361100Y-32474700D03*
%TD*%
D25*
%TO.C,dq1*%
X52615100Y-29021200D03*
X52615100Y-25721200D03*
%TD*%
D12*
%TO.C,J6*%
X25400000Y-22860000D03*
D13*
X22860000Y-22860000D03*
%TD*%
D21*
%TO.C,q2*%
X54763600Y-30039200D03*
X56663600Y-30039200D03*
X55713600Y-28164200D03*
%TD*%
D25*
%TO.C,dq2*%
X58727600Y-28973700D03*
X58727600Y-25673700D03*
%TD*%
D12*
%TO.C,J1*%
X35560000Y-35560000D03*
D13*
X33020000Y-35560000D03*
X35560000Y-33020000D03*
X33020000Y-33020000D03*
X35560000Y-30480000D03*
X33020000Y-30480000D03*
%TD*%
D12*
%TO.C,J2*%
X60960000Y-22860000D03*
D13*
X63500000Y-22860000D03*
X66040000Y-22860000D03*
X68580000Y-22860000D03*
%TD*%
D10*
%TO.C,rgate1*%
X48654600Y-32197200D03*
X50479600Y-32197200D03*
%TD*%
D26*
%TO.C,U2*%
X42754000Y-32072500D03*
X43404000Y-32072500D03*
X44054000Y-32072500D03*
X44704000Y-32072500D03*
X45354000Y-32072500D03*
X46004000Y-32072500D03*
X46654000Y-32072500D03*
X46654000Y-26347500D03*
X46004000Y-26347500D03*
X45354000Y-26347500D03*
X44704000Y-26347500D03*
X44054000Y-26347500D03*
X43404000Y-26347500D03*
X42754000Y-26347500D03*
%TD*%
D15*
%TO.C,led1*%
X48629600Y-26101200D03*
X50504600Y-26101200D03*
%TD*%
D22*
%TO.C,rled3*%
X64473600Y-30602200D03*
X64473600Y-32427200D03*
%TD*%
D12*
%TO.C,J5*%
X25400000Y-35560000D03*
D13*
X22860000Y-35560000D03*
%TD*%
D10*
%TO.C,RLedON1*%
X29313500Y-27178000D03*
X31138500Y-27178000D03*
%TD*%
D12*
%TO.C,J3*%
X60960000Y-35560000D03*
D13*
X63500000Y-35560000D03*
X66040000Y-35560000D03*
X68580000Y-35560000D03*
%TD*%
D21*
%TO.C,q1*%
X48651100Y-30086700D03*
X50551100Y-30086700D03*
X49601100Y-28211700D03*
%TD*%
D27*
%TO.C,LedON1*%
X29464000Y-23343000D03*
X29464000Y-25218000D03*
%TD*%
D15*
%TO.C,led3*%
X60742100Y-26053700D03*
X62617100Y-26053700D03*
%TD*%
D28*
%TO.C,R1*%
X29083000Y-29464000D03*
D29*
X29083000Y-34544000D03*
%TD*%
D22*
%TO.C,rled7*%
X88473600Y-30602200D03*
X88473600Y-32427200D03*
%TD*%
D21*
%TO.C,q4*%
X66763600Y-30039200D03*
X68663600Y-30039200D03*
X67713600Y-28164200D03*
%TD*%
%TO.C,q6*%
X78763600Y-30039200D03*
X80663600Y-30039200D03*
X79713600Y-28164200D03*
%TD*%
%TO.C,q7*%
X84763600Y-30039200D03*
X86663600Y-30039200D03*
X85713600Y-28164200D03*
%TD*%
D14*
%TO.C,C2*%
X40894000Y-26924000D03*
X38994000Y-26924000D03*
%TD*%
M02*
