%TF.GenerationSoftware,KiCad,Pcbnew,8.0.6*%
%TF.CreationDate,2024-10-28T20:27:21+01:00*%
%TF.ProjectId,ATtiny3,41547469-6e79-4332-9b2e-6b696361645f,rev?*%
%TF.SameCoordinates,Original*%
%TF.FileFunction,Legend,Top*%
%TF.FilePolarity,Positive*%
%FSLAX46Y46*%
G04 Gerber Fmt 4.6, Leading zero omitted, Abs format (unit mm)*
G04 Created by KiCad (PCBNEW 8.0.6) date 2024-10-28 20:27:21*
%MOMM*%
%LPD*%
G01*
G04 APERTURE LIST*
G04 Aperture macros list*
%AMRoundRect*
0 Rectangle with rounded corners*
0 $1 Rounding radius*
0 $2 $3 $4 $5 $6 $7 $8 $9 X,Y pos of 4 corners*
0 Add a 4 corners polygon primitive as box body*
4,1,4,$2,$3,$4,$5,$6,$7,$8,$9,$2,$3,0*
0 Add four circle primitives for the rounded corners*
1,1,$1+$1,$2,$3*
1,1,$1+$1,$4,$5*
1,1,$1+$1,$6,$7*
1,1,$1+$1,$8,$9*
0 Add four rect primitives between the rounded corners*
20,1,$1+$1,$2,$3,$4,$5,0*
20,1,$1+$1,$4,$5,$6,$7,0*
20,1,$1+$1,$6,$7,$8,$9,0*
20,1,$1+$1,$8,$9,$2,$3,0*%
G04 Aperture macros list end*
%ADD10C,0.150000*%
%ADD11C,0.120000*%
%ADD12C,0.127000*%
%ADD13C,0.100000*%
%ADD14C,0.066040*%
%ADD15RoundRect,0.150000X-0.512500X-0.150000X0.512500X-0.150000X0.512500X0.150000X-0.512500X0.150000X0*%
%ADD16RoundRect,0.100000X0.100000X-0.637500X0.100000X0.637500X-0.100000X0.637500X-0.100000X-0.637500X0*%
%ADD17RoundRect,0.250000X-0.262500X-0.450000X0.262500X-0.450000X0.262500X0.450000X-0.262500X0.450000X0*%
%ADD18RoundRect,0.250000X-0.262500X-1.775000X0.262500X-1.775000X0.262500X1.775000X-0.262500X1.775000X0*%
%ADD19R,1.050000X0.600000*%
%ADD20R,0.889000X1.270000*%
%ADD21RoundRect,0.250000X-0.600000X-0.725000X0.600000X-0.725000X0.600000X0.725000X-0.600000X0.725000X0*%
%ADD22O,1.700000X1.950000*%
%ADD23RoundRect,0.243750X-0.243750X-0.456250X0.243750X-0.456250X0.243750X0.456250X-0.243750X0.456250X0*%
%ADD24RoundRect,0.250000X-0.250000X-0.475000X0.250000X-0.475000X0.250000X0.475000X-0.250000X0.475000X0*%
G04 APERTURE END LIST*
D10*
X20553495Y-23234819D02*
X20553495Y-24044342D01*
X20553495Y-24044342D02*
X20601114Y-24139580D01*
X20601114Y-24139580D02*
X20648733Y-24187200D01*
X20648733Y-24187200D02*
X20743971Y-24234819D01*
X20743971Y-24234819D02*
X20934447Y-24234819D01*
X20934447Y-24234819D02*
X21029685Y-24187200D01*
X21029685Y-24187200D02*
X21077304Y-24139580D01*
X21077304Y-24139580D02*
X21124923Y-24044342D01*
X21124923Y-24044342D02*
X21124923Y-23234819D01*
X21553495Y-23330057D02*
X21601114Y-23282438D01*
X21601114Y-23282438D02*
X21696352Y-23234819D01*
X21696352Y-23234819D02*
X21934447Y-23234819D01*
X21934447Y-23234819D02*
X22029685Y-23282438D01*
X22029685Y-23282438D02*
X22077304Y-23330057D01*
X22077304Y-23330057D02*
X22124923Y-23425295D01*
X22124923Y-23425295D02*
X22124923Y-23520533D01*
X22124923Y-23520533D02*
X22077304Y-23663390D01*
X22077304Y-23663390D02*
X21505876Y-24234819D01*
X21505876Y-24234819D02*
X22124923Y-24234819D01*
X28115219Y-27576904D02*
X28924742Y-27576904D01*
X28924742Y-27576904D02*
X29019980Y-27529285D01*
X29019980Y-27529285D02*
X29067600Y-27481666D01*
X29067600Y-27481666D02*
X29115219Y-27386428D01*
X29115219Y-27386428D02*
X29115219Y-27195952D01*
X29115219Y-27195952D02*
X29067600Y-27100714D01*
X29067600Y-27100714D02*
X29019980Y-27053095D01*
X29019980Y-27053095D02*
X28924742Y-27005476D01*
X28924742Y-27005476D02*
X28115219Y-27005476D01*
X29115219Y-26005476D02*
X29115219Y-26576904D01*
X29115219Y-26291190D02*
X28115219Y-26291190D01*
X28115219Y-26291190D02*
X28258076Y-26386428D01*
X28258076Y-26386428D02*
X28353314Y-26481666D01*
X28353314Y-26481666D02*
X28400933Y-26576904D01*
X95356590Y-37684819D02*
X95023257Y-37208628D01*
X94785162Y-37684819D02*
X94785162Y-36684819D01*
X94785162Y-36684819D02*
X95166114Y-36684819D01*
X95166114Y-36684819D02*
X95261352Y-36732438D01*
X95261352Y-36732438D02*
X95308971Y-36780057D01*
X95308971Y-36780057D02*
X95356590Y-36875295D01*
X95356590Y-36875295D02*
X95356590Y-37018152D01*
X95356590Y-37018152D02*
X95308971Y-37113390D01*
X95308971Y-37113390D02*
X95261352Y-37161009D01*
X95261352Y-37161009D02*
X95166114Y-37208628D01*
X95166114Y-37208628D02*
X94785162Y-37208628D01*
X96261352Y-37684819D02*
X95785162Y-37684819D01*
X95785162Y-37684819D02*
X95785162Y-36684819D01*
X96594686Y-37161009D02*
X96928019Y-37161009D01*
X97070876Y-37684819D02*
X96594686Y-37684819D01*
X96594686Y-37684819D02*
X96594686Y-36684819D01*
X96594686Y-36684819D02*
X97070876Y-36684819D01*
X97499448Y-37684819D02*
X97499448Y-36684819D01*
X97499448Y-36684819D02*
X97737543Y-36684819D01*
X97737543Y-36684819D02*
X97880400Y-36732438D01*
X97880400Y-36732438D02*
X97975638Y-36827676D01*
X97975638Y-36827676D02*
X98023257Y-36922914D01*
X98023257Y-36922914D02*
X98070876Y-37113390D01*
X98070876Y-37113390D02*
X98070876Y-37256247D01*
X98070876Y-37256247D02*
X98023257Y-37446723D01*
X98023257Y-37446723D02*
X97975638Y-37541961D01*
X97975638Y-37541961D02*
X97880400Y-37637200D01*
X97880400Y-37637200D02*
X97737543Y-37684819D01*
X97737543Y-37684819D02*
X97499448Y-37684819D01*
X98642305Y-37113390D02*
X98547067Y-37065771D01*
X98547067Y-37065771D02*
X98499448Y-37018152D01*
X98499448Y-37018152D02*
X98451829Y-36922914D01*
X98451829Y-36922914D02*
X98451829Y-36875295D01*
X98451829Y-36875295D02*
X98499448Y-36780057D01*
X98499448Y-36780057D02*
X98547067Y-36732438D01*
X98547067Y-36732438D02*
X98642305Y-36684819D01*
X98642305Y-36684819D02*
X98832781Y-36684819D01*
X98832781Y-36684819D02*
X98928019Y-36732438D01*
X98928019Y-36732438D02*
X98975638Y-36780057D01*
X98975638Y-36780057D02*
X99023257Y-36875295D01*
X99023257Y-36875295D02*
X99023257Y-36922914D01*
X99023257Y-36922914D02*
X98975638Y-37018152D01*
X98975638Y-37018152D02*
X98928019Y-37065771D01*
X98928019Y-37065771D02*
X98832781Y-37113390D01*
X98832781Y-37113390D02*
X98642305Y-37113390D01*
X98642305Y-37113390D02*
X98547067Y-37161009D01*
X98547067Y-37161009D02*
X98499448Y-37208628D01*
X98499448Y-37208628D02*
X98451829Y-37303866D01*
X98451829Y-37303866D02*
X98451829Y-37494342D01*
X98451829Y-37494342D02*
X98499448Y-37589580D01*
X98499448Y-37589580D02*
X98547067Y-37637200D01*
X98547067Y-37637200D02*
X98642305Y-37684819D01*
X98642305Y-37684819D02*
X98832781Y-37684819D01*
X98832781Y-37684819D02*
X98928019Y-37637200D01*
X98928019Y-37637200D02*
X98975638Y-37589580D01*
X98975638Y-37589580D02*
X99023257Y-37494342D01*
X99023257Y-37494342D02*
X99023257Y-37303866D01*
X99023257Y-37303866D02*
X98975638Y-37208628D01*
X98975638Y-37208628D02*
X98928019Y-37161009D01*
X98928019Y-37161009D02*
X98832781Y-37113390D01*
X85196590Y-37684819D02*
X84863257Y-37208628D01*
X84625162Y-37684819D02*
X84625162Y-36684819D01*
X84625162Y-36684819D02*
X85006114Y-36684819D01*
X85006114Y-36684819D02*
X85101352Y-36732438D01*
X85101352Y-36732438D02*
X85148971Y-36780057D01*
X85148971Y-36780057D02*
X85196590Y-36875295D01*
X85196590Y-36875295D02*
X85196590Y-37018152D01*
X85196590Y-37018152D02*
X85148971Y-37113390D01*
X85148971Y-37113390D02*
X85101352Y-37161009D01*
X85101352Y-37161009D02*
X85006114Y-37208628D01*
X85006114Y-37208628D02*
X84625162Y-37208628D01*
X86101352Y-37684819D02*
X85625162Y-37684819D01*
X85625162Y-37684819D02*
X85625162Y-36684819D01*
X86434686Y-37161009D02*
X86768019Y-37161009D01*
X86910876Y-37684819D02*
X86434686Y-37684819D01*
X86434686Y-37684819D02*
X86434686Y-36684819D01*
X86434686Y-36684819D02*
X86910876Y-36684819D01*
X87339448Y-37684819D02*
X87339448Y-36684819D01*
X87339448Y-36684819D02*
X87577543Y-36684819D01*
X87577543Y-36684819D02*
X87720400Y-36732438D01*
X87720400Y-36732438D02*
X87815638Y-36827676D01*
X87815638Y-36827676D02*
X87863257Y-36922914D01*
X87863257Y-36922914D02*
X87910876Y-37113390D01*
X87910876Y-37113390D02*
X87910876Y-37256247D01*
X87910876Y-37256247D02*
X87863257Y-37446723D01*
X87863257Y-37446723D02*
X87815638Y-37541961D01*
X87815638Y-37541961D02*
X87720400Y-37637200D01*
X87720400Y-37637200D02*
X87577543Y-37684819D01*
X87577543Y-37684819D02*
X87339448Y-37684819D01*
X88244210Y-36684819D02*
X88910876Y-36684819D01*
X88910876Y-36684819D02*
X88482305Y-37684819D01*
X74771190Y-37619819D02*
X74437857Y-37143628D01*
X74199762Y-37619819D02*
X74199762Y-36619819D01*
X74199762Y-36619819D02*
X74580714Y-36619819D01*
X74580714Y-36619819D02*
X74675952Y-36667438D01*
X74675952Y-36667438D02*
X74723571Y-36715057D01*
X74723571Y-36715057D02*
X74771190Y-36810295D01*
X74771190Y-36810295D02*
X74771190Y-36953152D01*
X74771190Y-36953152D02*
X74723571Y-37048390D01*
X74723571Y-37048390D02*
X74675952Y-37096009D01*
X74675952Y-37096009D02*
X74580714Y-37143628D01*
X74580714Y-37143628D02*
X74199762Y-37143628D01*
X75675952Y-37619819D02*
X75199762Y-37619819D01*
X75199762Y-37619819D02*
X75199762Y-36619819D01*
X76009286Y-37096009D02*
X76342619Y-37096009D01*
X76485476Y-37619819D02*
X76009286Y-37619819D01*
X76009286Y-37619819D02*
X76009286Y-36619819D01*
X76009286Y-36619819D02*
X76485476Y-36619819D01*
X76914048Y-37619819D02*
X76914048Y-36619819D01*
X76914048Y-36619819D02*
X77152143Y-36619819D01*
X77152143Y-36619819D02*
X77295000Y-36667438D01*
X77295000Y-36667438D02*
X77390238Y-36762676D01*
X77390238Y-36762676D02*
X77437857Y-36857914D01*
X77437857Y-36857914D02*
X77485476Y-37048390D01*
X77485476Y-37048390D02*
X77485476Y-37191247D01*
X77485476Y-37191247D02*
X77437857Y-37381723D01*
X77437857Y-37381723D02*
X77390238Y-37476961D01*
X77390238Y-37476961D02*
X77295000Y-37572200D01*
X77295000Y-37572200D02*
X77152143Y-37619819D01*
X77152143Y-37619819D02*
X76914048Y-37619819D01*
X78342619Y-36619819D02*
X78152143Y-36619819D01*
X78152143Y-36619819D02*
X78056905Y-36667438D01*
X78056905Y-36667438D02*
X78009286Y-36715057D01*
X78009286Y-36715057D02*
X77914048Y-36857914D01*
X77914048Y-36857914D02*
X77866429Y-37048390D01*
X77866429Y-37048390D02*
X77866429Y-37429342D01*
X77866429Y-37429342D02*
X77914048Y-37524580D01*
X77914048Y-37524580D02*
X77961667Y-37572200D01*
X77961667Y-37572200D02*
X78056905Y-37619819D01*
X78056905Y-37619819D02*
X78247381Y-37619819D01*
X78247381Y-37619819D02*
X78342619Y-37572200D01*
X78342619Y-37572200D02*
X78390238Y-37524580D01*
X78390238Y-37524580D02*
X78437857Y-37429342D01*
X78437857Y-37429342D02*
X78437857Y-37191247D01*
X78437857Y-37191247D02*
X78390238Y-37096009D01*
X78390238Y-37096009D02*
X78342619Y-37048390D01*
X78342619Y-37048390D02*
X78247381Y-37000771D01*
X78247381Y-37000771D02*
X78056905Y-37000771D01*
X78056905Y-37000771D02*
X77961667Y-37048390D01*
X77961667Y-37048390D02*
X77914048Y-37096009D01*
X77914048Y-37096009D02*
X77866429Y-37191247D01*
X64611190Y-37619819D02*
X64277857Y-37143628D01*
X64039762Y-37619819D02*
X64039762Y-36619819D01*
X64039762Y-36619819D02*
X64420714Y-36619819D01*
X64420714Y-36619819D02*
X64515952Y-36667438D01*
X64515952Y-36667438D02*
X64563571Y-36715057D01*
X64563571Y-36715057D02*
X64611190Y-36810295D01*
X64611190Y-36810295D02*
X64611190Y-36953152D01*
X64611190Y-36953152D02*
X64563571Y-37048390D01*
X64563571Y-37048390D02*
X64515952Y-37096009D01*
X64515952Y-37096009D02*
X64420714Y-37143628D01*
X64420714Y-37143628D02*
X64039762Y-37143628D01*
X65515952Y-37619819D02*
X65039762Y-37619819D01*
X65039762Y-37619819D02*
X65039762Y-36619819D01*
X65849286Y-37096009D02*
X66182619Y-37096009D01*
X66325476Y-37619819D02*
X65849286Y-37619819D01*
X65849286Y-37619819D02*
X65849286Y-36619819D01*
X65849286Y-36619819D02*
X66325476Y-36619819D01*
X66754048Y-37619819D02*
X66754048Y-36619819D01*
X66754048Y-36619819D02*
X66992143Y-36619819D01*
X66992143Y-36619819D02*
X67135000Y-36667438D01*
X67135000Y-36667438D02*
X67230238Y-36762676D01*
X67230238Y-36762676D02*
X67277857Y-36857914D01*
X67277857Y-36857914D02*
X67325476Y-37048390D01*
X67325476Y-37048390D02*
X67325476Y-37191247D01*
X67325476Y-37191247D02*
X67277857Y-37381723D01*
X67277857Y-37381723D02*
X67230238Y-37476961D01*
X67230238Y-37476961D02*
X67135000Y-37572200D01*
X67135000Y-37572200D02*
X66992143Y-37619819D01*
X66992143Y-37619819D02*
X66754048Y-37619819D01*
X68230238Y-36619819D02*
X67754048Y-36619819D01*
X67754048Y-36619819D02*
X67706429Y-37096009D01*
X67706429Y-37096009D02*
X67754048Y-37048390D01*
X67754048Y-37048390D02*
X67849286Y-37000771D01*
X67849286Y-37000771D02*
X68087381Y-37000771D01*
X68087381Y-37000771D02*
X68182619Y-37048390D01*
X68182619Y-37048390D02*
X68230238Y-37096009D01*
X68230238Y-37096009D02*
X68277857Y-37191247D01*
X68277857Y-37191247D02*
X68277857Y-37429342D01*
X68277857Y-37429342D02*
X68230238Y-37524580D01*
X68230238Y-37524580D02*
X68182619Y-37572200D01*
X68182619Y-37572200D02*
X68087381Y-37619819D01*
X68087381Y-37619819D02*
X67849286Y-37619819D01*
X67849286Y-37619819D02*
X67754048Y-37572200D01*
X67754048Y-37572200D02*
X67706429Y-37524580D01*
X54451190Y-37619819D02*
X54117857Y-37143628D01*
X53879762Y-37619819D02*
X53879762Y-36619819D01*
X53879762Y-36619819D02*
X54260714Y-36619819D01*
X54260714Y-36619819D02*
X54355952Y-36667438D01*
X54355952Y-36667438D02*
X54403571Y-36715057D01*
X54403571Y-36715057D02*
X54451190Y-36810295D01*
X54451190Y-36810295D02*
X54451190Y-36953152D01*
X54451190Y-36953152D02*
X54403571Y-37048390D01*
X54403571Y-37048390D02*
X54355952Y-37096009D01*
X54355952Y-37096009D02*
X54260714Y-37143628D01*
X54260714Y-37143628D02*
X53879762Y-37143628D01*
X55355952Y-37619819D02*
X54879762Y-37619819D01*
X54879762Y-37619819D02*
X54879762Y-36619819D01*
X55689286Y-37096009D02*
X56022619Y-37096009D01*
X56165476Y-37619819D02*
X55689286Y-37619819D01*
X55689286Y-37619819D02*
X55689286Y-36619819D01*
X55689286Y-36619819D02*
X56165476Y-36619819D01*
X56594048Y-37619819D02*
X56594048Y-36619819D01*
X56594048Y-36619819D02*
X56832143Y-36619819D01*
X56832143Y-36619819D02*
X56975000Y-36667438D01*
X56975000Y-36667438D02*
X57070238Y-36762676D01*
X57070238Y-36762676D02*
X57117857Y-36857914D01*
X57117857Y-36857914D02*
X57165476Y-37048390D01*
X57165476Y-37048390D02*
X57165476Y-37191247D01*
X57165476Y-37191247D02*
X57117857Y-37381723D01*
X57117857Y-37381723D02*
X57070238Y-37476961D01*
X57070238Y-37476961D02*
X56975000Y-37572200D01*
X56975000Y-37572200D02*
X56832143Y-37619819D01*
X56832143Y-37619819D02*
X56594048Y-37619819D01*
X58022619Y-36953152D02*
X58022619Y-37619819D01*
X57784524Y-36572200D02*
X57546429Y-37286485D01*
X57546429Y-37286485D02*
X58165476Y-37286485D01*
X44291190Y-37619819D02*
X43957857Y-37143628D01*
X43719762Y-37619819D02*
X43719762Y-36619819D01*
X43719762Y-36619819D02*
X44100714Y-36619819D01*
X44100714Y-36619819D02*
X44195952Y-36667438D01*
X44195952Y-36667438D02*
X44243571Y-36715057D01*
X44243571Y-36715057D02*
X44291190Y-36810295D01*
X44291190Y-36810295D02*
X44291190Y-36953152D01*
X44291190Y-36953152D02*
X44243571Y-37048390D01*
X44243571Y-37048390D02*
X44195952Y-37096009D01*
X44195952Y-37096009D02*
X44100714Y-37143628D01*
X44100714Y-37143628D02*
X43719762Y-37143628D01*
X45195952Y-37619819D02*
X44719762Y-37619819D01*
X44719762Y-37619819D02*
X44719762Y-36619819D01*
X45529286Y-37096009D02*
X45862619Y-37096009D01*
X46005476Y-37619819D02*
X45529286Y-37619819D01*
X45529286Y-37619819D02*
X45529286Y-36619819D01*
X45529286Y-36619819D02*
X46005476Y-36619819D01*
X46434048Y-37619819D02*
X46434048Y-36619819D01*
X46434048Y-36619819D02*
X46672143Y-36619819D01*
X46672143Y-36619819D02*
X46815000Y-36667438D01*
X46815000Y-36667438D02*
X46910238Y-36762676D01*
X46910238Y-36762676D02*
X46957857Y-36857914D01*
X46957857Y-36857914D02*
X47005476Y-37048390D01*
X47005476Y-37048390D02*
X47005476Y-37191247D01*
X47005476Y-37191247D02*
X46957857Y-37381723D01*
X46957857Y-37381723D02*
X46910238Y-37476961D01*
X46910238Y-37476961D02*
X46815000Y-37572200D01*
X46815000Y-37572200D02*
X46672143Y-37619819D01*
X46672143Y-37619819D02*
X46434048Y-37619819D01*
X47338810Y-36619819D02*
X47957857Y-36619819D01*
X47957857Y-36619819D02*
X47624524Y-37000771D01*
X47624524Y-37000771D02*
X47767381Y-37000771D01*
X47767381Y-37000771D02*
X47862619Y-37048390D01*
X47862619Y-37048390D02*
X47910238Y-37096009D01*
X47910238Y-37096009D02*
X47957857Y-37191247D01*
X47957857Y-37191247D02*
X47957857Y-37429342D01*
X47957857Y-37429342D02*
X47910238Y-37524580D01*
X47910238Y-37524580D02*
X47862619Y-37572200D01*
X47862619Y-37572200D02*
X47767381Y-37619819D01*
X47767381Y-37619819D02*
X47481667Y-37619819D01*
X47481667Y-37619819D02*
X47386429Y-37572200D01*
X47386429Y-37572200D02*
X47338810Y-37524580D01*
X34381590Y-37624819D02*
X34048257Y-37148628D01*
X33810162Y-37624819D02*
X33810162Y-36624819D01*
X33810162Y-36624819D02*
X34191114Y-36624819D01*
X34191114Y-36624819D02*
X34286352Y-36672438D01*
X34286352Y-36672438D02*
X34333971Y-36720057D01*
X34333971Y-36720057D02*
X34381590Y-36815295D01*
X34381590Y-36815295D02*
X34381590Y-36958152D01*
X34381590Y-36958152D02*
X34333971Y-37053390D01*
X34333971Y-37053390D02*
X34286352Y-37101009D01*
X34286352Y-37101009D02*
X34191114Y-37148628D01*
X34191114Y-37148628D02*
X33810162Y-37148628D01*
X35286352Y-37624819D02*
X34810162Y-37624819D01*
X34810162Y-37624819D02*
X34810162Y-36624819D01*
X35619686Y-37101009D02*
X35953019Y-37101009D01*
X36095876Y-37624819D02*
X35619686Y-37624819D01*
X35619686Y-37624819D02*
X35619686Y-36624819D01*
X35619686Y-36624819D02*
X36095876Y-36624819D01*
X36524448Y-37624819D02*
X36524448Y-36624819D01*
X36524448Y-36624819D02*
X36762543Y-36624819D01*
X36762543Y-36624819D02*
X36905400Y-36672438D01*
X36905400Y-36672438D02*
X37000638Y-36767676D01*
X37000638Y-36767676D02*
X37048257Y-36862914D01*
X37048257Y-36862914D02*
X37095876Y-37053390D01*
X37095876Y-37053390D02*
X37095876Y-37196247D01*
X37095876Y-37196247D02*
X37048257Y-37386723D01*
X37048257Y-37386723D02*
X37000638Y-37481961D01*
X37000638Y-37481961D02*
X36905400Y-37577200D01*
X36905400Y-37577200D02*
X36762543Y-37624819D01*
X36762543Y-37624819D02*
X36524448Y-37624819D01*
X37476829Y-36720057D02*
X37524448Y-36672438D01*
X37524448Y-36672438D02*
X37619686Y-36624819D01*
X37619686Y-36624819D02*
X37857781Y-36624819D01*
X37857781Y-36624819D02*
X37953019Y-36672438D01*
X37953019Y-36672438D02*
X38000638Y-36720057D01*
X38000638Y-36720057D02*
X38048257Y-36815295D01*
X38048257Y-36815295D02*
X38048257Y-36910533D01*
X38048257Y-36910533D02*
X38000638Y-37053390D01*
X38000638Y-37053390D02*
X37429210Y-37624819D01*
X37429210Y-37624819D02*
X38048257Y-37624819D01*
X24236590Y-37684819D02*
X23903257Y-37208628D01*
X23665162Y-37684819D02*
X23665162Y-36684819D01*
X23665162Y-36684819D02*
X24046114Y-36684819D01*
X24046114Y-36684819D02*
X24141352Y-36732438D01*
X24141352Y-36732438D02*
X24188971Y-36780057D01*
X24188971Y-36780057D02*
X24236590Y-36875295D01*
X24236590Y-36875295D02*
X24236590Y-37018152D01*
X24236590Y-37018152D02*
X24188971Y-37113390D01*
X24188971Y-37113390D02*
X24141352Y-37161009D01*
X24141352Y-37161009D02*
X24046114Y-37208628D01*
X24046114Y-37208628D02*
X23665162Y-37208628D01*
X25141352Y-37684819D02*
X24665162Y-37684819D01*
X24665162Y-37684819D02*
X24665162Y-36684819D01*
X25474686Y-37161009D02*
X25808019Y-37161009D01*
X25950876Y-37684819D02*
X25474686Y-37684819D01*
X25474686Y-37684819D02*
X25474686Y-36684819D01*
X25474686Y-36684819D02*
X25950876Y-36684819D01*
X26379448Y-37684819D02*
X26379448Y-36684819D01*
X26379448Y-36684819D02*
X26617543Y-36684819D01*
X26617543Y-36684819D02*
X26760400Y-36732438D01*
X26760400Y-36732438D02*
X26855638Y-36827676D01*
X26855638Y-36827676D02*
X26903257Y-36922914D01*
X26903257Y-36922914D02*
X26950876Y-37113390D01*
X26950876Y-37113390D02*
X26950876Y-37256247D01*
X26950876Y-37256247D02*
X26903257Y-37446723D01*
X26903257Y-37446723D02*
X26855638Y-37541961D01*
X26855638Y-37541961D02*
X26760400Y-37637200D01*
X26760400Y-37637200D02*
X26617543Y-37684819D01*
X26617543Y-37684819D02*
X26379448Y-37684819D01*
X27903257Y-37684819D02*
X27331829Y-37684819D01*
X27617543Y-37684819D02*
X27617543Y-36684819D01*
X27617543Y-36684819D02*
X27522305Y-36827676D01*
X27522305Y-36827676D02*
X27427067Y-36922914D01*
X27427067Y-36922914D02*
X27331829Y-36970533D01*
X92283733Y-37684819D02*
X91950400Y-37208628D01*
X91712305Y-37684819D02*
X91712305Y-36684819D01*
X91712305Y-36684819D02*
X92093257Y-36684819D01*
X92093257Y-36684819D02*
X92188495Y-36732438D01*
X92188495Y-36732438D02*
X92236114Y-36780057D01*
X92236114Y-36780057D02*
X92283733Y-36875295D01*
X92283733Y-36875295D02*
X92283733Y-37018152D01*
X92283733Y-37018152D02*
X92236114Y-37113390D01*
X92236114Y-37113390D02*
X92188495Y-37161009D01*
X92188495Y-37161009D02*
X92093257Y-37208628D01*
X92093257Y-37208628D02*
X91712305Y-37208628D01*
X92855162Y-37113390D02*
X92759924Y-37065771D01*
X92759924Y-37065771D02*
X92712305Y-37018152D01*
X92712305Y-37018152D02*
X92664686Y-36922914D01*
X92664686Y-36922914D02*
X92664686Y-36875295D01*
X92664686Y-36875295D02*
X92712305Y-36780057D01*
X92712305Y-36780057D02*
X92759924Y-36732438D01*
X92759924Y-36732438D02*
X92855162Y-36684819D01*
X92855162Y-36684819D02*
X93045638Y-36684819D01*
X93045638Y-36684819D02*
X93140876Y-36732438D01*
X93140876Y-36732438D02*
X93188495Y-36780057D01*
X93188495Y-36780057D02*
X93236114Y-36875295D01*
X93236114Y-36875295D02*
X93236114Y-36922914D01*
X93236114Y-36922914D02*
X93188495Y-37018152D01*
X93188495Y-37018152D02*
X93140876Y-37065771D01*
X93140876Y-37065771D02*
X93045638Y-37113390D01*
X93045638Y-37113390D02*
X92855162Y-37113390D01*
X92855162Y-37113390D02*
X92759924Y-37161009D01*
X92759924Y-37161009D02*
X92712305Y-37208628D01*
X92712305Y-37208628D02*
X92664686Y-37303866D01*
X92664686Y-37303866D02*
X92664686Y-37494342D01*
X92664686Y-37494342D02*
X92712305Y-37589580D01*
X92712305Y-37589580D02*
X92759924Y-37637200D01*
X92759924Y-37637200D02*
X92855162Y-37684819D01*
X92855162Y-37684819D02*
X93045638Y-37684819D01*
X93045638Y-37684819D02*
X93140876Y-37637200D01*
X93140876Y-37637200D02*
X93188495Y-37589580D01*
X93188495Y-37589580D02*
X93236114Y-37494342D01*
X93236114Y-37494342D02*
X93236114Y-37303866D01*
X93236114Y-37303866D02*
X93188495Y-37208628D01*
X93188495Y-37208628D02*
X93140876Y-37161009D01*
X93140876Y-37161009D02*
X93045638Y-37113390D01*
X82123733Y-37684819D02*
X81790400Y-37208628D01*
X81552305Y-37684819D02*
X81552305Y-36684819D01*
X81552305Y-36684819D02*
X81933257Y-36684819D01*
X81933257Y-36684819D02*
X82028495Y-36732438D01*
X82028495Y-36732438D02*
X82076114Y-36780057D01*
X82076114Y-36780057D02*
X82123733Y-36875295D01*
X82123733Y-36875295D02*
X82123733Y-37018152D01*
X82123733Y-37018152D02*
X82076114Y-37113390D01*
X82076114Y-37113390D02*
X82028495Y-37161009D01*
X82028495Y-37161009D02*
X81933257Y-37208628D01*
X81933257Y-37208628D02*
X81552305Y-37208628D01*
X82457067Y-36684819D02*
X83123733Y-36684819D01*
X83123733Y-36684819D02*
X82695162Y-37684819D01*
X71698333Y-37619819D02*
X71365000Y-37143628D01*
X71126905Y-37619819D02*
X71126905Y-36619819D01*
X71126905Y-36619819D02*
X71507857Y-36619819D01*
X71507857Y-36619819D02*
X71603095Y-36667438D01*
X71603095Y-36667438D02*
X71650714Y-36715057D01*
X71650714Y-36715057D02*
X71698333Y-36810295D01*
X71698333Y-36810295D02*
X71698333Y-36953152D01*
X71698333Y-36953152D02*
X71650714Y-37048390D01*
X71650714Y-37048390D02*
X71603095Y-37096009D01*
X71603095Y-37096009D02*
X71507857Y-37143628D01*
X71507857Y-37143628D02*
X71126905Y-37143628D01*
X72555476Y-36619819D02*
X72365000Y-36619819D01*
X72365000Y-36619819D02*
X72269762Y-36667438D01*
X72269762Y-36667438D02*
X72222143Y-36715057D01*
X72222143Y-36715057D02*
X72126905Y-36857914D01*
X72126905Y-36857914D02*
X72079286Y-37048390D01*
X72079286Y-37048390D02*
X72079286Y-37429342D01*
X72079286Y-37429342D02*
X72126905Y-37524580D01*
X72126905Y-37524580D02*
X72174524Y-37572200D01*
X72174524Y-37572200D02*
X72269762Y-37619819D01*
X72269762Y-37619819D02*
X72460238Y-37619819D01*
X72460238Y-37619819D02*
X72555476Y-37572200D01*
X72555476Y-37572200D02*
X72603095Y-37524580D01*
X72603095Y-37524580D02*
X72650714Y-37429342D01*
X72650714Y-37429342D02*
X72650714Y-37191247D01*
X72650714Y-37191247D02*
X72603095Y-37096009D01*
X72603095Y-37096009D02*
X72555476Y-37048390D01*
X72555476Y-37048390D02*
X72460238Y-37000771D01*
X72460238Y-37000771D02*
X72269762Y-37000771D01*
X72269762Y-37000771D02*
X72174524Y-37048390D01*
X72174524Y-37048390D02*
X72126905Y-37096009D01*
X72126905Y-37096009D02*
X72079286Y-37191247D01*
X61538333Y-37619819D02*
X61205000Y-37143628D01*
X60966905Y-37619819D02*
X60966905Y-36619819D01*
X60966905Y-36619819D02*
X61347857Y-36619819D01*
X61347857Y-36619819D02*
X61443095Y-36667438D01*
X61443095Y-36667438D02*
X61490714Y-36715057D01*
X61490714Y-36715057D02*
X61538333Y-36810295D01*
X61538333Y-36810295D02*
X61538333Y-36953152D01*
X61538333Y-36953152D02*
X61490714Y-37048390D01*
X61490714Y-37048390D02*
X61443095Y-37096009D01*
X61443095Y-37096009D02*
X61347857Y-37143628D01*
X61347857Y-37143628D02*
X60966905Y-37143628D01*
X62443095Y-36619819D02*
X61966905Y-36619819D01*
X61966905Y-36619819D02*
X61919286Y-37096009D01*
X61919286Y-37096009D02*
X61966905Y-37048390D01*
X61966905Y-37048390D02*
X62062143Y-37000771D01*
X62062143Y-37000771D02*
X62300238Y-37000771D01*
X62300238Y-37000771D02*
X62395476Y-37048390D01*
X62395476Y-37048390D02*
X62443095Y-37096009D01*
X62443095Y-37096009D02*
X62490714Y-37191247D01*
X62490714Y-37191247D02*
X62490714Y-37429342D01*
X62490714Y-37429342D02*
X62443095Y-37524580D01*
X62443095Y-37524580D02*
X62395476Y-37572200D01*
X62395476Y-37572200D02*
X62300238Y-37619819D01*
X62300238Y-37619819D02*
X62062143Y-37619819D01*
X62062143Y-37619819D02*
X61966905Y-37572200D01*
X61966905Y-37572200D02*
X61919286Y-37524580D01*
X51378333Y-37619819D02*
X51045000Y-37143628D01*
X50806905Y-37619819D02*
X50806905Y-36619819D01*
X50806905Y-36619819D02*
X51187857Y-36619819D01*
X51187857Y-36619819D02*
X51283095Y-36667438D01*
X51283095Y-36667438D02*
X51330714Y-36715057D01*
X51330714Y-36715057D02*
X51378333Y-36810295D01*
X51378333Y-36810295D02*
X51378333Y-36953152D01*
X51378333Y-36953152D02*
X51330714Y-37048390D01*
X51330714Y-37048390D02*
X51283095Y-37096009D01*
X51283095Y-37096009D02*
X51187857Y-37143628D01*
X51187857Y-37143628D02*
X50806905Y-37143628D01*
X52235476Y-36953152D02*
X52235476Y-37619819D01*
X51997381Y-36572200D02*
X51759286Y-37286485D01*
X51759286Y-37286485D02*
X52378333Y-37286485D01*
X41218333Y-37619819D02*
X40885000Y-37143628D01*
X40646905Y-37619819D02*
X40646905Y-36619819D01*
X40646905Y-36619819D02*
X41027857Y-36619819D01*
X41027857Y-36619819D02*
X41123095Y-36667438D01*
X41123095Y-36667438D02*
X41170714Y-36715057D01*
X41170714Y-36715057D02*
X41218333Y-36810295D01*
X41218333Y-36810295D02*
X41218333Y-36953152D01*
X41218333Y-36953152D02*
X41170714Y-37048390D01*
X41170714Y-37048390D02*
X41123095Y-37096009D01*
X41123095Y-37096009D02*
X41027857Y-37143628D01*
X41027857Y-37143628D02*
X40646905Y-37143628D01*
X41551667Y-36619819D02*
X42170714Y-36619819D01*
X42170714Y-36619819D02*
X41837381Y-37000771D01*
X41837381Y-37000771D02*
X41980238Y-37000771D01*
X41980238Y-37000771D02*
X42075476Y-37048390D01*
X42075476Y-37048390D02*
X42123095Y-37096009D01*
X42123095Y-37096009D02*
X42170714Y-37191247D01*
X42170714Y-37191247D02*
X42170714Y-37429342D01*
X42170714Y-37429342D02*
X42123095Y-37524580D01*
X42123095Y-37524580D02*
X42075476Y-37572200D01*
X42075476Y-37572200D02*
X41980238Y-37619819D01*
X41980238Y-37619819D02*
X41694524Y-37619819D01*
X41694524Y-37619819D02*
X41599286Y-37572200D01*
X41599286Y-37572200D02*
X41551667Y-37524580D01*
X31308733Y-37624819D02*
X30975400Y-37148628D01*
X30737305Y-37624819D02*
X30737305Y-36624819D01*
X30737305Y-36624819D02*
X31118257Y-36624819D01*
X31118257Y-36624819D02*
X31213495Y-36672438D01*
X31213495Y-36672438D02*
X31261114Y-36720057D01*
X31261114Y-36720057D02*
X31308733Y-36815295D01*
X31308733Y-36815295D02*
X31308733Y-36958152D01*
X31308733Y-36958152D02*
X31261114Y-37053390D01*
X31261114Y-37053390D02*
X31213495Y-37101009D01*
X31213495Y-37101009D02*
X31118257Y-37148628D01*
X31118257Y-37148628D02*
X30737305Y-37148628D01*
X31689686Y-36720057D02*
X31737305Y-36672438D01*
X31737305Y-36672438D02*
X31832543Y-36624819D01*
X31832543Y-36624819D02*
X32070638Y-36624819D01*
X32070638Y-36624819D02*
X32165876Y-36672438D01*
X32165876Y-36672438D02*
X32213495Y-36720057D01*
X32213495Y-36720057D02*
X32261114Y-36815295D01*
X32261114Y-36815295D02*
X32261114Y-36910533D01*
X32261114Y-36910533D02*
X32213495Y-37053390D01*
X32213495Y-37053390D02*
X31642067Y-37624819D01*
X31642067Y-37624819D02*
X32261114Y-37624819D01*
X21163733Y-37684819D02*
X20830400Y-37208628D01*
X20592305Y-37684819D02*
X20592305Y-36684819D01*
X20592305Y-36684819D02*
X20973257Y-36684819D01*
X20973257Y-36684819D02*
X21068495Y-36732438D01*
X21068495Y-36732438D02*
X21116114Y-36780057D01*
X21116114Y-36780057D02*
X21163733Y-36875295D01*
X21163733Y-36875295D02*
X21163733Y-37018152D01*
X21163733Y-37018152D02*
X21116114Y-37113390D01*
X21116114Y-37113390D02*
X21068495Y-37161009D01*
X21068495Y-37161009D02*
X20973257Y-37208628D01*
X20973257Y-37208628D02*
X20592305Y-37208628D01*
X22116114Y-37684819D02*
X21544686Y-37684819D01*
X21830400Y-37684819D02*
X21830400Y-36684819D01*
X21830400Y-36684819D02*
X21735162Y-36827676D01*
X21735162Y-36827676D02*
X21639924Y-36922914D01*
X21639924Y-36922914D02*
X21544686Y-36970533D01*
X93737619Y-32771071D02*
X93676621Y-32740572D01*
X93676621Y-32740572D02*
X93615623Y-32679575D01*
X93615623Y-32679575D02*
X93524127Y-32588078D01*
X93524127Y-32588078D02*
X93463129Y-32557579D01*
X93463129Y-32557579D02*
X93402131Y-32557579D01*
X93432630Y-32710073D02*
X93371633Y-32679575D01*
X93371633Y-32679575D02*
X93310635Y-32618577D01*
X93310635Y-32618577D02*
X93280136Y-32496581D01*
X93280136Y-32496581D02*
X93280136Y-32283089D01*
X93280136Y-32283089D02*
X93310635Y-32161094D01*
X93310635Y-32161094D02*
X93371633Y-32100096D01*
X93371633Y-32100096D02*
X93432630Y-32069597D01*
X93432630Y-32069597D02*
X93554626Y-32069597D01*
X93554626Y-32069597D02*
X93615623Y-32100096D01*
X93615623Y-32100096D02*
X93676621Y-32161094D01*
X93676621Y-32161094D02*
X93707120Y-32283089D01*
X93707120Y-32283089D02*
X93707120Y-32496581D01*
X93707120Y-32496581D02*
X93676621Y-32618577D01*
X93676621Y-32618577D02*
X93615623Y-32679575D01*
X93615623Y-32679575D02*
X93554626Y-32710073D01*
X93554626Y-32710073D02*
X93432630Y-32710073D01*
X94073106Y-32344087D02*
X94012109Y-32313588D01*
X94012109Y-32313588D02*
X93981610Y-32283089D01*
X93981610Y-32283089D02*
X93951111Y-32222092D01*
X93951111Y-32222092D02*
X93951111Y-32191593D01*
X93951111Y-32191593D02*
X93981610Y-32130595D01*
X93981610Y-32130595D02*
X94012109Y-32100096D01*
X94012109Y-32100096D02*
X94073106Y-32069597D01*
X94073106Y-32069597D02*
X94195102Y-32069597D01*
X94195102Y-32069597D02*
X94256100Y-32100096D01*
X94256100Y-32100096D02*
X94286598Y-32130595D01*
X94286598Y-32130595D02*
X94317097Y-32191593D01*
X94317097Y-32191593D02*
X94317097Y-32222092D01*
X94317097Y-32222092D02*
X94286598Y-32283089D01*
X94286598Y-32283089D02*
X94256100Y-32313588D01*
X94256100Y-32313588D02*
X94195102Y-32344087D01*
X94195102Y-32344087D02*
X94073106Y-32344087D01*
X94073106Y-32344087D02*
X94012109Y-32374586D01*
X94012109Y-32374586D02*
X93981610Y-32405085D01*
X93981610Y-32405085D02*
X93951111Y-32466083D01*
X93951111Y-32466083D02*
X93951111Y-32588078D01*
X93951111Y-32588078D02*
X93981610Y-32649076D01*
X93981610Y-32649076D02*
X94012109Y-32679575D01*
X94012109Y-32679575D02*
X94073106Y-32710073D01*
X94073106Y-32710073D02*
X94195102Y-32710073D01*
X94195102Y-32710073D02*
X94256100Y-32679575D01*
X94256100Y-32679575D02*
X94286598Y-32649076D01*
X94286598Y-32649076D02*
X94317097Y-32588078D01*
X94317097Y-32588078D02*
X94317097Y-32466083D01*
X94317097Y-32466083D02*
X94286598Y-32405085D01*
X94286598Y-32405085D02*
X94256100Y-32374586D01*
X94256100Y-32374586D02*
X94195102Y-32344087D01*
X83577619Y-32771071D02*
X83516621Y-32740572D01*
X83516621Y-32740572D02*
X83455623Y-32679575D01*
X83455623Y-32679575D02*
X83364127Y-32588078D01*
X83364127Y-32588078D02*
X83303129Y-32557579D01*
X83303129Y-32557579D02*
X83242131Y-32557579D01*
X83272630Y-32710073D02*
X83211633Y-32679575D01*
X83211633Y-32679575D02*
X83150635Y-32618577D01*
X83150635Y-32618577D02*
X83120136Y-32496581D01*
X83120136Y-32496581D02*
X83120136Y-32283089D01*
X83120136Y-32283089D02*
X83150635Y-32161094D01*
X83150635Y-32161094D02*
X83211633Y-32100096D01*
X83211633Y-32100096D02*
X83272630Y-32069597D01*
X83272630Y-32069597D02*
X83394626Y-32069597D01*
X83394626Y-32069597D02*
X83455623Y-32100096D01*
X83455623Y-32100096D02*
X83516621Y-32161094D01*
X83516621Y-32161094D02*
X83547120Y-32283089D01*
X83547120Y-32283089D02*
X83547120Y-32496581D01*
X83547120Y-32496581D02*
X83516621Y-32618577D01*
X83516621Y-32618577D02*
X83455623Y-32679575D01*
X83455623Y-32679575D02*
X83394626Y-32710073D01*
X83394626Y-32710073D02*
X83272630Y-32710073D01*
X83760612Y-32069597D02*
X84187596Y-32069597D01*
X84187596Y-32069597D02*
X83913106Y-32710073D01*
X73152219Y-32706071D02*
X73091221Y-32675572D01*
X73091221Y-32675572D02*
X73030223Y-32614575D01*
X73030223Y-32614575D02*
X72938727Y-32523078D01*
X72938727Y-32523078D02*
X72877729Y-32492579D01*
X72877729Y-32492579D02*
X72816731Y-32492579D01*
X72847230Y-32645073D02*
X72786233Y-32614575D01*
X72786233Y-32614575D02*
X72725235Y-32553577D01*
X72725235Y-32553577D02*
X72694736Y-32431581D01*
X72694736Y-32431581D02*
X72694736Y-32218089D01*
X72694736Y-32218089D02*
X72725235Y-32096094D01*
X72725235Y-32096094D02*
X72786233Y-32035096D01*
X72786233Y-32035096D02*
X72847230Y-32004597D01*
X72847230Y-32004597D02*
X72969226Y-32004597D01*
X72969226Y-32004597D02*
X73030223Y-32035096D01*
X73030223Y-32035096D02*
X73091221Y-32096094D01*
X73091221Y-32096094D02*
X73121720Y-32218089D01*
X73121720Y-32218089D02*
X73121720Y-32431581D01*
X73121720Y-32431581D02*
X73091221Y-32553577D01*
X73091221Y-32553577D02*
X73030223Y-32614575D01*
X73030223Y-32614575D02*
X72969226Y-32645073D01*
X72969226Y-32645073D02*
X72847230Y-32645073D01*
X73670700Y-32004597D02*
X73548704Y-32004597D01*
X73548704Y-32004597D02*
X73487706Y-32035096D01*
X73487706Y-32035096D02*
X73457208Y-32065595D01*
X73457208Y-32065595D02*
X73396210Y-32157092D01*
X73396210Y-32157092D02*
X73365711Y-32279087D01*
X73365711Y-32279087D02*
X73365711Y-32523078D01*
X73365711Y-32523078D02*
X73396210Y-32584076D01*
X73396210Y-32584076D02*
X73426709Y-32614575D01*
X73426709Y-32614575D02*
X73487706Y-32645073D01*
X73487706Y-32645073D02*
X73609702Y-32645073D01*
X73609702Y-32645073D02*
X73670700Y-32614575D01*
X73670700Y-32614575D02*
X73701198Y-32584076D01*
X73701198Y-32584076D02*
X73731697Y-32523078D01*
X73731697Y-32523078D02*
X73731697Y-32370584D01*
X73731697Y-32370584D02*
X73701198Y-32309586D01*
X73701198Y-32309586D02*
X73670700Y-32279087D01*
X73670700Y-32279087D02*
X73609702Y-32248588D01*
X73609702Y-32248588D02*
X73487706Y-32248588D01*
X73487706Y-32248588D02*
X73426709Y-32279087D01*
X73426709Y-32279087D02*
X73396210Y-32309586D01*
X73396210Y-32309586D02*
X73365711Y-32370584D01*
X62992219Y-32706071D02*
X62931221Y-32675572D01*
X62931221Y-32675572D02*
X62870223Y-32614575D01*
X62870223Y-32614575D02*
X62778727Y-32523078D01*
X62778727Y-32523078D02*
X62717729Y-32492579D01*
X62717729Y-32492579D02*
X62656731Y-32492579D01*
X62687230Y-32645073D02*
X62626233Y-32614575D01*
X62626233Y-32614575D02*
X62565235Y-32553577D01*
X62565235Y-32553577D02*
X62534736Y-32431581D01*
X62534736Y-32431581D02*
X62534736Y-32218089D01*
X62534736Y-32218089D02*
X62565235Y-32096094D01*
X62565235Y-32096094D02*
X62626233Y-32035096D01*
X62626233Y-32035096D02*
X62687230Y-32004597D01*
X62687230Y-32004597D02*
X62809226Y-32004597D01*
X62809226Y-32004597D02*
X62870223Y-32035096D01*
X62870223Y-32035096D02*
X62931221Y-32096094D01*
X62931221Y-32096094D02*
X62961720Y-32218089D01*
X62961720Y-32218089D02*
X62961720Y-32431581D01*
X62961720Y-32431581D02*
X62931221Y-32553577D01*
X62931221Y-32553577D02*
X62870223Y-32614575D01*
X62870223Y-32614575D02*
X62809226Y-32645073D01*
X62809226Y-32645073D02*
X62687230Y-32645073D01*
X63541198Y-32004597D02*
X63236210Y-32004597D01*
X63236210Y-32004597D02*
X63205711Y-32309586D01*
X63205711Y-32309586D02*
X63236210Y-32279087D01*
X63236210Y-32279087D02*
X63297208Y-32248588D01*
X63297208Y-32248588D02*
X63449702Y-32248588D01*
X63449702Y-32248588D02*
X63510700Y-32279087D01*
X63510700Y-32279087D02*
X63541198Y-32309586D01*
X63541198Y-32309586D02*
X63571697Y-32370584D01*
X63571697Y-32370584D02*
X63571697Y-32523078D01*
X63571697Y-32523078D02*
X63541198Y-32584076D01*
X63541198Y-32584076D02*
X63510700Y-32614575D01*
X63510700Y-32614575D02*
X63449702Y-32645073D01*
X63449702Y-32645073D02*
X63297208Y-32645073D01*
X63297208Y-32645073D02*
X63236210Y-32614575D01*
X63236210Y-32614575D02*
X63205711Y-32584076D01*
X52832219Y-32706071D02*
X52771221Y-32675572D01*
X52771221Y-32675572D02*
X52710223Y-32614575D01*
X52710223Y-32614575D02*
X52618727Y-32523078D01*
X52618727Y-32523078D02*
X52557729Y-32492579D01*
X52557729Y-32492579D02*
X52496731Y-32492579D01*
X52527230Y-32645073D02*
X52466233Y-32614575D01*
X52466233Y-32614575D02*
X52405235Y-32553577D01*
X52405235Y-32553577D02*
X52374736Y-32431581D01*
X52374736Y-32431581D02*
X52374736Y-32218089D01*
X52374736Y-32218089D02*
X52405235Y-32096094D01*
X52405235Y-32096094D02*
X52466233Y-32035096D01*
X52466233Y-32035096D02*
X52527230Y-32004597D01*
X52527230Y-32004597D02*
X52649226Y-32004597D01*
X52649226Y-32004597D02*
X52710223Y-32035096D01*
X52710223Y-32035096D02*
X52771221Y-32096094D01*
X52771221Y-32096094D02*
X52801720Y-32218089D01*
X52801720Y-32218089D02*
X52801720Y-32431581D01*
X52801720Y-32431581D02*
X52771221Y-32553577D01*
X52771221Y-32553577D02*
X52710223Y-32614575D01*
X52710223Y-32614575D02*
X52649226Y-32645073D01*
X52649226Y-32645073D02*
X52527230Y-32645073D01*
X53350700Y-32218089D02*
X53350700Y-32645073D01*
X53198205Y-31974099D02*
X53045711Y-32431581D01*
X53045711Y-32431581D02*
X53442196Y-32431581D01*
X42672219Y-32706071D02*
X42611221Y-32675572D01*
X42611221Y-32675572D02*
X42550223Y-32614575D01*
X42550223Y-32614575D02*
X42458727Y-32523078D01*
X42458727Y-32523078D02*
X42397729Y-32492579D01*
X42397729Y-32492579D02*
X42336731Y-32492579D01*
X42367230Y-32645073D02*
X42306233Y-32614575D01*
X42306233Y-32614575D02*
X42245235Y-32553577D01*
X42245235Y-32553577D02*
X42214736Y-32431581D01*
X42214736Y-32431581D02*
X42214736Y-32218089D01*
X42214736Y-32218089D02*
X42245235Y-32096094D01*
X42245235Y-32096094D02*
X42306233Y-32035096D01*
X42306233Y-32035096D02*
X42367230Y-32004597D01*
X42367230Y-32004597D02*
X42489226Y-32004597D01*
X42489226Y-32004597D02*
X42550223Y-32035096D01*
X42550223Y-32035096D02*
X42611221Y-32096094D01*
X42611221Y-32096094D02*
X42641720Y-32218089D01*
X42641720Y-32218089D02*
X42641720Y-32431581D01*
X42641720Y-32431581D02*
X42611221Y-32553577D01*
X42611221Y-32553577D02*
X42550223Y-32614575D01*
X42550223Y-32614575D02*
X42489226Y-32645073D01*
X42489226Y-32645073D02*
X42367230Y-32645073D01*
X42855212Y-32004597D02*
X43251697Y-32004597D01*
X43251697Y-32004597D02*
X43038205Y-32248588D01*
X43038205Y-32248588D02*
X43129702Y-32248588D01*
X43129702Y-32248588D02*
X43190700Y-32279087D01*
X43190700Y-32279087D02*
X43221198Y-32309586D01*
X43221198Y-32309586D02*
X43251697Y-32370584D01*
X43251697Y-32370584D02*
X43251697Y-32523078D01*
X43251697Y-32523078D02*
X43221198Y-32584076D01*
X43221198Y-32584076D02*
X43190700Y-32614575D01*
X43190700Y-32614575D02*
X43129702Y-32645073D01*
X43129702Y-32645073D02*
X42946709Y-32645073D01*
X42946709Y-32645073D02*
X42885711Y-32614575D01*
X42885711Y-32614575D02*
X42855212Y-32584076D01*
X32762619Y-32711071D02*
X32701621Y-32680572D01*
X32701621Y-32680572D02*
X32640623Y-32619575D01*
X32640623Y-32619575D02*
X32549127Y-32528078D01*
X32549127Y-32528078D02*
X32488129Y-32497579D01*
X32488129Y-32497579D02*
X32427131Y-32497579D01*
X32457630Y-32650073D02*
X32396633Y-32619575D01*
X32396633Y-32619575D02*
X32335635Y-32558577D01*
X32335635Y-32558577D02*
X32305136Y-32436581D01*
X32305136Y-32436581D02*
X32305136Y-32223089D01*
X32305136Y-32223089D02*
X32335635Y-32101094D01*
X32335635Y-32101094D02*
X32396633Y-32040096D01*
X32396633Y-32040096D02*
X32457630Y-32009597D01*
X32457630Y-32009597D02*
X32579626Y-32009597D01*
X32579626Y-32009597D02*
X32640623Y-32040096D01*
X32640623Y-32040096D02*
X32701621Y-32101094D01*
X32701621Y-32101094D02*
X32732120Y-32223089D01*
X32732120Y-32223089D02*
X32732120Y-32436581D01*
X32732120Y-32436581D02*
X32701621Y-32558577D01*
X32701621Y-32558577D02*
X32640623Y-32619575D01*
X32640623Y-32619575D02*
X32579626Y-32650073D01*
X32579626Y-32650073D02*
X32457630Y-32650073D01*
X32976111Y-32070595D02*
X33006610Y-32040096D01*
X33006610Y-32040096D02*
X33067608Y-32009597D01*
X33067608Y-32009597D02*
X33220102Y-32009597D01*
X33220102Y-32009597D02*
X33281100Y-32040096D01*
X33281100Y-32040096D02*
X33311598Y-32070595D01*
X33311598Y-32070595D02*
X33342097Y-32131593D01*
X33342097Y-32131593D02*
X33342097Y-32192591D01*
X33342097Y-32192591D02*
X33311598Y-32284087D01*
X33311598Y-32284087D02*
X32945612Y-32650073D01*
X32945612Y-32650073D02*
X33342097Y-32650073D01*
X22617619Y-32771071D02*
X22556621Y-32740572D01*
X22556621Y-32740572D02*
X22495623Y-32679575D01*
X22495623Y-32679575D02*
X22404127Y-32588078D01*
X22404127Y-32588078D02*
X22343129Y-32557579D01*
X22343129Y-32557579D02*
X22282131Y-32557579D01*
X22312630Y-32710073D02*
X22251633Y-32679575D01*
X22251633Y-32679575D02*
X22190635Y-32618577D01*
X22190635Y-32618577D02*
X22160136Y-32496581D01*
X22160136Y-32496581D02*
X22160136Y-32283089D01*
X22160136Y-32283089D02*
X22190635Y-32161094D01*
X22190635Y-32161094D02*
X22251633Y-32100096D01*
X22251633Y-32100096D02*
X22312630Y-32069597D01*
X22312630Y-32069597D02*
X22434626Y-32069597D01*
X22434626Y-32069597D02*
X22495623Y-32100096D01*
X22495623Y-32100096D02*
X22556621Y-32161094D01*
X22556621Y-32161094D02*
X22587120Y-32283089D01*
X22587120Y-32283089D02*
X22587120Y-32496581D01*
X22587120Y-32496581D02*
X22556621Y-32618577D01*
X22556621Y-32618577D02*
X22495623Y-32679575D01*
X22495623Y-32679575D02*
X22434626Y-32710073D01*
X22434626Y-32710073D02*
X22312630Y-32710073D01*
X23197097Y-32710073D02*
X22831111Y-32710073D01*
X23014104Y-32710073D02*
X23014104Y-32069597D01*
X23014104Y-32069597D02*
X22953106Y-32161094D01*
X22953106Y-32161094D02*
X22892109Y-32222092D01*
X22892109Y-32222092D02*
X22831111Y-32252591D01*
X94691352Y-40484319D02*
X94215162Y-40484319D01*
X94215162Y-40484319D02*
X94215162Y-39484319D01*
X95024686Y-39960509D02*
X95358019Y-39960509D01*
X95500876Y-40484319D02*
X95024686Y-40484319D01*
X95024686Y-40484319D02*
X95024686Y-39484319D01*
X95024686Y-39484319D02*
X95500876Y-39484319D01*
X95929448Y-40484319D02*
X95929448Y-39484319D01*
X95929448Y-39484319D02*
X96167543Y-39484319D01*
X96167543Y-39484319D02*
X96310400Y-39531938D01*
X96310400Y-39531938D02*
X96405638Y-39627176D01*
X96405638Y-39627176D02*
X96453257Y-39722414D01*
X96453257Y-39722414D02*
X96500876Y-39912890D01*
X96500876Y-39912890D02*
X96500876Y-40055747D01*
X96500876Y-40055747D02*
X96453257Y-40246223D01*
X96453257Y-40246223D02*
X96405638Y-40341461D01*
X96405638Y-40341461D02*
X96310400Y-40436700D01*
X96310400Y-40436700D02*
X96167543Y-40484319D01*
X96167543Y-40484319D02*
X95929448Y-40484319D01*
X97072305Y-39912890D02*
X96977067Y-39865271D01*
X96977067Y-39865271D02*
X96929448Y-39817652D01*
X96929448Y-39817652D02*
X96881829Y-39722414D01*
X96881829Y-39722414D02*
X96881829Y-39674795D01*
X96881829Y-39674795D02*
X96929448Y-39579557D01*
X96929448Y-39579557D02*
X96977067Y-39531938D01*
X96977067Y-39531938D02*
X97072305Y-39484319D01*
X97072305Y-39484319D02*
X97262781Y-39484319D01*
X97262781Y-39484319D02*
X97358019Y-39531938D01*
X97358019Y-39531938D02*
X97405638Y-39579557D01*
X97405638Y-39579557D02*
X97453257Y-39674795D01*
X97453257Y-39674795D02*
X97453257Y-39722414D01*
X97453257Y-39722414D02*
X97405638Y-39817652D01*
X97405638Y-39817652D02*
X97358019Y-39865271D01*
X97358019Y-39865271D02*
X97262781Y-39912890D01*
X97262781Y-39912890D02*
X97072305Y-39912890D01*
X97072305Y-39912890D02*
X96977067Y-39960509D01*
X96977067Y-39960509D02*
X96929448Y-40008128D01*
X96929448Y-40008128D02*
X96881829Y-40103366D01*
X96881829Y-40103366D02*
X96881829Y-40293842D01*
X96881829Y-40293842D02*
X96929448Y-40389080D01*
X96929448Y-40389080D02*
X96977067Y-40436700D01*
X96977067Y-40436700D02*
X97072305Y-40484319D01*
X97072305Y-40484319D02*
X97262781Y-40484319D01*
X97262781Y-40484319D02*
X97358019Y-40436700D01*
X97358019Y-40436700D02*
X97405638Y-40389080D01*
X97405638Y-40389080D02*
X97453257Y-40293842D01*
X97453257Y-40293842D02*
X97453257Y-40103366D01*
X97453257Y-40103366D02*
X97405638Y-40008128D01*
X97405638Y-40008128D02*
X97358019Y-39960509D01*
X97358019Y-39960509D02*
X97262781Y-39912890D01*
X84531352Y-40484319D02*
X84055162Y-40484319D01*
X84055162Y-40484319D02*
X84055162Y-39484319D01*
X84864686Y-39960509D02*
X85198019Y-39960509D01*
X85340876Y-40484319D02*
X84864686Y-40484319D01*
X84864686Y-40484319D02*
X84864686Y-39484319D01*
X84864686Y-39484319D02*
X85340876Y-39484319D01*
X85769448Y-40484319D02*
X85769448Y-39484319D01*
X85769448Y-39484319D02*
X86007543Y-39484319D01*
X86007543Y-39484319D02*
X86150400Y-39531938D01*
X86150400Y-39531938D02*
X86245638Y-39627176D01*
X86245638Y-39627176D02*
X86293257Y-39722414D01*
X86293257Y-39722414D02*
X86340876Y-39912890D01*
X86340876Y-39912890D02*
X86340876Y-40055747D01*
X86340876Y-40055747D02*
X86293257Y-40246223D01*
X86293257Y-40246223D02*
X86245638Y-40341461D01*
X86245638Y-40341461D02*
X86150400Y-40436700D01*
X86150400Y-40436700D02*
X86007543Y-40484319D01*
X86007543Y-40484319D02*
X85769448Y-40484319D01*
X86674210Y-39484319D02*
X87340876Y-39484319D01*
X87340876Y-39484319D02*
X86912305Y-40484319D01*
X74105952Y-40419319D02*
X73629762Y-40419319D01*
X73629762Y-40419319D02*
X73629762Y-39419319D01*
X74439286Y-39895509D02*
X74772619Y-39895509D01*
X74915476Y-40419319D02*
X74439286Y-40419319D01*
X74439286Y-40419319D02*
X74439286Y-39419319D01*
X74439286Y-39419319D02*
X74915476Y-39419319D01*
X75344048Y-40419319D02*
X75344048Y-39419319D01*
X75344048Y-39419319D02*
X75582143Y-39419319D01*
X75582143Y-39419319D02*
X75725000Y-39466938D01*
X75725000Y-39466938D02*
X75820238Y-39562176D01*
X75820238Y-39562176D02*
X75867857Y-39657414D01*
X75867857Y-39657414D02*
X75915476Y-39847890D01*
X75915476Y-39847890D02*
X75915476Y-39990747D01*
X75915476Y-39990747D02*
X75867857Y-40181223D01*
X75867857Y-40181223D02*
X75820238Y-40276461D01*
X75820238Y-40276461D02*
X75725000Y-40371700D01*
X75725000Y-40371700D02*
X75582143Y-40419319D01*
X75582143Y-40419319D02*
X75344048Y-40419319D01*
X76772619Y-39419319D02*
X76582143Y-39419319D01*
X76582143Y-39419319D02*
X76486905Y-39466938D01*
X76486905Y-39466938D02*
X76439286Y-39514557D01*
X76439286Y-39514557D02*
X76344048Y-39657414D01*
X76344048Y-39657414D02*
X76296429Y-39847890D01*
X76296429Y-39847890D02*
X76296429Y-40228842D01*
X76296429Y-40228842D02*
X76344048Y-40324080D01*
X76344048Y-40324080D02*
X76391667Y-40371700D01*
X76391667Y-40371700D02*
X76486905Y-40419319D01*
X76486905Y-40419319D02*
X76677381Y-40419319D01*
X76677381Y-40419319D02*
X76772619Y-40371700D01*
X76772619Y-40371700D02*
X76820238Y-40324080D01*
X76820238Y-40324080D02*
X76867857Y-40228842D01*
X76867857Y-40228842D02*
X76867857Y-39990747D01*
X76867857Y-39990747D02*
X76820238Y-39895509D01*
X76820238Y-39895509D02*
X76772619Y-39847890D01*
X76772619Y-39847890D02*
X76677381Y-39800271D01*
X76677381Y-39800271D02*
X76486905Y-39800271D01*
X76486905Y-39800271D02*
X76391667Y-39847890D01*
X76391667Y-39847890D02*
X76344048Y-39895509D01*
X76344048Y-39895509D02*
X76296429Y-39990747D01*
X63945952Y-40419319D02*
X63469762Y-40419319D01*
X63469762Y-40419319D02*
X63469762Y-39419319D01*
X64279286Y-39895509D02*
X64612619Y-39895509D01*
X64755476Y-40419319D02*
X64279286Y-40419319D01*
X64279286Y-40419319D02*
X64279286Y-39419319D01*
X64279286Y-39419319D02*
X64755476Y-39419319D01*
X65184048Y-40419319D02*
X65184048Y-39419319D01*
X65184048Y-39419319D02*
X65422143Y-39419319D01*
X65422143Y-39419319D02*
X65565000Y-39466938D01*
X65565000Y-39466938D02*
X65660238Y-39562176D01*
X65660238Y-39562176D02*
X65707857Y-39657414D01*
X65707857Y-39657414D02*
X65755476Y-39847890D01*
X65755476Y-39847890D02*
X65755476Y-39990747D01*
X65755476Y-39990747D02*
X65707857Y-40181223D01*
X65707857Y-40181223D02*
X65660238Y-40276461D01*
X65660238Y-40276461D02*
X65565000Y-40371700D01*
X65565000Y-40371700D02*
X65422143Y-40419319D01*
X65422143Y-40419319D02*
X65184048Y-40419319D01*
X66660238Y-39419319D02*
X66184048Y-39419319D01*
X66184048Y-39419319D02*
X66136429Y-39895509D01*
X66136429Y-39895509D02*
X66184048Y-39847890D01*
X66184048Y-39847890D02*
X66279286Y-39800271D01*
X66279286Y-39800271D02*
X66517381Y-39800271D01*
X66517381Y-39800271D02*
X66612619Y-39847890D01*
X66612619Y-39847890D02*
X66660238Y-39895509D01*
X66660238Y-39895509D02*
X66707857Y-39990747D01*
X66707857Y-39990747D02*
X66707857Y-40228842D01*
X66707857Y-40228842D02*
X66660238Y-40324080D01*
X66660238Y-40324080D02*
X66612619Y-40371700D01*
X66612619Y-40371700D02*
X66517381Y-40419319D01*
X66517381Y-40419319D02*
X66279286Y-40419319D01*
X66279286Y-40419319D02*
X66184048Y-40371700D01*
X66184048Y-40371700D02*
X66136429Y-40324080D01*
X53785952Y-40419319D02*
X53309762Y-40419319D01*
X53309762Y-40419319D02*
X53309762Y-39419319D01*
X54119286Y-39895509D02*
X54452619Y-39895509D01*
X54595476Y-40419319D02*
X54119286Y-40419319D01*
X54119286Y-40419319D02*
X54119286Y-39419319D01*
X54119286Y-39419319D02*
X54595476Y-39419319D01*
X55024048Y-40419319D02*
X55024048Y-39419319D01*
X55024048Y-39419319D02*
X55262143Y-39419319D01*
X55262143Y-39419319D02*
X55405000Y-39466938D01*
X55405000Y-39466938D02*
X55500238Y-39562176D01*
X55500238Y-39562176D02*
X55547857Y-39657414D01*
X55547857Y-39657414D02*
X55595476Y-39847890D01*
X55595476Y-39847890D02*
X55595476Y-39990747D01*
X55595476Y-39990747D02*
X55547857Y-40181223D01*
X55547857Y-40181223D02*
X55500238Y-40276461D01*
X55500238Y-40276461D02*
X55405000Y-40371700D01*
X55405000Y-40371700D02*
X55262143Y-40419319D01*
X55262143Y-40419319D02*
X55024048Y-40419319D01*
X56452619Y-39752652D02*
X56452619Y-40419319D01*
X56214524Y-39371700D02*
X55976429Y-40085985D01*
X55976429Y-40085985D02*
X56595476Y-40085985D01*
X43625952Y-40419319D02*
X43149762Y-40419319D01*
X43149762Y-40419319D02*
X43149762Y-39419319D01*
X43959286Y-39895509D02*
X44292619Y-39895509D01*
X44435476Y-40419319D02*
X43959286Y-40419319D01*
X43959286Y-40419319D02*
X43959286Y-39419319D01*
X43959286Y-39419319D02*
X44435476Y-39419319D01*
X44864048Y-40419319D02*
X44864048Y-39419319D01*
X44864048Y-39419319D02*
X45102143Y-39419319D01*
X45102143Y-39419319D02*
X45245000Y-39466938D01*
X45245000Y-39466938D02*
X45340238Y-39562176D01*
X45340238Y-39562176D02*
X45387857Y-39657414D01*
X45387857Y-39657414D02*
X45435476Y-39847890D01*
X45435476Y-39847890D02*
X45435476Y-39990747D01*
X45435476Y-39990747D02*
X45387857Y-40181223D01*
X45387857Y-40181223D02*
X45340238Y-40276461D01*
X45340238Y-40276461D02*
X45245000Y-40371700D01*
X45245000Y-40371700D02*
X45102143Y-40419319D01*
X45102143Y-40419319D02*
X44864048Y-40419319D01*
X45768810Y-39419319D02*
X46387857Y-39419319D01*
X46387857Y-39419319D02*
X46054524Y-39800271D01*
X46054524Y-39800271D02*
X46197381Y-39800271D01*
X46197381Y-39800271D02*
X46292619Y-39847890D01*
X46292619Y-39847890D02*
X46340238Y-39895509D01*
X46340238Y-39895509D02*
X46387857Y-39990747D01*
X46387857Y-39990747D02*
X46387857Y-40228842D01*
X46387857Y-40228842D02*
X46340238Y-40324080D01*
X46340238Y-40324080D02*
X46292619Y-40371700D01*
X46292619Y-40371700D02*
X46197381Y-40419319D01*
X46197381Y-40419319D02*
X45911667Y-40419319D01*
X45911667Y-40419319D02*
X45816429Y-40371700D01*
X45816429Y-40371700D02*
X45768810Y-40324080D01*
X33716352Y-40424319D02*
X33240162Y-40424319D01*
X33240162Y-40424319D02*
X33240162Y-39424319D01*
X34049686Y-39900509D02*
X34383019Y-39900509D01*
X34525876Y-40424319D02*
X34049686Y-40424319D01*
X34049686Y-40424319D02*
X34049686Y-39424319D01*
X34049686Y-39424319D02*
X34525876Y-39424319D01*
X34954448Y-40424319D02*
X34954448Y-39424319D01*
X34954448Y-39424319D02*
X35192543Y-39424319D01*
X35192543Y-39424319D02*
X35335400Y-39471938D01*
X35335400Y-39471938D02*
X35430638Y-39567176D01*
X35430638Y-39567176D02*
X35478257Y-39662414D01*
X35478257Y-39662414D02*
X35525876Y-39852890D01*
X35525876Y-39852890D02*
X35525876Y-39995747D01*
X35525876Y-39995747D02*
X35478257Y-40186223D01*
X35478257Y-40186223D02*
X35430638Y-40281461D01*
X35430638Y-40281461D02*
X35335400Y-40376700D01*
X35335400Y-40376700D02*
X35192543Y-40424319D01*
X35192543Y-40424319D02*
X34954448Y-40424319D01*
X35906829Y-39519557D02*
X35954448Y-39471938D01*
X35954448Y-39471938D02*
X36049686Y-39424319D01*
X36049686Y-39424319D02*
X36287781Y-39424319D01*
X36287781Y-39424319D02*
X36383019Y-39471938D01*
X36383019Y-39471938D02*
X36430638Y-39519557D01*
X36430638Y-39519557D02*
X36478257Y-39614795D01*
X36478257Y-39614795D02*
X36478257Y-39710033D01*
X36478257Y-39710033D02*
X36430638Y-39852890D01*
X36430638Y-39852890D02*
X35859210Y-40424319D01*
X35859210Y-40424319D02*
X36478257Y-40424319D01*
X23571352Y-40484319D02*
X23095162Y-40484319D01*
X23095162Y-40484319D02*
X23095162Y-39484319D01*
X23904686Y-39960509D02*
X24238019Y-39960509D01*
X24380876Y-40484319D02*
X23904686Y-40484319D01*
X23904686Y-40484319D02*
X23904686Y-39484319D01*
X23904686Y-39484319D02*
X24380876Y-39484319D01*
X24809448Y-40484319D02*
X24809448Y-39484319D01*
X24809448Y-39484319D02*
X25047543Y-39484319D01*
X25047543Y-39484319D02*
X25190400Y-39531938D01*
X25190400Y-39531938D02*
X25285638Y-39627176D01*
X25285638Y-39627176D02*
X25333257Y-39722414D01*
X25333257Y-39722414D02*
X25380876Y-39912890D01*
X25380876Y-39912890D02*
X25380876Y-40055747D01*
X25380876Y-40055747D02*
X25333257Y-40246223D01*
X25333257Y-40246223D02*
X25285638Y-40341461D01*
X25285638Y-40341461D02*
X25190400Y-40436700D01*
X25190400Y-40436700D02*
X25047543Y-40484319D01*
X25047543Y-40484319D02*
X24809448Y-40484319D01*
X26333257Y-40484319D02*
X25761829Y-40484319D01*
X26047543Y-40484319D02*
X26047543Y-39484319D01*
X26047543Y-39484319D02*
X25952305Y-39627176D01*
X25952305Y-39627176D02*
X25857067Y-39722414D01*
X25857067Y-39722414D02*
X25761829Y-39770033D01*
X45747066Y-22534819D02*
X45747066Y-23249104D01*
X45747066Y-23249104D02*
X45699447Y-23391961D01*
X45699447Y-23391961D02*
X45604209Y-23487200D01*
X45604209Y-23487200D02*
X45461352Y-23534819D01*
X45461352Y-23534819D02*
X45366114Y-23534819D01*
X46128019Y-22534819D02*
X46747066Y-22534819D01*
X46747066Y-22534819D02*
X46413733Y-22915771D01*
X46413733Y-22915771D02*
X46556590Y-22915771D01*
X46556590Y-22915771D02*
X46651828Y-22963390D01*
X46651828Y-22963390D02*
X46699447Y-23011009D01*
X46699447Y-23011009D02*
X46747066Y-23106247D01*
X46747066Y-23106247D02*
X46747066Y-23344342D01*
X46747066Y-23344342D02*
X46699447Y-23439580D01*
X46699447Y-23439580D02*
X46651828Y-23487200D01*
X46651828Y-23487200D02*
X46556590Y-23534819D01*
X46556590Y-23534819D02*
X46270876Y-23534819D01*
X46270876Y-23534819D02*
X46175638Y-23487200D01*
X46175638Y-23487200D02*
X46128019Y-23439580D01*
X88292066Y-22534819D02*
X88292066Y-23249104D01*
X88292066Y-23249104D02*
X88244447Y-23391961D01*
X88244447Y-23391961D02*
X88149209Y-23487200D01*
X88149209Y-23487200D02*
X88006352Y-23534819D01*
X88006352Y-23534819D02*
X87911114Y-23534819D01*
X88720638Y-22630057D02*
X88768257Y-22582438D01*
X88768257Y-22582438D02*
X88863495Y-22534819D01*
X88863495Y-22534819D02*
X89101590Y-22534819D01*
X89101590Y-22534819D02*
X89196828Y-22582438D01*
X89196828Y-22582438D02*
X89244447Y-22630057D01*
X89244447Y-22630057D02*
X89292066Y-22725295D01*
X89292066Y-22725295D02*
X89292066Y-22820533D01*
X89292066Y-22820533D02*
X89244447Y-22963390D01*
X89244447Y-22963390D02*
X88673019Y-23534819D01*
X88673019Y-23534819D02*
X89292066Y-23534819D01*
X69242066Y-22534819D02*
X69242066Y-23249104D01*
X69242066Y-23249104D02*
X69194447Y-23391961D01*
X69194447Y-23391961D02*
X69099209Y-23487200D01*
X69099209Y-23487200D02*
X68956352Y-23534819D01*
X68956352Y-23534819D02*
X68861114Y-23534819D01*
X70242066Y-23534819D02*
X69670638Y-23534819D01*
X69956352Y-23534819D02*
X69956352Y-22534819D01*
X69956352Y-22534819D02*
X69861114Y-22677676D01*
X69861114Y-22677676D02*
X69765876Y-22772914D01*
X69765876Y-22772914D02*
X69670638Y-22820533D01*
X96682305Y-33159819D02*
X96682305Y-32159819D01*
X96682305Y-32159819D02*
X96920400Y-32159819D01*
X96920400Y-32159819D02*
X97063257Y-32207438D01*
X97063257Y-32207438D02*
X97158495Y-32302676D01*
X97158495Y-32302676D02*
X97206114Y-32397914D01*
X97206114Y-32397914D02*
X97253733Y-32588390D01*
X97253733Y-32588390D02*
X97253733Y-32731247D01*
X97253733Y-32731247D02*
X97206114Y-32921723D01*
X97206114Y-32921723D02*
X97158495Y-33016961D01*
X97158495Y-33016961D02*
X97063257Y-33112200D01*
X97063257Y-33112200D02*
X96920400Y-33159819D01*
X96920400Y-33159819D02*
X96682305Y-33159819D01*
X97825162Y-32588390D02*
X97729924Y-32540771D01*
X97729924Y-32540771D02*
X97682305Y-32493152D01*
X97682305Y-32493152D02*
X97634686Y-32397914D01*
X97634686Y-32397914D02*
X97634686Y-32350295D01*
X97634686Y-32350295D02*
X97682305Y-32255057D01*
X97682305Y-32255057D02*
X97729924Y-32207438D01*
X97729924Y-32207438D02*
X97825162Y-32159819D01*
X97825162Y-32159819D02*
X98015638Y-32159819D01*
X98015638Y-32159819D02*
X98110876Y-32207438D01*
X98110876Y-32207438D02*
X98158495Y-32255057D01*
X98158495Y-32255057D02*
X98206114Y-32350295D01*
X98206114Y-32350295D02*
X98206114Y-32397914D01*
X98206114Y-32397914D02*
X98158495Y-32493152D01*
X98158495Y-32493152D02*
X98110876Y-32540771D01*
X98110876Y-32540771D02*
X98015638Y-32588390D01*
X98015638Y-32588390D02*
X97825162Y-32588390D01*
X97825162Y-32588390D02*
X97729924Y-32636009D01*
X97729924Y-32636009D02*
X97682305Y-32683628D01*
X97682305Y-32683628D02*
X97634686Y-32778866D01*
X97634686Y-32778866D02*
X97634686Y-32969342D01*
X97634686Y-32969342D02*
X97682305Y-33064580D01*
X97682305Y-33064580D02*
X97729924Y-33112200D01*
X97729924Y-33112200D02*
X97825162Y-33159819D01*
X97825162Y-33159819D02*
X98015638Y-33159819D01*
X98015638Y-33159819D02*
X98110876Y-33112200D01*
X98110876Y-33112200D02*
X98158495Y-33064580D01*
X98158495Y-33064580D02*
X98206114Y-32969342D01*
X98206114Y-32969342D02*
X98206114Y-32778866D01*
X98206114Y-32778866D02*
X98158495Y-32683628D01*
X98158495Y-32683628D02*
X98110876Y-32636009D01*
X98110876Y-32636009D02*
X98015638Y-32588390D01*
X86522305Y-33159819D02*
X86522305Y-32159819D01*
X86522305Y-32159819D02*
X86760400Y-32159819D01*
X86760400Y-32159819D02*
X86903257Y-32207438D01*
X86903257Y-32207438D02*
X86998495Y-32302676D01*
X86998495Y-32302676D02*
X87046114Y-32397914D01*
X87046114Y-32397914D02*
X87093733Y-32588390D01*
X87093733Y-32588390D02*
X87093733Y-32731247D01*
X87093733Y-32731247D02*
X87046114Y-32921723D01*
X87046114Y-32921723D02*
X86998495Y-33016961D01*
X86998495Y-33016961D02*
X86903257Y-33112200D01*
X86903257Y-33112200D02*
X86760400Y-33159819D01*
X86760400Y-33159819D02*
X86522305Y-33159819D01*
X87427067Y-32159819D02*
X88093733Y-32159819D01*
X88093733Y-32159819D02*
X87665162Y-33159819D01*
X76096905Y-33094819D02*
X76096905Y-32094819D01*
X76096905Y-32094819D02*
X76335000Y-32094819D01*
X76335000Y-32094819D02*
X76477857Y-32142438D01*
X76477857Y-32142438D02*
X76573095Y-32237676D01*
X76573095Y-32237676D02*
X76620714Y-32332914D01*
X76620714Y-32332914D02*
X76668333Y-32523390D01*
X76668333Y-32523390D02*
X76668333Y-32666247D01*
X76668333Y-32666247D02*
X76620714Y-32856723D01*
X76620714Y-32856723D02*
X76573095Y-32951961D01*
X76573095Y-32951961D02*
X76477857Y-33047200D01*
X76477857Y-33047200D02*
X76335000Y-33094819D01*
X76335000Y-33094819D02*
X76096905Y-33094819D01*
X77525476Y-32094819D02*
X77335000Y-32094819D01*
X77335000Y-32094819D02*
X77239762Y-32142438D01*
X77239762Y-32142438D02*
X77192143Y-32190057D01*
X77192143Y-32190057D02*
X77096905Y-32332914D01*
X77096905Y-32332914D02*
X77049286Y-32523390D01*
X77049286Y-32523390D02*
X77049286Y-32904342D01*
X77049286Y-32904342D02*
X77096905Y-32999580D01*
X77096905Y-32999580D02*
X77144524Y-33047200D01*
X77144524Y-33047200D02*
X77239762Y-33094819D01*
X77239762Y-33094819D02*
X77430238Y-33094819D01*
X77430238Y-33094819D02*
X77525476Y-33047200D01*
X77525476Y-33047200D02*
X77573095Y-32999580D01*
X77573095Y-32999580D02*
X77620714Y-32904342D01*
X77620714Y-32904342D02*
X77620714Y-32666247D01*
X77620714Y-32666247D02*
X77573095Y-32571009D01*
X77573095Y-32571009D02*
X77525476Y-32523390D01*
X77525476Y-32523390D02*
X77430238Y-32475771D01*
X77430238Y-32475771D02*
X77239762Y-32475771D01*
X77239762Y-32475771D02*
X77144524Y-32523390D01*
X77144524Y-32523390D02*
X77096905Y-32571009D01*
X77096905Y-32571009D02*
X77049286Y-32666247D01*
X65936905Y-33094819D02*
X65936905Y-32094819D01*
X65936905Y-32094819D02*
X66175000Y-32094819D01*
X66175000Y-32094819D02*
X66317857Y-32142438D01*
X66317857Y-32142438D02*
X66413095Y-32237676D01*
X66413095Y-32237676D02*
X66460714Y-32332914D01*
X66460714Y-32332914D02*
X66508333Y-32523390D01*
X66508333Y-32523390D02*
X66508333Y-32666247D01*
X66508333Y-32666247D02*
X66460714Y-32856723D01*
X66460714Y-32856723D02*
X66413095Y-32951961D01*
X66413095Y-32951961D02*
X66317857Y-33047200D01*
X66317857Y-33047200D02*
X66175000Y-33094819D01*
X66175000Y-33094819D02*
X65936905Y-33094819D01*
X67413095Y-32094819D02*
X66936905Y-32094819D01*
X66936905Y-32094819D02*
X66889286Y-32571009D01*
X66889286Y-32571009D02*
X66936905Y-32523390D01*
X66936905Y-32523390D02*
X67032143Y-32475771D01*
X67032143Y-32475771D02*
X67270238Y-32475771D01*
X67270238Y-32475771D02*
X67365476Y-32523390D01*
X67365476Y-32523390D02*
X67413095Y-32571009D01*
X67413095Y-32571009D02*
X67460714Y-32666247D01*
X67460714Y-32666247D02*
X67460714Y-32904342D01*
X67460714Y-32904342D02*
X67413095Y-32999580D01*
X67413095Y-32999580D02*
X67365476Y-33047200D01*
X67365476Y-33047200D02*
X67270238Y-33094819D01*
X67270238Y-33094819D02*
X67032143Y-33094819D01*
X67032143Y-33094819D02*
X66936905Y-33047200D01*
X66936905Y-33047200D02*
X66889286Y-32999580D01*
X55776905Y-33094819D02*
X55776905Y-32094819D01*
X55776905Y-32094819D02*
X56015000Y-32094819D01*
X56015000Y-32094819D02*
X56157857Y-32142438D01*
X56157857Y-32142438D02*
X56253095Y-32237676D01*
X56253095Y-32237676D02*
X56300714Y-32332914D01*
X56300714Y-32332914D02*
X56348333Y-32523390D01*
X56348333Y-32523390D02*
X56348333Y-32666247D01*
X56348333Y-32666247D02*
X56300714Y-32856723D01*
X56300714Y-32856723D02*
X56253095Y-32951961D01*
X56253095Y-32951961D02*
X56157857Y-33047200D01*
X56157857Y-33047200D02*
X56015000Y-33094819D01*
X56015000Y-33094819D02*
X55776905Y-33094819D01*
X57205476Y-32428152D02*
X57205476Y-33094819D01*
X56967381Y-32047200D02*
X56729286Y-32761485D01*
X56729286Y-32761485D02*
X57348333Y-32761485D01*
X45616905Y-33094819D02*
X45616905Y-32094819D01*
X45616905Y-32094819D02*
X45855000Y-32094819D01*
X45855000Y-32094819D02*
X45997857Y-32142438D01*
X45997857Y-32142438D02*
X46093095Y-32237676D01*
X46093095Y-32237676D02*
X46140714Y-32332914D01*
X46140714Y-32332914D02*
X46188333Y-32523390D01*
X46188333Y-32523390D02*
X46188333Y-32666247D01*
X46188333Y-32666247D02*
X46140714Y-32856723D01*
X46140714Y-32856723D02*
X46093095Y-32951961D01*
X46093095Y-32951961D02*
X45997857Y-33047200D01*
X45997857Y-33047200D02*
X45855000Y-33094819D01*
X45855000Y-33094819D02*
X45616905Y-33094819D01*
X46521667Y-32094819D02*
X47140714Y-32094819D01*
X47140714Y-32094819D02*
X46807381Y-32475771D01*
X46807381Y-32475771D02*
X46950238Y-32475771D01*
X46950238Y-32475771D02*
X47045476Y-32523390D01*
X47045476Y-32523390D02*
X47093095Y-32571009D01*
X47093095Y-32571009D02*
X47140714Y-32666247D01*
X47140714Y-32666247D02*
X47140714Y-32904342D01*
X47140714Y-32904342D02*
X47093095Y-32999580D01*
X47093095Y-32999580D02*
X47045476Y-33047200D01*
X47045476Y-33047200D02*
X46950238Y-33094819D01*
X46950238Y-33094819D02*
X46664524Y-33094819D01*
X46664524Y-33094819D02*
X46569286Y-33047200D01*
X46569286Y-33047200D02*
X46521667Y-32999580D01*
X35707305Y-33099819D02*
X35707305Y-32099819D01*
X35707305Y-32099819D02*
X35945400Y-32099819D01*
X35945400Y-32099819D02*
X36088257Y-32147438D01*
X36088257Y-32147438D02*
X36183495Y-32242676D01*
X36183495Y-32242676D02*
X36231114Y-32337914D01*
X36231114Y-32337914D02*
X36278733Y-32528390D01*
X36278733Y-32528390D02*
X36278733Y-32671247D01*
X36278733Y-32671247D02*
X36231114Y-32861723D01*
X36231114Y-32861723D02*
X36183495Y-32956961D01*
X36183495Y-32956961D02*
X36088257Y-33052200D01*
X36088257Y-33052200D02*
X35945400Y-33099819D01*
X35945400Y-33099819D02*
X35707305Y-33099819D01*
X36659686Y-32195057D02*
X36707305Y-32147438D01*
X36707305Y-32147438D02*
X36802543Y-32099819D01*
X36802543Y-32099819D02*
X37040638Y-32099819D01*
X37040638Y-32099819D02*
X37135876Y-32147438D01*
X37135876Y-32147438D02*
X37183495Y-32195057D01*
X37183495Y-32195057D02*
X37231114Y-32290295D01*
X37231114Y-32290295D02*
X37231114Y-32385533D01*
X37231114Y-32385533D02*
X37183495Y-32528390D01*
X37183495Y-32528390D02*
X36612067Y-33099819D01*
X36612067Y-33099819D02*
X37231114Y-33099819D01*
X25562305Y-33159819D02*
X25562305Y-32159819D01*
X25562305Y-32159819D02*
X25800400Y-32159819D01*
X25800400Y-32159819D02*
X25943257Y-32207438D01*
X25943257Y-32207438D02*
X26038495Y-32302676D01*
X26038495Y-32302676D02*
X26086114Y-32397914D01*
X26086114Y-32397914D02*
X26133733Y-32588390D01*
X26133733Y-32588390D02*
X26133733Y-32731247D01*
X26133733Y-32731247D02*
X26086114Y-32921723D01*
X26086114Y-32921723D02*
X26038495Y-33016961D01*
X26038495Y-33016961D02*
X25943257Y-33112200D01*
X25943257Y-33112200D02*
X25800400Y-33159819D01*
X25800400Y-33159819D02*
X25562305Y-33159819D01*
X27086114Y-33159819D02*
X26514686Y-33159819D01*
X26800400Y-33159819D02*
X26800400Y-32159819D01*
X26800400Y-32159819D02*
X26705162Y-32302676D01*
X26705162Y-32302676D02*
X26609924Y-32397914D01*
X26609924Y-32397914D02*
X26514686Y-32445533D01*
X20894733Y-28669580D02*
X20847114Y-28717200D01*
X20847114Y-28717200D02*
X20704257Y-28764819D01*
X20704257Y-28764819D02*
X20609019Y-28764819D01*
X20609019Y-28764819D02*
X20466162Y-28717200D01*
X20466162Y-28717200D02*
X20370924Y-28621961D01*
X20370924Y-28621961D02*
X20323305Y-28526723D01*
X20323305Y-28526723D02*
X20275686Y-28336247D01*
X20275686Y-28336247D02*
X20275686Y-28193390D01*
X20275686Y-28193390D02*
X20323305Y-28002914D01*
X20323305Y-28002914D02*
X20370924Y-27907676D01*
X20370924Y-27907676D02*
X20466162Y-27812438D01*
X20466162Y-27812438D02*
X20609019Y-27764819D01*
X20609019Y-27764819D02*
X20704257Y-27764819D01*
X20704257Y-27764819D02*
X20847114Y-27812438D01*
X20847114Y-27812438D02*
X20894733Y-27860057D01*
X21228067Y-27764819D02*
X21847114Y-27764819D01*
X21847114Y-27764819D02*
X21513781Y-28145771D01*
X21513781Y-28145771D02*
X21656638Y-28145771D01*
X21656638Y-28145771D02*
X21751876Y-28193390D01*
X21751876Y-28193390D02*
X21799495Y-28241009D01*
X21799495Y-28241009D02*
X21847114Y-28336247D01*
X21847114Y-28336247D02*
X21847114Y-28574342D01*
X21847114Y-28574342D02*
X21799495Y-28669580D01*
X21799495Y-28669580D02*
X21751876Y-28717200D01*
X21751876Y-28717200D02*
X21656638Y-28764819D01*
X21656638Y-28764819D02*
X21370924Y-28764819D01*
X21370924Y-28764819D02*
X21275686Y-28717200D01*
X21275686Y-28717200D02*
X21228067Y-28669580D01*
X25263533Y-28669580D02*
X25215914Y-28717200D01*
X25215914Y-28717200D02*
X25073057Y-28764819D01*
X25073057Y-28764819D02*
X24977819Y-28764819D01*
X24977819Y-28764819D02*
X24834962Y-28717200D01*
X24834962Y-28717200D02*
X24739724Y-28621961D01*
X24739724Y-28621961D02*
X24692105Y-28526723D01*
X24692105Y-28526723D02*
X24644486Y-28336247D01*
X24644486Y-28336247D02*
X24644486Y-28193390D01*
X24644486Y-28193390D02*
X24692105Y-28002914D01*
X24692105Y-28002914D02*
X24739724Y-27907676D01*
X24739724Y-27907676D02*
X24834962Y-27812438D01*
X24834962Y-27812438D02*
X24977819Y-27764819D01*
X24977819Y-27764819D02*
X25073057Y-27764819D01*
X25073057Y-27764819D02*
X25215914Y-27812438D01*
X25215914Y-27812438D02*
X25263533Y-27860057D01*
X25644486Y-27860057D02*
X25692105Y-27812438D01*
X25692105Y-27812438D02*
X25787343Y-27764819D01*
X25787343Y-27764819D02*
X26025438Y-27764819D01*
X26025438Y-27764819D02*
X26120676Y-27812438D01*
X26120676Y-27812438D02*
X26168295Y-27860057D01*
X26168295Y-27860057D02*
X26215914Y-27955295D01*
X26215914Y-27955295D02*
X26215914Y-28050533D01*
X26215914Y-28050533D02*
X26168295Y-28193390D01*
X26168295Y-28193390D02*
X25596867Y-28764819D01*
X25596867Y-28764819D02*
X26215914Y-28764819D01*
X25314333Y-24935780D02*
X25266714Y-24983400D01*
X25266714Y-24983400D02*
X25123857Y-25031019D01*
X25123857Y-25031019D02*
X25028619Y-25031019D01*
X25028619Y-25031019D02*
X24885762Y-24983400D01*
X24885762Y-24983400D02*
X24790524Y-24888161D01*
X24790524Y-24888161D02*
X24742905Y-24792923D01*
X24742905Y-24792923D02*
X24695286Y-24602447D01*
X24695286Y-24602447D02*
X24695286Y-24459590D01*
X24695286Y-24459590D02*
X24742905Y-24269114D01*
X24742905Y-24269114D02*
X24790524Y-24173876D01*
X24790524Y-24173876D02*
X24885762Y-24078638D01*
X24885762Y-24078638D02*
X25028619Y-24031019D01*
X25028619Y-24031019D02*
X25123857Y-24031019D01*
X25123857Y-24031019D02*
X25266714Y-24078638D01*
X25266714Y-24078638D02*
X25314333Y-24126257D01*
X26266714Y-25031019D02*
X25695286Y-25031019D01*
X25981000Y-25031019D02*
X25981000Y-24031019D01*
X25981000Y-24031019D02*
X25885762Y-24173876D01*
X25885762Y-24173876D02*
X25790524Y-24269114D01*
X25790524Y-24269114D02*
X25695286Y-24316733D01*
D11*
%TO.C,U2*%
X21315400Y-27740000D02*
X22115400Y-27740000D01*
X21315400Y-27740000D02*
X20515400Y-27740000D01*
X21315400Y-24620000D02*
X22115400Y-24620000D01*
X21315400Y-24620000D02*
X20515400Y-24620000D01*
X20015400Y-24670000D02*
X19775400Y-24340000D01*
X20255400Y-24340000D01*
X20015400Y-24670000D01*
G36*
X20015400Y-24670000D02*
G01*
X19775400Y-24340000D01*
X20255400Y-24340000D01*
X20015400Y-24670000D01*
G37*
%TO.C,U1*%
X34720400Y-26815000D02*
X34720400Y-24615000D01*
X34720400Y-26815000D02*
X34720400Y-29015000D01*
X29500400Y-26815000D02*
X29500400Y-24615000D01*
X29500400Y-26815000D02*
X29500400Y-29015000D01*
X29700400Y-29715000D02*
X29370400Y-29955000D01*
X29370400Y-29475000D01*
X29700400Y-29715000D01*
G36*
X29700400Y-29715000D02*
G01*
X29370400Y-29955000D01*
X29370400Y-29475000D01*
X29700400Y-29715000D01*
G37*
%TO.C,RLED8*%
X96653336Y-38145000D02*
X97107464Y-38145000D01*
X96653336Y-39615000D02*
X97107464Y-39615000D01*
%TO.C,RLED7*%
X86493336Y-38145000D02*
X86947464Y-38145000D01*
X86493336Y-39615000D02*
X86947464Y-39615000D01*
%TO.C,RLED6*%
X76067936Y-38080000D02*
X76522064Y-38080000D01*
X76067936Y-39550000D02*
X76522064Y-39550000D01*
%TO.C,RLED5*%
X65907936Y-38080000D02*
X66362064Y-38080000D01*
X65907936Y-39550000D02*
X66362064Y-39550000D01*
%TO.C,RLED4*%
X55747936Y-38080000D02*
X56202064Y-38080000D01*
X55747936Y-39550000D02*
X56202064Y-39550000D01*
%TO.C,RLED3*%
X45587936Y-38080000D02*
X46042064Y-38080000D01*
X45587936Y-39550000D02*
X46042064Y-39550000D01*
%TO.C,RLED2*%
X35678336Y-38085000D02*
X36132464Y-38085000D01*
X35678336Y-39555000D02*
X36132464Y-39555000D01*
%TO.C,RLED1*%
X25533336Y-38145000D02*
X25987464Y-38145000D01*
X25533336Y-39615000D02*
X25987464Y-39615000D01*
%TO.C,R8*%
X92240158Y-38225000D02*
X92660642Y-38225000D01*
X92240158Y-42195000D02*
X92660642Y-42195000D01*
%TO.C,R7*%
X82080158Y-38225000D02*
X82500642Y-38225000D01*
X82080158Y-42195000D02*
X82500642Y-42195000D01*
%TO.C,R6*%
X71654758Y-38160000D02*
X72075242Y-38160000D01*
X71654758Y-42130000D02*
X72075242Y-42130000D01*
%TO.C,R5*%
X61494758Y-38160000D02*
X61915242Y-38160000D01*
X61494758Y-42130000D02*
X61915242Y-42130000D01*
%TO.C,R4*%
X51334758Y-38160000D02*
X51755242Y-38160000D01*
X51334758Y-42130000D02*
X51755242Y-42130000D01*
%TO.C,R3*%
X41174758Y-38160000D02*
X41595242Y-38160000D01*
X41174758Y-42130000D02*
X41595242Y-42130000D01*
%TO.C,R2*%
X31265158Y-38165000D02*
X31685642Y-38165000D01*
X31265158Y-42135000D02*
X31685642Y-42135000D01*
%TO.C,R1*%
X21120158Y-38225000D02*
X21540642Y-38225000D01*
X21120158Y-42195000D02*
X21540642Y-42195000D01*
D12*
%TO.C,Q8*%
X93350800Y-33685000D02*
X92550800Y-33685000D01*
X93350800Y-33685000D02*
X93350800Y-34385000D01*
X93350800Y-36585000D02*
X92550800Y-36585000D01*
X93350800Y-36585000D02*
X93350800Y-35885000D01*
D13*
X91450800Y-33435000D02*
G75*
G02*
X91350800Y-33435000I-50000J0D01*
G01*
X91350800Y-33435000D02*
G75*
G02*
X91450800Y-33435000I50000J0D01*
G01*
D12*
%TO.C,Q7*%
X83190800Y-33685000D02*
X82390800Y-33685000D01*
X83190800Y-33685000D02*
X83190800Y-34385000D01*
X83190800Y-36585000D02*
X82390800Y-36585000D01*
X83190800Y-36585000D02*
X83190800Y-35885000D01*
D13*
X81290800Y-33435000D02*
G75*
G02*
X81190800Y-33435000I-50000J0D01*
G01*
X81190800Y-33435000D02*
G75*
G02*
X81290800Y-33435000I50000J0D01*
G01*
D12*
%TO.C,Q6*%
X72765400Y-33620000D02*
X71965400Y-33620000D01*
X72765400Y-33620000D02*
X72765400Y-34320000D01*
X72765400Y-36520000D02*
X71965400Y-36520000D01*
X72765400Y-36520000D02*
X72765400Y-35820000D01*
D13*
X70865400Y-33370000D02*
G75*
G02*
X70765400Y-33370000I-50000J0D01*
G01*
X70765400Y-33370000D02*
G75*
G02*
X70865400Y-33370000I50000J0D01*
G01*
D12*
%TO.C,Q5*%
X62605400Y-33620000D02*
X61805400Y-33620000D01*
X62605400Y-33620000D02*
X62605400Y-34320000D01*
X62605400Y-36520000D02*
X61805400Y-36520000D01*
X62605400Y-36520000D02*
X62605400Y-35820000D01*
D13*
X60705400Y-33370000D02*
G75*
G02*
X60605400Y-33370000I-50000J0D01*
G01*
X60605400Y-33370000D02*
G75*
G02*
X60705400Y-33370000I50000J0D01*
G01*
D12*
%TO.C,Q4*%
X52445400Y-33620000D02*
X51645400Y-33620000D01*
X52445400Y-33620000D02*
X52445400Y-34320000D01*
X52445400Y-36520000D02*
X51645400Y-36520000D01*
X52445400Y-36520000D02*
X52445400Y-35820000D01*
D13*
X50545400Y-33370000D02*
G75*
G02*
X50445400Y-33370000I-50000J0D01*
G01*
X50445400Y-33370000D02*
G75*
G02*
X50545400Y-33370000I50000J0D01*
G01*
D12*
%TO.C,Q3*%
X42285400Y-33620000D02*
X41485400Y-33620000D01*
X42285400Y-33620000D02*
X42285400Y-34320000D01*
X42285400Y-36520000D02*
X41485400Y-36520000D01*
X42285400Y-36520000D02*
X42285400Y-35820000D01*
D13*
X40385400Y-33370000D02*
G75*
G02*
X40285400Y-33370000I-50000J0D01*
G01*
X40285400Y-33370000D02*
G75*
G02*
X40385400Y-33370000I50000J0D01*
G01*
D12*
%TO.C,Q2*%
X32375800Y-33625000D02*
X31575800Y-33625000D01*
X32375800Y-33625000D02*
X32375800Y-34325000D01*
X32375800Y-36525000D02*
X31575800Y-36525000D01*
X32375800Y-36525000D02*
X32375800Y-35825000D01*
D13*
X30475800Y-33375000D02*
G75*
G02*
X30375800Y-33375000I-50000J0D01*
G01*
X30375800Y-33375000D02*
G75*
G02*
X30475800Y-33375000I50000J0D01*
G01*
D12*
%TO.C,Q1*%
X22230800Y-33685000D02*
X21430800Y-33685000D01*
X22230800Y-33685000D02*
X22230800Y-34385000D01*
X22230800Y-36585000D02*
X21430800Y-36585000D01*
X22230800Y-36585000D02*
X22230800Y-35885000D01*
D13*
X20330800Y-33435000D02*
G75*
G02*
X20230800Y-33435000I-50000J0D01*
G01*
X20230800Y-33435000D02*
G75*
G02*
X20330800Y-33435000I50000J0D01*
G01*
D14*
%TO.C,LED8*%
X95238900Y-40918500D02*
X98413900Y-40918500D01*
D12*
X95238900Y-40918500D02*
X98413900Y-40918500D01*
D14*
X95238900Y-42696500D02*
X95238900Y-40918500D01*
D12*
X95238900Y-42696500D02*
X95238900Y-40918500D01*
D14*
X95238900Y-42696500D02*
X98413900Y-42696500D01*
D12*
X96635900Y-41299500D02*
X96635900Y-41553500D01*
X96635900Y-41299500D02*
X96953400Y-41871000D01*
X96635900Y-41553500D02*
X96635900Y-41807500D01*
X96635900Y-41553500D02*
X96889900Y-41934500D01*
X96635900Y-41807500D02*
X96635900Y-42061500D01*
X96635900Y-41807500D02*
X96826400Y-42061500D01*
X96635900Y-42061500D02*
X96635900Y-42315500D01*
X96635900Y-42315500D02*
X96826400Y-42061500D01*
X96826400Y-42061500D02*
X96635900Y-42061500D01*
X96826400Y-42061500D02*
X97016900Y-41807500D01*
X96889900Y-41934500D02*
X96635900Y-41807500D01*
X96953400Y-41871000D02*
X96635900Y-41553500D01*
X97016900Y-41807500D02*
X96635900Y-41299500D01*
X98413900Y-40918500D02*
X98413900Y-42696500D01*
X98413900Y-42696500D02*
X95238900Y-42696500D01*
D14*
X98413900Y-42696500D02*
X98413900Y-40918500D01*
%TO.C,LED7*%
X85078900Y-40918500D02*
X88253900Y-40918500D01*
D12*
X85078900Y-40918500D02*
X88253900Y-40918500D01*
D14*
X85078900Y-42696500D02*
X85078900Y-40918500D01*
D12*
X85078900Y-42696500D02*
X85078900Y-40918500D01*
D14*
X85078900Y-42696500D02*
X88253900Y-42696500D01*
D12*
X86475900Y-41299500D02*
X86475900Y-41553500D01*
X86475900Y-41299500D02*
X86793400Y-41871000D01*
X86475900Y-41553500D02*
X86475900Y-41807500D01*
X86475900Y-41553500D02*
X86729900Y-41934500D01*
X86475900Y-41807500D02*
X86475900Y-42061500D01*
X86475900Y-41807500D02*
X86666400Y-42061500D01*
X86475900Y-42061500D02*
X86475900Y-42315500D01*
X86475900Y-42315500D02*
X86666400Y-42061500D01*
X86666400Y-42061500D02*
X86475900Y-42061500D01*
X86666400Y-42061500D02*
X86856900Y-41807500D01*
X86729900Y-41934500D02*
X86475900Y-41807500D01*
X86793400Y-41871000D02*
X86475900Y-41553500D01*
X86856900Y-41807500D02*
X86475900Y-41299500D01*
X88253900Y-40918500D02*
X88253900Y-42696500D01*
X88253900Y-42696500D02*
X85078900Y-42696500D01*
D14*
X88253900Y-42696500D02*
X88253900Y-40918500D01*
%TO.C,LED6*%
X74653500Y-40853500D02*
X77828500Y-40853500D01*
D12*
X74653500Y-40853500D02*
X77828500Y-40853500D01*
D14*
X74653500Y-42631500D02*
X74653500Y-40853500D01*
D12*
X74653500Y-42631500D02*
X74653500Y-40853500D01*
D14*
X74653500Y-42631500D02*
X77828500Y-42631500D01*
D12*
X76050500Y-41234500D02*
X76050500Y-41488500D01*
X76050500Y-41234500D02*
X76368000Y-41806000D01*
X76050500Y-41488500D02*
X76050500Y-41742500D01*
X76050500Y-41488500D02*
X76304500Y-41869500D01*
X76050500Y-41742500D02*
X76050500Y-41996500D01*
X76050500Y-41742500D02*
X76241000Y-41996500D01*
X76050500Y-41996500D02*
X76050500Y-42250500D01*
X76050500Y-42250500D02*
X76241000Y-41996500D01*
X76241000Y-41996500D02*
X76050500Y-41996500D01*
X76241000Y-41996500D02*
X76431500Y-41742500D01*
X76304500Y-41869500D02*
X76050500Y-41742500D01*
X76368000Y-41806000D02*
X76050500Y-41488500D01*
X76431500Y-41742500D02*
X76050500Y-41234500D01*
X77828500Y-40853500D02*
X77828500Y-42631500D01*
X77828500Y-42631500D02*
X74653500Y-42631500D01*
D14*
X77828500Y-42631500D02*
X77828500Y-40853500D01*
%TO.C,LED5*%
X64493500Y-40853500D02*
X67668500Y-40853500D01*
D12*
X64493500Y-40853500D02*
X67668500Y-40853500D01*
D14*
X64493500Y-42631500D02*
X64493500Y-40853500D01*
D12*
X64493500Y-42631500D02*
X64493500Y-40853500D01*
D14*
X64493500Y-42631500D02*
X67668500Y-42631500D01*
D12*
X65890500Y-41234500D02*
X65890500Y-41488500D01*
X65890500Y-41234500D02*
X66208000Y-41806000D01*
X65890500Y-41488500D02*
X65890500Y-41742500D01*
X65890500Y-41488500D02*
X66144500Y-41869500D01*
X65890500Y-41742500D02*
X65890500Y-41996500D01*
X65890500Y-41742500D02*
X66081000Y-41996500D01*
X65890500Y-41996500D02*
X65890500Y-42250500D01*
X65890500Y-42250500D02*
X66081000Y-41996500D01*
X66081000Y-41996500D02*
X65890500Y-41996500D01*
X66081000Y-41996500D02*
X66271500Y-41742500D01*
X66144500Y-41869500D02*
X65890500Y-41742500D01*
X66208000Y-41806000D02*
X65890500Y-41488500D01*
X66271500Y-41742500D02*
X65890500Y-41234500D01*
X67668500Y-40853500D02*
X67668500Y-42631500D01*
X67668500Y-42631500D02*
X64493500Y-42631500D01*
D14*
X67668500Y-42631500D02*
X67668500Y-40853500D01*
%TO.C,LED4*%
X54333500Y-40853500D02*
X57508500Y-40853500D01*
D12*
X54333500Y-40853500D02*
X57508500Y-40853500D01*
D14*
X54333500Y-42631500D02*
X54333500Y-40853500D01*
D12*
X54333500Y-42631500D02*
X54333500Y-40853500D01*
D14*
X54333500Y-42631500D02*
X57508500Y-42631500D01*
D12*
X55730500Y-41234500D02*
X55730500Y-41488500D01*
X55730500Y-41234500D02*
X56048000Y-41806000D01*
X55730500Y-41488500D02*
X55730500Y-41742500D01*
X55730500Y-41488500D02*
X55984500Y-41869500D01*
X55730500Y-41742500D02*
X55730500Y-41996500D01*
X55730500Y-41742500D02*
X55921000Y-41996500D01*
X55730500Y-41996500D02*
X55730500Y-42250500D01*
X55730500Y-42250500D02*
X55921000Y-41996500D01*
X55921000Y-41996500D02*
X55730500Y-41996500D01*
X55921000Y-41996500D02*
X56111500Y-41742500D01*
X55984500Y-41869500D02*
X55730500Y-41742500D01*
X56048000Y-41806000D02*
X55730500Y-41488500D01*
X56111500Y-41742500D02*
X55730500Y-41234500D01*
X57508500Y-40853500D02*
X57508500Y-42631500D01*
X57508500Y-42631500D02*
X54333500Y-42631500D01*
D14*
X57508500Y-42631500D02*
X57508500Y-40853500D01*
%TO.C,LED3*%
X44173500Y-40853500D02*
X47348500Y-40853500D01*
D12*
X44173500Y-40853500D02*
X47348500Y-40853500D01*
D14*
X44173500Y-42631500D02*
X44173500Y-40853500D01*
D12*
X44173500Y-42631500D02*
X44173500Y-40853500D01*
D14*
X44173500Y-42631500D02*
X47348500Y-42631500D01*
D12*
X45570500Y-41234500D02*
X45570500Y-41488500D01*
X45570500Y-41234500D02*
X45888000Y-41806000D01*
X45570500Y-41488500D02*
X45570500Y-41742500D01*
X45570500Y-41488500D02*
X45824500Y-41869500D01*
X45570500Y-41742500D02*
X45570500Y-41996500D01*
X45570500Y-41742500D02*
X45761000Y-41996500D01*
X45570500Y-41996500D02*
X45570500Y-42250500D01*
X45570500Y-42250500D02*
X45761000Y-41996500D01*
X45761000Y-41996500D02*
X45570500Y-41996500D01*
X45761000Y-41996500D02*
X45951500Y-41742500D01*
X45824500Y-41869500D02*
X45570500Y-41742500D01*
X45888000Y-41806000D02*
X45570500Y-41488500D01*
X45951500Y-41742500D02*
X45570500Y-41234500D01*
X47348500Y-40853500D02*
X47348500Y-42631500D01*
X47348500Y-42631500D02*
X44173500Y-42631500D01*
D14*
X47348500Y-42631500D02*
X47348500Y-40853500D01*
%TO.C,LED2*%
X34263900Y-40858500D02*
X37438900Y-40858500D01*
D12*
X34263900Y-40858500D02*
X37438900Y-40858500D01*
D14*
X34263900Y-42636500D02*
X34263900Y-40858500D01*
D12*
X34263900Y-42636500D02*
X34263900Y-40858500D01*
D14*
X34263900Y-42636500D02*
X37438900Y-42636500D01*
D12*
X35660900Y-41239500D02*
X35660900Y-41493500D01*
X35660900Y-41239500D02*
X35978400Y-41811000D01*
X35660900Y-41493500D02*
X35660900Y-41747500D01*
X35660900Y-41493500D02*
X35914900Y-41874500D01*
X35660900Y-41747500D02*
X35660900Y-42001500D01*
X35660900Y-41747500D02*
X35851400Y-42001500D01*
X35660900Y-42001500D02*
X35660900Y-42255500D01*
X35660900Y-42255500D02*
X35851400Y-42001500D01*
X35851400Y-42001500D02*
X35660900Y-42001500D01*
X35851400Y-42001500D02*
X36041900Y-41747500D01*
X35914900Y-41874500D02*
X35660900Y-41747500D01*
X35978400Y-41811000D02*
X35660900Y-41493500D01*
X36041900Y-41747500D02*
X35660900Y-41239500D01*
X37438900Y-40858500D02*
X37438900Y-42636500D01*
X37438900Y-42636500D02*
X34263900Y-42636500D01*
D14*
X37438900Y-42636500D02*
X37438900Y-40858500D01*
%TO.C,LED1*%
X24118900Y-40918500D02*
X27293900Y-40918500D01*
D12*
X24118900Y-40918500D02*
X27293900Y-40918500D01*
D14*
X24118900Y-42696500D02*
X24118900Y-40918500D01*
D12*
X24118900Y-42696500D02*
X24118900Y-40918500D01*
D14*
X24118900Y-42696500D02*
X27293900Y-42696500D01*
D12*
X25515900Y-41299500D02*
X25515900Y-41553500D01*
X25515900Y-41299500D02*
X25833400Y-41871000D01*
X25515900Y-41553500D02*
X25515900Y-41807500D01*
X25515900Y-41553500D02*
X25769900Y-41934500D01*
X25515900Y-41807500D02*
X25515900Y-42061500D01*
X25515900Y-41807500D02*
X25706400Y-42061500D01*
X25515900Y-42061500D02*
X25515900Y-42315500D01*
X25515900Y-42315500D02*
X25706400Y-42061500D01*
X25706400Y-42061500D02*
X25515900Y-42061500D01*
X25706400Y-42061500D02*
X25896900Y-41807500D01*
X25769900Y-41934500D02*
X25515900Y-41807500D01*
X25833400Y-41871000D02*
X25515900Y-41553500D01*
X25896900Y-41807500D02*
X25515900Y-41299500D01*
X27293900Y-40918500D02*
X27293900Y-42696500D01*
X27293900Y-42696500D02*
X24118900Y-42696500D01*
D14*
X27293900Y-42696500D02*
X27293900Y-40918500D01*
D11*
%TO.C,J3*%
X39470400Y-26690000D02*
X39470400Y-28190000D01*
X53690400Y-26690000D02*
X52690400Y-26690000D01*
X53190400Y-25880000D02*
X53690400Y-25880000D01*
X38170400Y-25990000D02*
X38170400Y-28490000D01*
X38470400Y-28190000D02*
X53690400Y-28190000D01*
X52690400Y-26690000D02*
X52690400Y-28190000D01*
X53690400Y-28190000D02*
X53690400Y-24170000D01*
X38970400Y-24670000D02*
X53190400Y-24670000D01*
X38470400Y-25880000D02*
X38970400Y-25880000D01*
X53190400Y-24670000D02*
X53190400Y-25880000D01*
X38970400Y-25880000D02*
X38970400Y-24670000D01*
X38170400Y-28490000D02*
X40670400Y-28490000D01*
X38470400Y-26690000D02*
X39470400Y-26690000D01*
X53690400Y-24170000D02*
X38470400Y-24170000D01*
X38470400Y-24170000D02*
X38470400Y-28190000D01*
%TO.C,J2*%
X82015400Y-26690000D02*
X82015400Y-28190000D01*
X96235400Y-26690000D02*
X95235400Y-26690000D01*
X95735400Y-25880000D02*
X96235400Y-25880000D01*
X80715400Y-25990000D02*
X80715400Y-28490000D01*
X81015400Y-28190000D02*
X96235400Y-28190000D01*
X95235400Y-26690000D02*
X95235400Y-28190000D01*
X96235400Y-28190000D02*
X96235400Y-24170000D01*
X81515400Y-24670000D02*
X95735400Y-24670000D01*
X81015400Y-25880000D02*
X81515400Y-25880000D01*
X95735400Y-24670000D02*
X95735400Y-25880000D01*
X81515400Y-25880000D02*
X81515400Y-24670000D01*
X80715400Y-28490000D02*
X83215400Y-28490000D01*
X81015400Y-26690000D02*
X82015400Y-26690000D01*
X96235400Y-24170000D02*
X81015400Y-24170000D01*
X81015400Y-24170000D02*
X81015400Y-28190000D01*
%TO.C,J1*%
X62965400Y-26690000D02*
X62965400Y-28190000D01*
X77185400Y-26690000D02*
X76185400Y-26690000D01*
X76685400Y-25880000D02*
X77185400Y-25880000D01*
X61665400Y-25990000D02*
X61665400Y-28490000D01*
X61965400Y-28190000D02*
X77185400Y-28190000D01*
X76185400Y-26690000D02*
X76185400Y-28190000D01*
X77185400Y-28190000D02*
X77185400Y-24170000D01*
X62465400Y-24670000D02*
X76685400Y-24670000D01*
X61965400Y-25880000D02*
X62465400Y-25880000D01*
X76685400Y-24670000D02*
X76685400Y-25880000D01*
X62465400Y-25880000D02*
X62465400Y-24670000D01*
X61665400Y-28490000D02*
X64165400Y-28490000D01*
X61965400Y-26690000D02*
X62965400Y-26690000D01*
X77185400Y-24170000D02*
X61965400Y-24170000D01*
X61965400Y-24170000D02*
X61965400Y-28190000D01*
%TO.C,D8*%
X98420400Y-33395000D02*
X95735400Y-33395000D01*
X95735400Y-33395000D02*
X95735400Y-35315000D01*
X95735400Y-35315000D02*
X98420400Y-35315000D01*
%TO.C,D7*%
X88260400Y-33395000D02*
X85575400Y-33395000D01*
X85575400Y-33395000D02*
X85575400Y-35315000D01*
X85575400Y-35315000D02*
X88260400Y-35315000D01*
%TO.C,D6*%
X77835000Y-33330000D02*
X75150000Y-33330000D01*
X75150000Y-33330000D02*
X75150000Y-35250000D01*
X75150000Y-35250000D02*
X77835000Y-35250000D01*
%TO.C,D5*%
X67675000Y-33330000D02*
X64990000Y-33330000D01*
X64990000Y-33330000D02*
X64990000Y-35250000D01*
X64990000Y-35250000D02*
X67675000Y-35250000D01*
%TO.C,D4*%
X57515000Y-33330000D02*
X54830000Y-33330000D01*
X54830000Y-33330000D02*
X54830000Y-35250000D01*
X54830000Y-35250000D02*
X57515000Y-35250000D01*
%TO.C,D3*%
X47355000Y-33330000D02*
X44670000Y-33330000D01*
X44670000Y-33330000D02*
X44670000Y-35250000D01*
X44670000Y-35250000D02*
X47355000Y-35250000D01*
%TO.C,D2*%
X37445400Y-33335000D02*
X34760400Y-33335000D01*
X34760400Y-33335000D02*
X34760400Y-35255000D01*
X34760400Y-35255000D02*
X37445400Y-35255000D01*
%TO.C,D1*%
X27300400Y-33395000D02*
X24615400Y-33395000D01*
X24615400Y-33395000D02*
X24615400Y-35315000D01*
X24615400Y-35315000D02*
X27300400Y-35315000D01*
%TO.C,C3*%
X20800148Y-30725000D02*
X21322652Y-30725000D01*
X20800148Y-29255000D02*
X21322652Y-29255000D01*
%TO.C,C2*%
X25168948Y-30725000D02*
X25691452Y-30725000D01*
X25168948Y-29255000D02*
X25691452Y-29255000D01*
%TO.C,C1*%
X25219748Y-26991200D02*
X25742252Y-26991200D01*
X25219748Y-25521200D02*
X25742252Y-25521200D01*
%TD*%
%LPC*%
D15*
%TO.C,U2*%
X20177900Y-25230000D03*
X20177900Y-26180000D03*
X20177900Y-27130000D03*
X22452900Y-27130000D03*
X22452900Y-25230000D03*
%TD*%
D16*
%TO.C,U1*%
X30160400Y-29677500D03*
X30810400Y-29677500D03*
X31460400Y-29677500D03*
X32110400Y-29677500D03*
X32760400Y-29677500D03*
X33410400Y-29677500D03*
X34060400Y-29677500D03*
X34060400Y-23952500D03*
X33410400Y-23952500D03*
X32760400Y-23952500D03*
X32110400Y-23952500D03*
X31460400Y-23952500D03*
X30810400Y-23952500D03*
X30160400Y-23952500D03*
%TD*%
D17*
%TO.C,RLED8*%
X95967900Y-38880000D03*
X97792900Y-38880000D03*
%TD*%
%TO.C,RLED7*%
X85807900Y-38880000D03*
X87632900Y-38880000D03*
%TD*%
%TO.C,RLED6*%
X75382500Y-38815000D03*
X77207500Y-38815000D03*
%TD*%
%TO.C,RLED5*%
X65222500Y-38815000D03*
X67047500Y-38815000D03*
%TD*%
%TO.C,RLED4*%
X55062500Y-38815000D03*
X56887500Y-38815000D03*
%TD*%
%TO.C,RLED3*%
X44902500Y-38815000D03*
X46727500Y-38815000D03*
%TD*%
%TO.C,RLED2*%
X34992900Y-38820000D03*
X36817900Y-38820000D03*
%TD*%
%TO.C,RLED1*%
X24847900Y-38880000D03*
X26672900Y-38880000D03*
%TD*%
D18*
%TO.C,R8*%
X91512900Y-40210000D03*
X93387900Y-40210000D03*
%TD*%
%TO.C,R7*%
X81352900Y-40210000D03*
X83227900Y-40210000D03*
%TD*%
%TO.C,R6*%
X70927500Y-40145000D03*
X72802500Y-40145000D03*
%TD*%
%TO.C,R5*%
X60767500Y-40145000D03*
X62642500Y-40145000D03*
%TD*%
%TO.C,R4*%
X50607500Y-40145000D03*
X52482500Y-40145000D03*
%TD*%
%TO.C,R3*%
X40447500Y-40145000D03*
X42322500Y-40145000D03*
%TD*%
%TO.C,R2*%
X30537900Y-40150000D03*
X32412900Y-40150000D03*
%TD*%
%TO.C,R1*%
X20392900Y-40210000D03*
X22267900Y-40210000D03*
%TD*%
D19*
%TO.C,Q8*%
X91550800Y-34185000D03*
X91550800Y-36085000D03*
X93850800Y-35135000D03*
%TD*%
%TO.C,Q7*%
X81390800Y-34185000D03*
X81390800Y-36085000D03*
X83690800Y-35135000D03*
%TD*%
%TO.C,Q6*%
X70965400Y-34120000D03*
X70965400Y-36020000D03*
X73265400Y-35070000D03*
%TD*%
%TO.C,Q5*%
X60805400Y-34120000D03*
X60805400Y-36020000D03*
X63105400Y-35070000D03*
%TD*%
%TO.C,Q4*%
X50645400Y-34120000D03*
X50645400Y-36020000D03*
X52945400Y-35070000D03*
%TD*%
%TO.C,Q3*%
X40485400Y-34120000D03*
X40485400Y-36020000D03*
X42785400Y-35070000D03*
%TD*%
%TO.C,Q2*%
X30575800Y-34125000D03*
X30575800Y-36025000D03*
X32875800Y-35075000D03*
%TD*%
%TO.C,Q1*%
X20430800Y-34185000D03*
X20430800Y-36085000D03*
X22730800Y-35135000D03*
%TD*%
D20*
%TO.C,LED8*%
X95937400Y-41807500D03*
X97715400Y-41807500D03*
%TD*%
%TO.C,LED7*%
X85777400Y-41807500D03*
X87555400Y-41807500D03*
%TD*%
%TO.C,LED6*%
X75352000Y-41742500D03*
X77130000Y-41742500D03*
%TD*%
%TO.C,LED5*%
X65192000Y-41742500D03*
X66970000Y-41742500D03*
%TD*%
%TO.C,LED4*%
X55032000Y-41742500D03*
X56810000Y-41742500D03*
%TD*%
%TO.C,LED3*%
X44872000Y-41742500D03*
X46650000Y-41742500D03*
%TD*%
%TO.C,LED2*%
X34962400Y-41747500D03*
X36740400Y-41747500D03*
%TD*%
%TO.C,LED1*%
X24817400Y-41807500D03*
X26595400Y-41807500D03*
%TD*%
D21*
%TO.C,J3*%
X41080400Y-25880000D03*
D22*
X43580400Y-25880000D03*
X46080400Y-25880000D03*
X48580400Y-25880000D03*
X51080400Y-25880000D03*
%TD*%
D21*
%TO.C,J2*%
X83625400Y-25880000D03*
D22*
X86125400Y-25880000D03*
X88625400Y-25880000D03*
X91125400Y-25880000D03*
X93625400Y-25880000D03*
%TD*%
D21*
%TO.C,J1*%
X64575400Y-25880000D03*
D22*
X67075400Y-25880000D03*
X69575400Y-25880000D03*
X72075400Y-25880000D03*
X74575400Y-25880000D03*
%TD*%
D23*
%TO.C,D8*%
X96482900Y-34355000D03*
X98357900Y-34355000D03*
%TD*%
%TO.C,D7*%
X86322900Y-34355000D03*
X88197900Y-34355000D03*
%TD*%
%TO.C,D6*%
X75897500Y-34290000D03*
X77772500Y-34290000D03*
%TD*%
%TO.C,D5*%
X65737500Y-34290000D03*
X67612500Y-34290000D03*
%TD*%
%TO.C,D4*%
X55577500Y-34290000D03*
X57452500Y-34290000D03*
%TD*%
%TO.C,D3*%
X45417500Y-34290000D03*
X47292500Y-34290000D03*
%TD*%
%TO.C,D2*%
X35507900Y-34295000D03*
X37382900Y-34295000D03*
%TD*%
%TO.C,D1*%
X25362900Y-34355000D03*
X27237900Y-34355000D03*
%TD*%
D24*
%TO.C,C3*%
X20111400Y-29990000D03*
X22011400Y-29990000D03*
%TD*%
%TO.C,C2*%
X24480200Y-29990000D03*
X26380200Y-29990000D03*
%TD*%
%TO.C,C1*%
X24531000Y-26256200D03*
X26431000Y-26256200D03*
%TD*%
%LPD*%
M02*
