%TF.GenerationSoftware,KiCad,Pcbnew,8.0.6*%
%TF.CreationDate,2024-11-04T18:07:15+01:00*%
%TF.ProjectId,ATtiny3,41547469-6e79-4332-9e6b-696361645f70,rev?*%
%TF.SameCoordinates,Original*%
%TF.FileFunction,Soldermask,Bot*%
%TF.FilePolarity,Negative*%
%FSLAX46Y46*%
G04 Gerber Fmt 4.6, Leading zero omitted, Abs format (unit mm)*
G04 Created by KiCad (PCBNEW 8.0.6) date 2024-11-04 18:07:15*
%MOMM*%
%LPD*%
G01*
G04 APERTURE LIST*
G04 Aperture macros list*
%AMRoundRect*
0 Rectangle with rounded corners*
0 $1 Rounding radius*
0 $2 $3 $4 $5 $6 $7 $8 $9 X,Y pos of 4 corners*
0 Add a 4 corners polygon primitive as box body*
4,1,4,$2,$3,$4,$5,$6,$7,$8,$9,$2,$3,0*
0 Add four circle primitives for the rounded corners*
1,1,$1+$1,$2,$3*
1,1,$1+$1,$4,$5*
1,1,$1+$1,$6,$7*
1,1,$1+$1,$8,$9*
0 Add four rect primitives between the rounded corners*
20,1,$1+$1,$2,$3,$4,$5,0*
20,1,$1+$1,$4,$5,$6,$7,0*
20,1,$1+$1,$6,$7,$8,$9,0*
20,1,$1+$1,$8,$9,$2,$3,0*%
G04 Aperture macros list end*
%ADD10R,1.700000X1.700000*%
%ADD11O,1.700000X1.700000*%
%ADD12C,0.670000*%
%ADD13RoundRect,0.500000X-0.600000X0.000010X-0.600000X-0.000010X0.600000X-0.000010X0.600000X0.000010X0*%
%ADD14RoundRect,0.500000X-0.300000X0.000010X-0.300000X-0.000010X0.300000X-0.000010X0.300000X0.000010X0*%
%ADD15C,1.400000*%
%ADD16O,1.400000X1.400000*%
G04 APERTURE END LIST*
D10*
%TO.C,J7*%
X40640000Y-35560000D03*
D11*
X43180000Y-35560000D03*
X45720000Y-35560000D03*
X48260000Y-35560000D03*
X50800000Y-35560000D03*
X53340000Y-35560000D03*
X55880000Y-35560000D03*
%TD*%
D12*
%TO.C,J4*%
X24922500Y-26330000D03*
X24922500Y-32130000D03*
D13*
X25452500Y-24910000D03*
D14*
X21272500Y-24910000D03*
D13*
X25452500Y-33550000D03*
D14*
X21272500Y-33550000D03*
%TD*%
D10*
%TO.C,J9*%
X73660000Y-22860000D03*
D11*
X76200000Y-22860000D03*
X78740000Y-22860000D03*
X81280000Y-22860000D03*
X83820000Y-22860000D03*
X86360000Y-22860000D03*
X88900000Y-22860000D03*
X91440000Y-22860000D03*
%TD*%
D10*
%TO.C,J8*%
X55880000Y-22860000D03*
D11*
X53340000Y-22860000D03*
X50800000Y-22860000D03*
X48260000Y-22860000D03*
X45720000Y-22860000D03*
X43180000Y-22860000D03*
X40640000Y-22860000D03*
%TD*%
D10*
%TO.C,J6*%
X25400000Y-22860000D03*
D11*
X22860000Y-22860000D03*
%TD*%
D10*
%TO.C,J1*%
X35560000Y-35560000D03*
D11*
X33020000Y-35560000D03*
X35560000Y-33020000D03*
X33020000Y-33020000D03*
X35560000Y-30480000D03*
X33020000Y-30480000D03*
%TD*%
D10*
%TO.C,J2*%
X60960000Y-22860000D03*
D11*
X63500000Y-22860000D03*
X66040000Y-22860000D03*
X68580000Y-22860000D03*
%TD*%
D10*
%TO.C,J5*%
X25400000Y-35560000D03*
D11*
X22860000Y-35560000D03*
%TD*%
D10*
%TO.C,J3*%
X60960000Y-35560000D03*
D11*
X63500000Y-35560000D03*
X66040000Y-35560000D03*
X68580000Y-35560000D03*
%TD*%
D15*
%TO.C,R1*%
X29083000Y-29464000D03*
D16*
X29083000Y-34544000D03*
%TD*%
M02*
