%TF.GenerationSoftware,KiCad,Pcbnew,8.0.6*%
%TF.CreationDate,2024-11-04T18:07:15+01:00*%
%TF.ProjectId,ATtiny3,41547469-6e79-4332-9e6b-696361645f70,rev?*%
%TF.SameCoordinates,Original*%
%TF.FileFunction,Copper,L1,Top*%
%TF.FilePolarity,Positive*%
%FSLAX46Y46*%
G04 Gerber Fmt 4.6, Leading zero omitted, Abs format (unit mm)*
G04 Created by KiCad (PCBNEW 8.0.6) date 2024-11-04 18:07:15*
%MOMM*%
%LPD*%
G01*
G04 APERTURE LIST*
G04 Aperture macros list*
%AMRoundRect*
0 Rectangle with rounded corners*
0 $1 Rounding radius*
0 $2 $3 $4 $5 $6 $7 $8 $9 X,Y pos of 4 corners*
0 Add a 4 corners polygon primitive as box body*
4,1,4,$2,$3,$4,$5,$6,$7,$8,$9,$2,$3,0*
0 Add four circle primitives for the rounded corners*
1,1,$1+$1,$2,$3*
1,1,$1+$1,$4,$5*
1,1,$1+$1,$6,$7*
1,1,$1+$1,$8,$9*
0 Add four rect primitives between the rounded corners*
20,1,$1+$1,$2,$3,$4,$5,0*
20,1,$1+$1,$4,$5,$6,$7,0*
20,1,$1+$1,$6,$7,$8,$9,0*
20,1,$1+$1,$8,$9,$2,$3,0*%
G04 Aperture macros list end*
%TA.AperFunction,SMDPad,CuDef*%
%ADD10RoundRect,0.250000X-0.262500X-0.450000X0.262500X-0.450000X0.262500X0.450000X-0.262500X0.450000X0*%
%TD*%
%TA.AperFunction,SMDPad,CuDef*%
%ADD11RoundRect,0.150000X-0.512500X-0.150000X0.512500X-0.150000X0.512500X0.150000X-0.512500X0.150000X0*%
%TD*%
%TA.AperFunction,ComponentPad*%
%ADD12R,1.700000X1.700000*%
%TD*%
%TA.AperFunction,ComponentPad*%
%ADD13O,1.700000X1.700000*%
%TD*%
%TA.AperFunction,SMDPad,CuDef*%
%ADD14RoundRect,0.250000X0.250000X0.475000X-0.250000X0.475000X-0.250000X-0.475000X0.250000X-0.475000X0*%
%TD*%
%TA.AperFunction,SMDPad,CuDef*%
%ADD15RoundRect,0.243750X-0.243750X-0.456250X0.243750X-0.456250X0.243750X0.456250X-0.243750X0.456250X0*%
%TD*%
%TA.AperFunction,SMDPad,CuDef*%
%ADD16R,1.450000X0.250000*%
%TD*%
%TA.AperFunction,SMDPad,CuDef*%
%ADD17R,1.450000X0.300000*%
%TD*%
%TA.AperFunction,ComponentPad*%
%ADD18RoundRect,0.500000X-0.600000X0.000010X-0.600000X-0.000010X0.600000X-0.000010X0.600000X0.000010X0*%
%TD*%
%TA.AperFunction,ComponentPad*%
%ADD19RoundRect,0.500000X-0.300000X0.000010X-0.300000X-0.000010X0.300000X-0.000010X0.300000X0.000010X0*%
%TD*%
%TA.AperFunction,SMDPad,CuDef*%
%ADD20RoundRect,0.150000X0.150000X-0.587500X0.150000X0.587500X-0.150000X0.587500X-0.150000X-0.587500X0*%
%TD*%
%TA.AperFunction,SMDPad,CuDef*%
%ADD21RoundRect,0.250000X-0.450000X0.262500X-0.450000X-0.262500X0.450000X-0.262500X0.450000X0.262500X0*%
%TD*%
%TA.AperFunction,SMDPad,CuDef*%
%ADD22RoundRect,0.250000X-0.475000X0.250000X-0.475000X-0.250000X0.475000X-0.250000X0.475000X0.250000X0*%
%TD*%
%TA.AperFunction,SMDPad,CuDef*%
%ADD23RoundRect,0.250000X0.262500X0.450000X-0.262500X0.450000X-0.262500X-0.450000X0.262500X-0.450000X0*%
%TD*%
%TA.AperFunction,SMDPad,CuDef*%
%ADD24RoundRect,0.225000X0.375000X-0.225000X0.375000X0.225000X-0.375000X0.225000X-0.375000X-0.225000X0*%
%TD*%
%TA.AperFunction,SMDPad,CuDef*%
%ADD25RoundRect,0.100000X0.100000X-0.637500X0.100000X0.637500X-0.100000X0.637500X-0.100000X-0.637500X0*%
%TD*%
%TA.AperFunction,SMDPad,CuDef*%
%ADD26RoundRect,0.243750X-0.456250X0.243750X-0.456250X-0.243750X0.456250X-0.243750X0.456250X0.243750X0*%
%TD*%
%TA.AperFunction,ComponentPad*%
%ADD27C,1.400000*%
%TD*%
%TA.AperFunction,ComponentPad*%
%ADD28O,1.400000X1.400000*%
%TD*%
%TA.AperFunction,ViaPad*%
%ADD29C,0.600000*%
%TD*%
%TA.AperFunction,Conductor*%
%ADD30C,0.300000*%
%TD*%
%TA.AperFunction,Conductor*%
%ADD31C,0.200000*%
%TD*%
%TA.AperFunction,Conductor*%
%ADD32C,0.100000*%
%TD*%
G04 APERTURE END LIST*
D10*
%TO.P,rgate3,1,1*%
%TO.N,PA3*%
X60767100Y-32149700D03*
%TO.P,rgate3,2,2*%
%TO.N,GND*%
X62592100Y-32149700D03*
%TD*%
D11*
%TO.P,U1,1,VIN*%
%TO.N,+5V*%
X31882500Y-23180000D03*
%TO.P,U1,2,GND*%
%TO.N,GND*%
X31882500Y-24130000D03*
%TO.P,U1,3,EN*%
%TO.N,+5V*%
X31882500Y-25080000D03*
%TO.P,U1,4,NC*%
%TO.N,unconnected-(U1-NC-Pad4)*%
X34157500Y-25080000D03*
%TO.P,U1,5,VOUT*%
%TO.N,+3.3V*%
X34157500Y-23180000D03*
%TD*%
D12*
%TO.P,J7,1,Pin_1*%
%TO.N,+3.3V*%
X40640000Y-35560000D03*
D13*
%TO.P,J7,2,Pin_2*%
%TO.N,PA4*%
X43180000Y-35560000D03*
%TO.P,J7,3,Pin_3*%
%TO.N,PA5*%
X45720000Y-35560000D03*
%TO.P,J7,4,Pin_4*%
%TO.N,PA6*%
X48260000Y-35560000D03*
%TO.P,J7,5,Pin_5*%
%TO.N,PA7*%
X50800000Y-35560000D03*
%TO.P,J7,6,Pin_6*%
%TO.N,PB3-RX*%
X53340000Y-35560000D03*
%TO.P,J7,7,Pin_7*%
%TO.N,PB2-TX*%
X55880000Y-35560000D03*
%TD*%
D10*
%TO.P,rgate4,1,1*%
%TO.N,PA4*%
X66767100Y-32149700D03*
%TO.P,rgate4,2,2*%
%TO.N,GND*%
X68592100Y-32149700D03*
%TD*%
D14*
%TO.P,C3,1,1*%
%TO.N,+3.3V*%
X40894000Y-29210000D03*
%TO.P,C3,2,2*%
%TO.N,GND*%
X38994000Y-29210000D03*
%TD*%
D15*
%TO.P,led7,1,+*%
%TO.N,PA7*%
X84742100Y-26053700D03*
%TO.P,led7,2,-*%
%TO.N,Net-(led7--)*%
X86617100Y-26053700D03*
%TD*%
D16*
%TO.P,J4,A1,GND*%
%TO.N,GND*%
X26372500Y-25855000D03*
%TO.P,J4,A4,VBUS*%
%TO.N,+5V*%
X26372500Y-26655000D03*
%TO.P,J4,A5,CC1*%
%TO.N,unconnected-(J4-CC1-PadA5)*%
X26372500Y-27980000D03*
%TO.P,J4,A6,D+*%
%TO.N,unconnected-(J4-D+-PadA6)*%
X26372500Y-28980000D03*
%TO.P,J4,A7,D-*%
%TO.N,unconnected-(J4-D--PadA7)*%
X26372500Y-29480000D03*
%TO.P,J4,A8,SBU1*%
%TO.N,unconnected-(J4-SBU1-PadA8)*%
X26372500Y-30480000D03*
%TO.P,J4,A9,VBUS*%
%TO.N,+5V*%
X26372500Y-31805000D03*
%TO.P,J4,A12,GND*%
%TO.N,GND*%
X26372500Y-32605000D03*
D17*
%TO.P,J4,B1,GND*%
X26372500Y-32330000D03*
%TO.P,J4,B4,VBUS*%
%TO.N,+5V*%
X26372500Y-31530000D03*
D16*
%TO.P,J4,B5,CC2*%
%TO.N,unconnected-(J4-CC2-PadB5)*%
X26372500Y-30980000D03*
%TO.P,J4,B6,D+*%
%TO.N,unconnected-(J4-D+-PadB6)*%
X26372500Y-29980000D03*
%TO.P,J4,B7,D-*%
%TO.N,unconnected-(J4-D--PadB7)*%
X26372500Y-28480000D03*
%TO.P,J4,B8,SBU2*%
%TO.N,unconnected-(J4-SBU2-PadB8)*%
X26372500Y-27480000D03*
D17*
%TO.P,J4,B9,VBUS*%
%TO.N,+5V*%
X26372500Y-26930000D03*
%TO.P,J4,B12,GND*%
%TO.N,GND*%
X26372500Y-26130000D03*
D18*
%TO.P,J4,S1,SHIELD*%
%TO.N,Net-(J4-SHIELD)*%
X25452500Y-24910000D03*
D19*
X21272500Y-24910000D03*
D18*
X25452500Y-33550000D03*
D19*
X21272500Y-33550000D03*
%TD*%
D10*
%TO.P,rgate2,1,1*%
%TO.N,PA2*%
X54767100Y-32149700D03*
%TO.P,rgate2,2,2*%
%TO.N,GND*%
X56592100Y-32149700D03*
%TD*%
D20*
%TO.P,q5,1,G*%
%TO.N,PA5*%
X72763600Y-30039200D03*
%TO.P,q5,2,S*%
%TO.N,GND*%
X74663600Y-30039200D03*
%TO.P,q5,3,D*%
%TO.N,OUT5*%
X73713600Y-28164200D03*
%TD*%
D21*
%TO.P,rled2,1,1*%
%TO.N,Net-(led2--)*%
X58473600Y-30602200D03*
%TO.P,rled2,2,2*%
%TO.N,GND*%
X58473600Y-32427200D03*
%TD*%
D22*
%TO.P,C1,1,1*%
%TO.N,+5V*%
X36830000Y-23246000D03*
%TO.P,C1,2,2*%
%TO.N,GND*%
X36830000Y-25146000D03*
%TD*%
D21*
%TO.P,rled6,1,1*%
%TO.N,Net-(led6--)*%
X82473600Y-30602200D03*
%TO.P,rled6,2,2*%
%TO.N,GND*%
X82473600Y-32427200D03*
%TD*%
D20*
%TO.P,q3,1,G*%
%TO.N,PA3*%
X60763600Y-30039200D03*
%TO.P,q3,2,S*%
%TO.N,GND*%
X62663600Y-30039200D03*
%TO.P,q3,3,D*%
%TO.N,OUT3*%
X61713600Y-28164200D03*
%TD*%
D15*
%TO.P,led5,1,+*%
%TO.N,PA5*%
X72742100Y-26053700D03*
%TO.P,led5,2,-*%
%TO.N,Net-(led5--)*%
X74617100Y-26053700D03*
%TD*%
D10*
%TO.P,rgate5,1,1*%
%TO.N,PA5*%
X72767100Y-32149700D03*
%TO.P,rgate5,2,2*%
%TO.N,GND*%
X74592100Y-32149700D03*
%TD*%
D23*
%TO.P,R2,1,1*%
%TO.N,+3.3V*%
X40856500Y-31496000D03*
%TO.P,R2,2,2*%
%TO.N,PA0-UPDI*%
X39031500Y-31496000D03*
%TD*%
D15*
%TO.P,led6,1,+*%
%TO.N,PA6*%
X78742100Y-26053700D03*
%TO.P,led6,2,-*%
%TO.N,Net-(led6--)*%
X80617100Y-26053700D03*
%TD*%
%TO.P,led4,1,+*%
%TO.N,PA4*%
X66742100Y-26053700D03*
%TO.P,led4,2,-*%
%TO.N,Net-(led4--)*%
X68617100Y-26053700D03*
%TD*%
D24*
%TO.P,dq5,1,+*%
%TO.N,GND*%
X76727600Y-28973700D03*
%TO.P,dq5,2,-*%
%TO.N,OUT5*%
X76727600Y-25673700D03*
%TD*%
D10*
%TO.P,rgate7,1,1*%
%TO.N,PA7*%
X84767100Y-32149700D03*
%TO.P,rgate7,2,2*%
%TO.N,GND*%
X86592100Y-32149700D03*
%TD*%
D15*
%TO.P,led2,1,+*%
%TO.N,PA2*%
X54742100Y-26053700D03*
%TO.P,led2,2,-*%
%TO.N,Net-(led2--)*%
X56617100Y-26053700D03*
%TD*%
D10*
%TO.P,rgate6,1,1*%
%TO.N,PA6*%
X78767100Y-32149700D03*
%TO.P,rgate6,2,2*%
%TO.N,GND*%
X80592100Y-32149700D03*
%TD*%
D24*
%TO.P,dq6,1,+*%
%TO.N,GND*%
X82727600Y-28973700D03*
%TO.P,dq6,2,-*%
%TO.N,OUT6*%
X82727600Y-25673700D03*
%TD*%
D21*
%TO.P,rled4,1,1*%
%TO.N,Net-(led4--)*%
X70473600Y-30602200D03*
%TO.P,rled4,2,2*%
%TO.N,GND*%
X70473600Y-32427200D03*
%TD*%
D24*
%TO.P,dq7,1,+*%
%TO.N,GND*%
X88727600Y-28973700D03*
%TO.P,dq7,2,-*%
%TO.N,OUT7*%
X88727600Y-25673700D03*
%TD*%
%TO.P,dq4,1,+*%
%TO.N,GND*%
X70727600Y-28973700D03*
%TO.P,dq4,2,-*%
%TO.N,OUT4*%
X70727600Y-25673700D03*
%TD*%
D12*
%TO.P,J9,1,Pin_1*%
%TO.N,+5V*%
X73660000Y-22860000D03*
D13*
%TO.P,J9,2,Pin_2*%
%TO.N,OUT1*%
X76200000Y-22860000D03*
%TO.P,J9,3,Pin_3*%
%TO.N,OUT2*%
X78740000Y-22860000D03*
%TO.P,J9,4,Pin_4*%
%TO.N,OUT3*%
X81280000Y-22860000D03*
%TO.P,J9,5,Pin_5*%
%TO.N,OUT4*%
X83820000Y-22860000D03*
%TO.P,J9,6,Pin_6*%
%TO.N,OUT5*%
X86360000Y-22860000D03*
%TO.P,J9,7,Pin_7*%
%TO.N,OUT6*%
X88900000Y-22860000D03*
%TO.P,J9,8,Pin_8*%
%TO.N,OUT7*%
X91440000Y-22860000D03*
%TD*%
D21*
%TO.P,rled5,1,1*%
%TO.N,Net-(led5--)*%
X76473600Y-30602200D03*
%TO.P,rled5,2,2*%
%TO.N,GND*%
X76473600Y-32427200D03*
%TD*%
D24*
%TO.P,dq3,1,+*%
%TO.N,GND*%
X64727600Y-28973700D03*
%TO.P,dq3,2,-*%
%TO.N,OUT3*%
X64727600Y-25673700D03*
%TD*%
D12*
%TO.P,J8,1,Pin_1*%
%TO.N,PB1-SDA*%
X55880000Y-22860000D03*
D13*
%TO.P,J8,2,Pin_2*%
%TO.N,PB0-SCL*%
X53340000Y-22860000D03*
%TO.P,J8,3,Pin_3*%
%TO.N,PA0-UPDI*%
X50800000Y-22860000D03*
%TO.P,J8,4,Pin_4*%
%TO.N,PA1*%
X48260000Y-22860000D03*
%TO.P,J8,5,Pin_5*%
%TO.N,PA2*%
X45720000Y-22860000D03*
%TO.P,J8,6,Pin_6*%
%TO.N,PA3*%
X43180000Y-22860000D03*
%TO.P,J8,7,Pin_7*%
%TO.N,GND*%
X40640000Y-22860000D03*
%TD*%
D21*
%TO.P,rled1,1,1*%
%TO.N,Net-(led1--)*%
X52361100Y-30649700D03*
%TO.P,rled1,2,2*%
%TO.N,GND*%
X52361100Y-32474700D03*
%TD*%
D24*
%TO.P,dq1,1,+*%
%TO.N,GND*%
X52615100Y-29021200D03*
%TO.P,dq1,2,-*%
%TO.N,OUT1*%
X52615100Y-25721200D03*
%TD*%
D12*
%TO.P,J6,1,Pin_1*%
%TO.N,+5V*%
X25400000Y-22860000D03*
D13*
%TO.P,J6,2,Pin_2*%
%TO.N,GND*%
X22860000Y-22860000D03*
%TD*%
D20*
%TO.P,q2,1,G*%
%TO.N,PA2*%
X54763600Y-30039200D03*
%TO.P,q2,2,S*%
%TO.N,GND*%
X56663600Y-30039200D03*
%TO.P,q2,3,D*%
%TO.N,OUT2*%
X55713600Y-28164200D03*
%TD*%
D24*
%TO.P,dq2,1,+*%
%TO.N,GND*%
X58727600Y-28973700D03*
%TO.P,dq2,2,-*%
%TO.N,OUT2*%
X58727600Y-25673700D03*
%TD*%
D12*
%TO.P,J1,1,Pin_1*%
%TO.N,PA0-UPDI*%
X35560000Y-35560000D03*
D13*
%TO.P,J1,2,Pin_2*%
%TO.N,+3.3V*%
X33020000Y-35560000D03*
%TO.P,J1,3,Pin_3*%
%TO.N,unconnected-(J1-Pin_3-Pad3)*%
X35560000Y-33020000D03*
%TO.P,J1,4,Pin_4*%
%TO.N,unconnected-(J1-Pin_4-Pad4)*%
X33020000Y-33020000D03*
%TO.P,J1,5,Pin_5*%
%TO.N,unconnected-(J1-Pin_5-Pad5)*%
X35560000Y-30480000D03*
%TO.P,J1,6,Pin_6*%
%TO.N,GND*%
X33020000Y-30480000D03*
%TD*%
D12*
%TO.P,J2,1,Pin_1*%
%TO.N,PB0-SCL*%
X60960000Y-22860000D03*
D13*
%TO.P,J2,2,Pin_2*%
%TO.N,PB1-SDA*%
X63500000Y-22860000D03*
%TO.P,J2,3,Pin_3*%
%TO.N,+3.3V*%
X66040000Y-22860000D03*
%TO.P,J2,4,Pin_4*%
%TO.N,GND*%
X68580000Y-22860000D03*
%TD*%
D10*
%TO.P,rgate1,1,1*%
%TO.N,PA1*%
X48654600Y-32197200D03*
%TO.P,rgate1,2,2*%
%TO.N,GND*%
X50479600Y-32197200D03*
%TD*%
D25*
%TO.P,U2,1,VCC*%
%TO.N,+3.3V*%
X42754000Y-32072500D03*
%TO.P,U2,2,PA4*%
%TO.N,PA4*%
X43404000Y-32072500D03*
%TO.P,U2,3,PA5*%
%TO.N,PA5*%
X44054000Y-32072500D03*
%TO.P,U2,4,PA6*%
%TO.N,PA6*%
X44704000Y-32072500D03*
%TO.P,U2,5,PA7*%
%TO.N,PA7*%
X45354000Y-32072500D03*
%TO.P,U2,6,PB3*%
%TO.N,PB3-RX*%
X46004000Y-32072500D03*
%TO.P,U2,7,PB2*%
%TO.N,PB2-TX*%
X46654000Y-32072500D03*
%TO.P,U2,8,PB1*%
%TO.N,PB1-SDA*%
X46654000Y-26347500D03*
%TO.P,U2,9,PB0*%
%TO.N,PB0-SCL*%
X46004000Y-26347500D03*
%TO.P,U2,10,~{RESET}/PA0*%
%TO.N,PA0-UPDI*%
X45354000Y-26347500D03*
%TO.P,U2,11,PA1*%
%TO.N,PA1*%
X44704000Y-26347500D03*
%TO.P,U2,12,PA2*%
%TO.N,PA2*%
X44054000Y-26347500D03*
%TO.P,U2,13,PA3*%
%TO.N,PA3*%
X43404000Y-26347500D03*
%TO.P,U2,14,GND*%
%TO.N,GND*%
X42754000Y-26347500D03*
%TD*%
D15*
%TO.P,led1,1,+*%
%TO.N,PA1*%
X48629600Y-26101200D03*
%TO.P,led1,2,-*%
%TO.N,Net-(led1--)*%
X50504600Y-26101200D03*
%TD*%
D21*
%TO.P,rled3,1,1*%
%TO.N,Net-(led3--)*%
X64473600Y-30602200D03*
%TO.P,rled3,2,2*%
%TO.N,GND*%
X64473600Y-32427200D03*
%TD*%
D12*
%TO.P,J5,1,Pin_1*%
%TO.N,+5V*%
X25400000Y-35560000D03*
D13*
%TO.P,J5,2,Pin_2*%
%TO.N,GND*%
X22860000Y-35560000D03*
%TD*%
D10*
%TO.P,RLedON1,1,1*%
%TO.N,Net-(LedON1--)*%
X29313500Y-27178000D03*
%TO.P,RLedON1,2,2*%
%TO.N,GND*%
X31138500Y-27178000D03*
%TD*%
D12*
%TO.P,J3,1,Pin_1*%
%TO.N,PB3-RX*%
X60960000Y-35560000D03*
D13*
%TO.P,J3,2,Pin_2*%
%TO.N,PB2-TX*%
X63500000Y-35560000D03*
%TO.P,J3,3,Pin_3*%
%TO.N,+3.3V*%
X66040000Y-35560000D03*
%TO.P,J3,4,Pin_4*%
%TO.N,GND*%
X68580000Y-35560000D03*
%TD*%
D20*
%TO.P,q1,1,G*%
%TO.N,PA1*%
X48651100Y-30086700D03*
%TO.P,q1,2,S*%
%TO.N,GND*%
X50551100Y-30086700D03*
%TO.P,q1,3,D*%
%TO.N,OUT1*%
X49601100Y-28211700D03*
%TD*%
D26*
%TO.P,LedON1,1,+*%
%TO.N,+5V*%
X29464000Y-23343000D03*
%TO.P,LedON1,2,-*%
%TO.N,Net-(LedON1--)*%
X29464000Y-25218000D03*
%TD*%
D15*
%TO.P,led3,1,+*%
%TO.N,PA3*%
X60742100Y-26053700D03*
%TO.P,led3,2,-*%
%TO.N,Net-(led3--)*%
X62617100Y-26053700D03*
%TD*%
D27*
%TO.P,R1,1*%
%TO.N,Net-(J4-SHIELD)*%
X29083000Y-29464000D03*
D28*
%TO.P,R1,2*%
%TO.N,GND*%
X29083000Y-34544000D03*
%TD*%
D21*
%TO.P,rled7,1,1*%
%TO.N,Net-(led7--)*%
X88473600Y-30602200D03*
%TO.P,rled7,2,2*%
%TO.N,GND*%
X88473600Y-32427200D03*
%TD*%
D20*
%TO.P,q4,1,G*%
%TO.N,PA4*%
X66763600Y-30039200D03*
%TO.P,q4,2,S*%
%TO.N,GND*%
X68663600Y-30039200D03*
%TO.P,q4,3,D*%
%TO.N,OUT4*%
X67713600Y-28164200D03*
%TD*%
%TO.P,q6,1,G*%
%TO.N,PA6*%
X78763600Y-30039200D03*
%TO.P,q6,2,S*%
%TO.N,GND*%
X80663600Y-30039200D03*
%TO.P,q6,3,D*%
%TO.N,OUT6*%
X79713600Y-28164200D03*
%TD*%
%TO.P,q7,1,G*%
%TO.N,PA7*%
X84763600Y-30039200D03*
%TO.P,q7,2,S*%
%TO.N,GND*%
X86663600Y-30039200D03*
%TO.P,q7,3,D*%
%TO.N,OUT7*%
X85713600Y-28164200D03*
%TD*%
D14*
%TO.P,C2,1,1*%
%TO.N,+3.3V*%
X40894000Y-26924000D03*
%TO.P,C2,2,2*%
%TO.N,GND*%
X38994000Y-26924000D03*
%TD*%
D29*
%TO.N,GND*%
X62738000Y-28956000D03*
X30988000Y-28194000D03*
X33020000Y-24130000D03*
X53340000Y-32512000D03*
X27290000Y-32605000D03*
X80772000Y-28956000D03*
X71628000Y-32512000D03*
X27290000Y-25400000D03*
X77470000Y-32512000D03*
X58674000Y-28194000D03*
X56642000Y-28956000D03*
X88900000Y-28194000D03*
X38100000Y-29210000D03*
X68834000Y-28956000D03*
X86614000Y-28956000D03*
X65532000Y-32766000D03*
X89662000Y-32258000D03*
X82804000Y-28194000D03*
X83566000Y-32512000D03*
X59436000Y-32512000D03*
X52615100Y-28231100D03*
X50546000Y-28956000D03*
X35814000Y-25146000D03*
X38100000Y-26924000D03*
X64770000Y-28194000D03*
X42926000Y-27686000D03*
X70612000Y-28194000D03*
X76708000Y-28194000D03*
X74676000Y-28956000D03*
%TO.N,PA0-UPDI*%
X45466000Y-27432000D03*
X39624000Y-30480000D03*
%TO.N,PA4*%
X65786000Y-31496000D03*
%TO.N,PA6*%
X77978000Y-33436000D03*
%TO.N,PA7*%
X84836000Y-34036000D03*
%TO.N,PA5*%
X71628000Y-31711997D03*
%TO.N,PA2*%
X53594000Y-26578000D03*
%TO.N,PA3*%
X59944000Y-27178000D03*
%TO.N,PA1*%
X47676174Y-25999644D03*
%TO.N,OUT5*%
X74422000Y-27686000D03*
X75692000Y-26416000D03*
%TD*%
D30*
%TO.N,+3.3V*%
X66040000Y-21844000D02*
X66040000Y-22860000D01*
X66040000Y-36576000D02*
X66040000Y-35560000D01*
X65532000Y-21336000D02*
X66040000Y-21844000D01*
X38354000Y-24130000D02*
X38354000Y-22098000D01*
X40894000Y-29210000D02*
X40894000Y-31458500D01*
X41433000Y-32072500D02*
X40856500Y-31496000D01*
X40856500Y-31496000D02*
X40856500Y-35343500D01*
X38354000Y-24130000D02*
X38862000Y-24130000D01*
X42418000Y-37338000D02*
X65278000Y-37338000D01*
X40894000Y-26924000D02*
X40894000Y-29210000D01*
X65278000Y-37338000D02*
X66040000Y-36576000D01*
X40894000Y-26162000D02*
X40894000Y-26924000D01*
X38354000Y-22098000D02*
X39116000Y-21336000D01*
X33020000Y-35560000D02*
X33020000Y-36576000D01*
X33274000Y-36830000D02*
X39370000Y-36830000D01*
X39370000Y-36830000D02*
X40640000Y-35560000D01*
X40894000Y-31458500D02*
X40856500Y-31496000D01*
X38862000Y-24130000D02*
X40894000Y-26162000D01*
X34157500Y-23180000D02*
X35107500Y-24130000D01*
X35107500Y-24130000D02*
X38354000Y-24130000D01*
X42754000Y-32072500D02*
X41433000Y-32072500D01*
X40640000Y-35560000D02*
X42418000Y-37338000D01*
X33020000Y-36576000D02*
X33274000Y-36830000D01*
X40856500Y-35343500D02*
X40640000Y-35560000D01*
X39116000Y-21336000D02*
X65532000Y-21336000D01*
%TO.N,GND*%
X62592100Y-32149700D02*
X62592100Y-30110700D01*
X38994000Y-26924000D02*
X38100000Y-26924000D01*
X50479600Y-30158200D02*
X50551100Y-30086700D01*
X80592100Y-30110700D02*
X80663600Y-30039200D01*
X65193200Y-32427200D02*
X65278000Y-32512000D01*
D31*
X26835000Y-25855000D02*
X27290000Y-25400000D01*
X26372500Y-25855000D02*
X26835000Y-25855000D01*
D30*
X88727600Y-28366400D02*
X88900000Y-28194000D01*
X53302700Y-32474700D02*
X53340000Y-32512000D01*
X64473600Y-32427200D02*
X65193200Y-32427200D01*
X38994000Y-29210000D02*
X38100000Y-29210000D01*
X86592100Y-32149700D02*
X86592100Y-30110700D01*
X62592100Y-30110700D02*
X62663600Y-30039200D01*
X31138500Y-28043500D02*
X30988000Y-28194000D01*
X50551100Y-28961100D02*
X50546000Y-28956000D01*
X80663600Y-30039200D02*
X80663600Y-29064400D01*
X76473600Y-32427200D02*
X77385200Y-32427200D01*
X59351200Y-32427200D02*
X59436000Y-32512000D01*
X68592100Y-30110700D02*
X68663600Y-30039200D01*
X86663600Y-29005600D02*
X86614000Y-28956000D01*
D31*
X82727600Y-28270400D02*
X82804000Y-28194000D01*
D30*
X50479600Y-32197200D02*
X50479600Y-30158200D01*
X86663600Y-30039200D02*
X86663600Y-29005600D01*
X68663600Y-30039200D02*
X68663600Y-29126400D01*
X50551100Y-30086700D02*
X50551100Y-28961100D01*
X52361100Y-32474700D02*
X53302700Y-32474700D01*
X56663600Y-30039200D02*
X56663600Y-28977600D01*
X52578000Y-28194000D02*
X52615100Y-28231100D01*
X58727600Y-28973700D02*
X58727600Y-28247600D01*
X64727600Y-28236400D02*
X64770000Y-28194000D01*
X86592100Y-30110700D02*
X86663600Y-30039200D01*
X36830000Y-25146000D02*
X35814000Y-25146000D01*
X56592100Y-30110700D02*
X56663600Y-30039200D01*
X56663600Y-28977600D02*
X56642000Y-28956000D01*
X68592100Y-32149700D02*
X68592100Y-30110700D01*
X58727600Y-28247600D02*
X58674000Y-28194000D01*
X88473600Y-32427200D02*
X89492800Y-32427200D01*
X89492800Y-32427200D02*
X89662000Y-32258000D01*
X58473600Y-32427200D02*
X59351200Y-32427200D01*
X74592100Y-30110700D02*
X74663600Y-30039200D01*
X56592100Y-32149700D02*
X56592100Y-30110700D01*
X64727600Y-28973700D02*
X64727600Y-28236400D01*
X42754000Y-26347500D02*
X42754000Y-27514000D01*
X70727600Y-28973700D02*
X70727600Y-28309600D01*
X52615100Y-29021200D02*
X52615100Y-28231100D01*
X70727600Y-28309600D02*
X70612000Y-28194000D01*
X71543200Y-32427200D02*
X71628000Y-32512000D01*
X88727600Y-28973700D02*
X88727600Y-28366400D01*
X80663600Y-29064400D02*
X80772000Y-28956000D01*
X62663600Y-29030400D02*
X62738000Y-28956000D01*
D31*
X76727600Y-28213600D02*
X76708000Y-28194000D01*
X76727600Y-28973700D02*
X76727600Y-28213600D01*
D30*
X82473600Y-32427200D02*
X83481200Y-32427200D01*
X77385200Y-32427200D02*
X77470000Y-32512000D01*
D31*
X26372500Y-32605000D02*
X27290000Y-32605000D01*
D30*
X68663600Y-29126400D02*
X68834000Y-28956000D01*
X65278000Y-32512000D02*
X65532000Y-32766000D01*
X74663600Y-30039200D02*
X74663600Y-28968400D01*
X31882500Y-24130000D02*
X33020000Y-24130000D01*
X74663600Y-28968400D02*
X74676000Y-28956000D01*
X74592100Y-32149700D02*
X74592100Y-30110700D01*
X70473600Y-32427200D02*
X71543200Y-32427200D01*
X42754000Y-27514000D02*
X42926000Y-27686000D01*
X31138500Y-27178000D02*
X31138500Y-28043500D01*
X80592100Y-32149700D02*
X80592100Y-30110700D01*
X83481200Y-32427200D02*
X83566000Y-32512000D01*
D31*
X82727600Y-28973700D02*
X82727600Y-28270400D01*
D30*
X62663600Y-30039200D02*
X62663600Y-29030400D01*
%TO.N,+5V*%
X31882500Y-22473500D02*
X32004000Y-22352000D01*
X27940000Y-33020000D02*
X27940000Y-30837500D01*
X26372500Y-26930000D02*
X26947500Y-26930000D01*
X32004000Y-22352000D02*
X35936000Y-22352000D01*
X30455000Y-22352000D02*
X32004000Y-22352000D01*
X27940000Y-24130000D02*
X28727000Y-23343000D01*
X73660000Y-21844000D02*
X72405000Y-20589000D01*
X73660000Y-22860000D02*
X73660000Y-21844000D01*
X27940000Y-25937500D02*
X27940000Y-24130000D01*
X26972500Y-31805000D02*
X27940000Y-30837500D01*
X30973000Y-20589000D02*
X29464000Y-22098000D01*
X29464000Y-22098000D02*
X29464000Y-23343000D01*
X26372500Y-31805000D02*
X26972500Y-31805000D01*
X28727000Y-23343000D02*
X29464000Y-23343000D01*
X31882500Y-25080000D02*
X31201000Y-25080000D01*
X26670000Y-22860000D02*
X27940000Y-24130000D01*
X25400000Y-35560000D02*
X27940000Y-33020000D01*
X27940000Y-30837500D02*
X27940000Y-25937500D01*
X25400000Y-22860000D02*
X26670000Y-22860000D01*
X26947500Y-26930000D02*
X27940000Y-25937500D01*
X29464000Y-23343000D02*
X30455000Y-22352000D01*
X35936000Y-22352000D02*
X36830000Y-23246000D01*
X72405000Y-20589000D02*
X30973000Y-20589000D01*
X31882500Y-23180000D02*
X31882500Y-22473500D01*
X31201000Y-25080000D02*
X29464000Y-23343000D01*
D32*
%TO.N,Net-(led1--)*%
X51562000Y-28194000D02*
X51562000Y-29850600D01*
X50504600Y-26101200D02*
X50504600Y-27136600D01*
X51562000Y-29850600D02*
X52361100Y-30649700D01*
X50504600Y-27136600D02*
X51562000Y-28194000D01*
%TO.N,Net-(led2--)*%
X57658000Y-28194000D02*
X57658000Y-29786600D01*
X56617100Y-27153100D02*
X57658000Y-28194000D01*
X57658000Y-29786600D02*
X58473600Y-30602200D01*
X56617100Y-26053700D02*
X56617100Y-27153100D01*
%TO.N,Net-(led3--)*%
X62617100Y-26053700D02*
X62617100Y-27057100D01*
X63500000Y-27940000D02*
X63500000Y-29628600D01*
X62617100Y-27057100D02*
X63500000Y-27940000D01*
X63500000Y-29628600D02*
X64473600Y-30602200D01*
%TO.N,Net-(led4--)*%
X69596000Y-28194000D02*
X69596000Y-29464000D01*
X68617100Y-26053700D02*
X68617100Y-27215100D01*
X68617100Y-27215100D02*
X69596000Y-28194000D01*
X69596000Y-29464000D02*
X70473600Y-30341600D01*
X70473600Y-30341600D02*
X70473600Y-30602200D01*
%TO.N,Net-(led5--)*%
X75438000Y-27574599D02*
X75438000Y-29566600D01*
X75438000Y-29566600D02*
X76473600Y-30602200D01*
X74617100Y-26053700D02*
X74617100Y-26753699D01*
X74617100Y-26753699D02*
X75438000Y-27574599D01*
%TO.N,Net-(led6--)*%
X80617100Y-26053700D02*
X80617100Y-26769100D01*
X81534000Y-29662600D02*
X82473600Y-30602200D01*
X81534000Y-27686000D02*
X81534000Y-29662600D01*
X80617100Y-26769100D02*
X81534000Y-27686000D01*
%TO.N,PA0-UPDI*%
X46228000Y-24892000D02*
X45974000Y-25146000D01*
X38608000Y-35560000D02*
X39031500Y-35136500D01*
X35560000Y-35560000D02*
X38608000Y-35560000D01*
X39370000Y-31157500D02*
X39031500Y-31496000D01*
X46990000Y-24892000D02*
X46228000Y-24892000D01*
X39370000Y-30480000D02*
X39370000Y-31157500D01*
X39031500Y-35136500D02*
X39031500Y-31496000D01*
X45970254Y-25146000D02*
X45354000Y-25762254D01*
X45466000Y-27432000D02*
X45354000Y-27320000D01*
X45354000Y-25762254D02*
X45354000Y-26347500D01*
X47752000Y-24130000D02*
X46990000Y-24892000D01*
X49530000Y-24130000D02*
X47752000Y-24130000D01*
X45974000Y-25146000D02*
X45970254Y-25146000D01*
X39624000Y-30480000D02*
X39370000Y-30480000D01*
X45354000Y-27320000D02*
X45354000Y-26347500D01*
X50800000Y-22860000D02*
X49530000Y-24130000D01*
D31*
%TO.N,PA4*%
X65786000Y-31496000D02*
X66113400Y-31496000D01*
X66742100Y-29734900D02*
X66742100Y-26053700D01*
X66767100Y-30042700D02*
X66763600Y-30039200D01*
X66113400Y-31496000D02*
X66767100Y-32149700D01*
X66767100Y-32149700D02*
X66767100Y-30042700D01*
X43404000Y-32072500D02*
X43404000Y-35336000D01*
X66763600Y-29756400D02*
X66742100Y-29734900D01*
D30*
X43404000Y-35336000D02*
X43180000Y-35560000D01*
D31*
X66763600Y-30039200D02*
X66763600Y-29756400D01*
%TO.N,PA6*%
X78324000Y-33436000D02*
X78767100Y-32992900D01*
X78763600Y-30039200D02*
X78763600Y-29741600D01*
X45332000Y-34410000D02*
X46602000Y-34410000D01*
X78767100Y-32992900D02*
X78767100Y-32149700D01*
X78763600Y-29741600D02*
X78742100Y-29720100D01*
X77978000Y-33436000D02*
X78324000Y-33436000D01*
X46602000Y-34410000D02*
X47752000Y-35560000D01*
X78742100Y-29720100D02*
X78742100Y-26053700D01*
X44704000Y-32072500D02*
X44704000Y-33782000D01*
X47752000Y-35560000D02*
X48260000Y-35560000D01*
X78767100Y-30042700D02*
X78763600Y-30039200D01*
X44704000Y-33782000D02*
X45332000Y-34410000D01*
X78767100Y-32149700D02*
X78767100Y-30042700D01*
%TO.N,PB3-RX*%
X50546000Y-34410000D02*
X52190000Y-34410000D01*
X46004000Y-33558000D02*
X46056000Y-33610000D01*
X47218000Y-33610000D02*
X47498000Y-33890000D01*
X50026000Y-33890000D02*
X50546000Y-34410000D01*
X53340000Y-35560000D02*
X54610000Y-36830000D01*
X47498000Y-33890000D02*
X50026000Y-33890000D01*
X52190000Y-34410000D02*
X53340000Y-35560000D01*
X59690000Y-36830000D02*
X60960000Y-35560000D01*
X54610000Y-36830000D02*
X59690000Y-36830000D01*
X46056000Y-33610000D02*
X47218000Y-33610000D01*
X46004000Y-32072500D02*
X46004000Y-33558000D01*
%TO.N,PA7*%
X84836000Y-32218600D02*
X84767100Y-32149700D01*
X46767686Y-34010000D02*
X47047686Y-34290000D01*
X49530000Y-35306000D02*
X49784000Y-35560000D01*
X49530000Y-35203654D02*
X49530000Y-35306000D01*
X84763600Y-30039200D02*
X84763600Y-29282400D01*
D32*
X84742100Y-26053700D02*
X84742100Y-25493900D01*
D31*
X84767100Y-30042700D02*
X84763600Y-30039200D01*
X49784000Y-35560000D02*
X50800000Y-35560000D01*
X84836000Y-34036000D02*
X84836000Y-32218600D01*
X84742100Y-29260900D02*
X84742100Y-26053700D01*
X84767100Y-32149700D02*
X84767100Y-30042700D01*
X84763600Y-29282400D02*
X84742100Y-29260900D01*
X45497686Y-34010000D02*
X46767686Y-34010000D01*
X45354000Y-32072500D02*
X45354000Y-33866314D01*
X48616346Y-34290000D02*
X49530000Y-35203654D01*
X45354000Y-33866314D02*
X45497686Y-34010000D01*
X47047686Y-34290000D02*
X48616346Y-34290000D01*
%TO.N,PB2-TX*%
X57404000Y-34036000D02*
X61976000Y-34036000D01*
X47599843Y-33426158D02*
X50127843Y-33426158D01*
X61976000Y-34036000D02*
X63500000Y-35560000D01*
X50426000Y-33724315D02*
X52070001Y-33724315D01*
X46736000Y-33210000D02*
X47383685Y-33210000D01*
X52590000Y-34244315D02*
X54564315Y-34244315D01*
X52355686Y-34010000D02*
X52590000Y-34244315D01*
X52070001Y-33724315D02*
X52355686Y-34010000D01*
X46654000Y-32072500D02*
X46654000Y-33128000D01*
X54564315Y-34244315D02*
X55880000Y-35560000D01*
X47383685Y-33210000D02*
X47599843Y-33426158D01*
X55880000Y-35560000D02*
X57404000Y-34036000D01*
X46654000Y-33128000D02*
X46736000Y-33210000D01*
X50127843Y-33426158D02*
X50426000Y-33724315D01*
%TO.N,PA5*%
X72329397Y-31711997D02*
X72767100Y-32149700D01*
X44054000Y-33894000D02*
X45720000Y-35560000D01*
X72767100Y-32149700D02*
X72767100Y-30042700D01*
X72763600Y-26075200D02*
X72742100Y-26053700D01*
X72763600Y-30039200D02*
X72763600Y-26075200D01*
X44054000Y-32072500D02*
X44054000Y-33894000D01*
X71628000Y-31711997D02*
X72329397Y-31711997D01*
X72767100Y-30042700D02*
X72763600Y-30039200D01*
%TO.N,PA2*%
X54767100Y-30042700D02*
X54763600Y-30039200D01*
X54763600Y-29871600D02*
X54742100Y-29850100D01*
X53594000Y-26578000D02*
X54217800Y-26578000D01*
X54742100Y-29850100D02*
X54742100Y-26053700D01*
X54767100Y-32149700D02*
X54767100Y-30042700D01*
D30*
X44054000Y-24526000D02*
X45720000Y-22860000D01*
D31*
X54763600Y-30039200D02*
X54763600Y-29871600D01*
X54217800Y-26578000D02*
X54742100Y-26053700D01*
D30*
X44054000Y-26347500D02*
X44054000Y-24526000D01*
%TO.N,PA3*%
X43180000Y-22860000D02*
X43180000Y-23114000D01*
D31*
X59944000Y-27178000D02*
X59944000Y-26851800D01*
D30*
X43180000Y-23114000D02*
X43404000Y-23338000D01*
D31*
X60767100Y-32149700D02*
X60767100Y-30042700D01*
X60763600Y-26075200D02*
X60742100Y-26053700D01*
X59944000Y-26851800D02*
X60742100Y-26053700D01*
X60767100Y-30042700D02*
X60763600Y-30039200D01*
D30*
X43404000Y-23338000D02*
X43404000Y-26347500D01*
D31*
X60763600Y-30039200D02*
X60763600Y-26075200D01*
D32*
%TO.N,PB0-SCL*%
X59860000Y-21760000D02*
X60960000Y-22860000D01*
X49992000Y-24430000D02*
X50292000Y-24130000D01*
X52070000Y-24130000D02*
X53340000Y-22860000D01*
X54440000Y-21760000D02*
X59860000Y-21760000D01*
X53340000Y-22860000D02*
X54440000Y-21760000D01*
X46004000Y-26347500D02*
X46004000Y-25610001D01*
X46422001Y-25192000D02*
X47114264Y-25192000D01*
X46004000Y-25610001D02*
X46422001Y-25192000D01*
X47876264Y-24430000D02*
X49992000Y-24430000D01*
X50292000Y-24130000D02*
X52070000Y-24130000D01*
X47114264Y-25192000D02*
X47876264Y-24430000D01*
D30*
%TO.N,PA1*%
X45930001Y-24384000D02*
X46736000Y-24384000D01*
D31*
X48528044Y-25999644D02*
X48629600Y-26101200D01*
X48654600Y-32197200D02*
X48654600Y-30090200D01*
D30*
X46736000Y-24384000D02*
X48260000Y-22860000D01*
X44704000Y-25610001D02*
X45930001Y-24384000D01*
D31*
X48651100Y-30086700D02*
X48651100Y-26122700D01*
X47676174Y-25999644D02*
X48528044Y-25999644D01*
X48651100Y-26122700D02*
X48629600Y-26101200D01*
D30*
X44704000Y-26347500D02*
X44704000Y-25610001D01*
D31*
X48654600Y-30090200D02*
X48651100Y-30086700D01*
D32*
%TO.N,PB1-SDA*%
X54780000Y-23960000D02*
X55880000Y-22860000D01*
X48168000Y-24730000D02*
X50246000Y-24730000D01*
X55880000Y-22860000D02*
X56980000Y-23960000D01*
X52664264Y-23960000D02*
X54780000Y-23960000D01*
X46654000Y-26347500D02*
X46654000Y-26244000D01*
X50546000Y-24430000D02*
X52194264Y-24430000D01*
X50246000Y-24730000D02*
X50546000Y-24430000D01*
X52194264Y-24430000D02*
X52664264Y-23960000D01*
X62400000Y-23960000D02*
X63500000Y-22860000D01*
X56980000Y-23960000D02*
X62400000Y-23960000D01*
X46654000Y-26244000D02*
X48168000Y-24730000D01*
%TO.N,OUT2*%
X58727600Y-25673700D02*
X58727600Y-24838400D01*
X72097736Y-23922000D02*
X72435736Y-24260000D01*
X69497899Y-23922000D02*
X72097736Y-23922000D01*
X76655635Y-23960000D02*
X76993635Y-23622000D01*
X75990786Y-23960000D02*
X76655635Y-23960000D01*
X64863314Y-24260000D02*
X69159899Y-24260000D01*
X55713600Y-28164200D02*
X55743400Y-28194000D01*
X69159899Y-24260000D02*
X69497899Y-23922000D01*
X75690786Y-24260000D02*
X75990786Y-23960000D01*
X72435736Y-24260000D02*
X75690786Y-24260000D01*
X64439314Y-24684000D02*
X64863314Y-24260000D01*
X55713600Y-25312400D02*
X56187600Y-24838400D01*
X76993635Y-23622000D02*
X77978000Y-23622000D01*
X55713600Y-28164200D02*
X55713600Y-25312400D01*
X56187600Y-24838400D02*
X58727600Y-24838400D01*
X58727600Y-24838400D02*
X58882000Y-24684000D01*
X58882000Y-24684000D02*
X64439314Y-24684000D01*
X77978000Y-23622000D02*
X78740000Y-22860000D01*
%TO.N,OUT3*%
X61722000Y-25146000D02*
X61884000Y-24984000D01*
X65141300Y-24560000D02*
X69284163Y-24560000D01*
X64727600Y-24973700D02*
X65141300Y-24560000D01*
X61722000Y-25543778D02*
X61722000Y-25146000D01*
X78114365Y-24130000D02*
X78284365Y-23960000D01*
X71973472Y-24222000D02*
X72311472Y-24560000D01*
X78284365Y-23960000D02*
X80180000Y-23960000D01*
X64573878Y-24973700D02*
X64727600Y-24973700D01*
X76909899Y-24130000D02*
X78114365Y-24130000D01*
X61884000Y-24984000D02*
X64563578Y-24984000D01*
X69622163Y-24222000D02*
X71973472Y-24222000D01*
X61713600Y-28164200D02*
X61713600Y-25552178D01*
X80180000Y-23960000D02*
X81280000Y-22860000D01*
X76115050Y-24260000D02*
X76779899Y-24260000D01*
X64727600Y-25673700D02*
X64727600Y-24973700D01*
X75815050Y-24560000D02*
X76115050Y-24260000D01*
X72311472Y-24560000D02*
X75815050Y-24560000D01*
X64563578Y-24984000D02*
X64573878Y-24973700D01*
X61713600Y-25552178D02*
X61722000Y-25543778D01*
X76779899Y-24260000D02*
X76909899Y-24130000D01*
X69284163Y-24560000D02*
X69622163Y-24222000D01*
%TO.N,OUT4*%
X67713600Y-28164200D02*
X67713600Y-25552178D01*
X83312000Y-23876000D02*
X83820000Y-23368000D01*
X70727600Y-25399600D02*
X70727600Y-25673700D01*
X67713600Y-25552178D02*
X68235778Y-25030000D01*
X78238629Y-24430000D02*
X78284629Y-24384000D01*
X78284629Y-24384000D02*
X81791700Y-24384000D01*
X76161314Y-24638000D02*
X77900600Y-24638000D01*
X71763300Y-24638000D02*
X71965208Y-24638000D01*
X71965208Y-24638000D02*
X72187208Y-24860000D01*
X72187208Y-24860000D02*
X75939314Y-24860000D01*
X75939314Y-24860000D02*
X76161314Y-24638000D01*
X70727600Y-25673700D02*
X71763300Y-24638000D01*
X70358000Y-25030000D02*
X70727600Y-25399600D01*
X68235778Y-25030000D02*
X70358000Y-25030000D01*
X81791700Y-24384000D02*
X82299700Y-23876000D01*
X77900600Y-24638000D02*
X78108600Y-24430000D01*
X78108600Y-24430000D02*
X78238629Y-24430000D01*
X82299700Y-23876000D02*
X83312000Y-23876000D01*
X83820000Y-23368000D02*
X83820000Y-22860000D01*
%TO.N,OUT5*%
X84836000Y-24384000D02*
X86360000Y-22860000D01*
X73943800Y-28164200D02*
X74422000Y-27686000D01*
X81915964Y-24684000D02*
X82215964Y-24384000D01*
X76727600Y-25673700D02*
X77717078Y-25673700D01*
X82215964Y-24384000D02*
X84836000Y-24384000D01*
X77717078Y-25673700D02*
X78706778Y-24684000D01*
X75692000Y-26416000D02*
X76434300Y-25673700D01*
X73713600Y-28164200D02*
X73943800Y-28164200D01*
X76434300Y-25673700D02*
X76727600Y-25673700D01*
X78706778Y-24684000D02*
X81915964Y-24684000D01*
%TO.N,OUT6*%
X82037900Y-24984000D02*
X82727600Y-25673700D01*
X88900000Y-24130000D02*
X88900000Y-22860000D01*
X79713600Y-28164200D02*
X79713600Y-26204400D01*
X79756000Y-26162000D02*
X79756000Y-25400000D01*
X83717300Y-24684000D02*
X84960264Y-24684000D01*
X85260264Y-24384000D02*
X88646000Y-24384000D01*
X84960264Y-24684000D02*
X85260264Y-24384000D01*
X82727600Y-25673700D02*
X83717300Y-24684000D01*
X79713600Y-26204400D02*
X79756000Y-26162000D01*
X80172000Y-24984000D02*
X82037900Y-24984000D01*
X79756000Y-25400000D02*
X80172000Y-24984000D01*
X88646000Y-24384000D02*
X88900000Y-24130000D01*
%TO.N,OUT7*%
X85713600Y-28164200D02*
X85713600Y-25552178D01*
X88727600Y-25673700D02*
X88727600Y-25064400D01*
X85713600Y-25552178D02*
X86581778Y-24684000D01*
X89154000Y-24638000D02*
X89662000Y-24638000D01*
X89662000Y-24638000D02*
X91440000Y-22860000D01*
X86581778Y-24684000D02*
X88438000Y-24684000D01*
X88727600Y-25064400D02*
X89154000Y-24638000D01*
X88727600Y-24973600D02*
X88727600Y-25673700D01*
X88438000Y-24684000D02*
X88727600Y-24973600D01*
%TO.N,OUT1*%
X50370264Y-25030000D02*
X50508264Y-24892000D01*
X49900000Y-25030000D02*
X50370264Y-25030000D01*
X69035635Y-23960000D02*
X64739050Y-23960000D01*
X76200000Y-23326522D02*
X75650522Y-23876000D01*
X49601100Y-28211700D02*
X49601100Y-25328900D01*
X52615100Y-24892000D02*
X52615100Y-25721200D01*
X75650522Y-23876000D02*
X74844000Y-23876000D01*
X69373635Y-23622000D02*
X69035635Y-23960000D01*
X53952300Y-24384000D02*
X52615100Y-25721200D01*
X49601100Y-25328900D02*
X49900000Y-25030000D01*
X74844000Y-23876000D02*
X74760000Y-23960000D01*
X50508264Y-24892000D02*
X52615100Y-24892000D01*
X74760000Y-23960000D02*
X72560000Y-23960000D01*
X72222000Y-23622000D02*
X69373635Y-23622000D01*
X76200000Y-22860000D02*
X76200000Y-23326522D01*
X64315050Y-24384000D02*
X53952300Y-24384000D01*
X64739050Y-23960000D02*
X64315050Y-24384000D01*
X72560000Y-23960000D02*
X72222000Y-23622000D01*
D31*
%TO.N,Net-(LedON1--)*%
X29313500Y-25368500D02*
X29464000Y-25218000D01*
X29313500Y-27178000D02*
X29313500Y-25368500D01*
D32*
%TO.N,Net-(led7--)*%
X87630000Y-29758600D02*
X88473600Y-30602200D01*
X87630000Y-28194000D02*
X87630000Y-29758600D01*
X86617100Y-26053700D02*
X86617100Y-27181100D01*
X86617100Y-27181100D02*
X87630000Y-28194000D01*
%TD*%
M02*
